<?xml version="1.0" standalone="no"?>
<!DOCTYPE svg PUBLIC "-//W3C//DTD SVG 1.1//EN" "http://www.w3.org/Graphics/SVG/1.1/DTD/svg11.dtd" >
<svg xmlns="http://www.w3.org/2000/svg" xmlns:xlink="http://www.w3.org/1999/xlink" version="1.1">
<metadata>
Created by FontForge 20201107 at Fri Mar 15 01:06:25 2019
 By www-data
Copyright (c) 2014 ParaType, Inc., ParaType Ltd. All rights reserved.
</metadata>
<defs>
<font id="Stem-Regular" horiz-adv-x="622" >
  <font-face 
    font-family="Stem"
    font-weight="700"
    font-stretch="normal"
    units-per-em="1000"
    panose-1="2 11 7 3 2 2 3 2 2 4"
    ascent="800"
    descent="-200"
    x-height="520"
    cap-height="700"
    bbox="-538 -296 1338 994"
    underline-thickness="50"
    underline-position="-225"
    unicode-range="U+0020-FEFF"
  />
<missing-glyph horiz-adv-x="236" 
 />
    <glyph glyph-name="uniF3D6" unicode="&#xf350;`" 
d="M150 0h-155l261 559h110l261 -559h-157l-42 85h-235zM373 210l-63 124l-66 -124h129zM343 853l109 -82l-132 -164l-100 70z" />
    <glyph glyph-name="uniF3D7" unicode="&#xf355;`" horiz-adv-x="554" 
d="M513 0h-460v560h453v-140h-303v-69h282v-135h-282v-76h310v-140zM318 853l109 -82l-132 -164l-100 70z" />
    <glyph glyph-name="uniF3D8" unicode="&#xf358;`" horiz-adv-x="644" 
d="M441 311l-266 -311h-122v560h150v-311l264 311h124v-560h-150v311zM348 853l109 -82l-132 -164l-100 70z" />
    <glyph glyph-name="uniF3D9" unicode="&#xf35e;`" horiz-adv-x="664" 
d="M24 280q0 124 91.5 207t216.5 83q127 0 217.5 -82.5t90.5 -207.5t-91.5 -207.5t-216.5 -82.5t-216.5 83.5t-91.5 206.5zM179 280q0 -63 45 -104t108 -41q66 0 109.5 40t43.5 105q0 63 -45 104t-108 41q-64 0 -108.5 -41t-44.5 -104zM378 853l109 -82l-132 -164l-100 70z
" />
    <glyph glyph-name="uniF3DA" unicode="&#xf363;`" horiz-adv-x="630" 
d="M155 24l64 120q7 -7 21 -7q30 0 40 33l-280 390h187l166 -237l120 237h158l-214 -427q-33 -64 -72.5 -98.5t-101.5 -34.5q-51 0 -88 24zM348 853l109 -82l-132 -164l-100 70z" />
    <glyph glyph-name="uniF3DB" unicode="&#xf36b;`" horiz-adv-x="777" 
d="M724 0h-151v560h151v-560zM275 245h-72v-105h70q54 0 79 11q24 11 24 42q0 52 -101 52zM53 560h150v-174h99q106 0 167.5 -46.5t61.5 -146.5q0 -52 -20.5 -90.5t-55.5 -60t-77.5 -32t-91.5 -10.5h-233v560zM378 853l109 -82l-132 -164l-100 70z" />
    <glyph glyph-name="uniF3DC" unicode="&#xf36d;`" horiz-adv-x="604" 
d="M425 216h-217v140h215q-18 39 -60.5 56.5t-91.5 17.5q-108 0 -167 -68l-98 97q45 57 117.5 84t152.5 27q137 0 220.5 -77.5t83.5 -210.5q0 -136 -88 -214t-223 -78q-83 0 -156.5 33t-116.5 97l99 85q16 -21 42 -38q49 -37 135 -37q52 0 96.5 20.5t56.5 65.5zM308 853
l109 -82l-132 -164l-100 70z" />
    <glyph glyph-name="uniF3DD" unicode="&#xf36e;`" horiz-adv-x="878" 
d="M203 0h-150v560h150v-212h57q20 101 104 161.5t190 60.5q133 0 216.5 -80t83.5 -210q0 -126 -87.5 -208t-212.5 -82q-115 0 -197.5 61t-97.5 170h-56v-221zM405 280q0 -65 42 -107.5t107 -42.5q67 0 106 41t39 109q0 67 -39 108.5t-106 41.5q-66 0 -107.5 -42t-41.5 -108
zM518 853l109 -82l-132 -164l-100 70z" />
    <glyph glyph-name="uniF3DE" unicode="&#xf36f;`" horiz-adv-x="601" 
d="M548 0h-150v174h-81l-143 -174h-176l169 202q-126 46 -126 165q0 67 39.5 112.5t94.5 63t120 17.5h253v-560zM286 314h112v106h-110q-92 0 -92 -52q0 -29 28.5 -41.5t61.5 -12.5zM338 853l109 -82l-132 -164l-100 70z" />
    <glyph glyph-name="uniF3DF" unicode="&#xf371;`" horiz-adv-x="564" 
d="M55 700q0 30 23.5 50t54.5 20q30 0 54.5 -20.5t24.5 -49.5q0 -14 -8 -32q-10 -18 -30 -29t-41 -11q-33 0 -55.5 20t-22.5 52zM359 700q0 21 13 38.5t34 25.5q19 6 34 6q14 0 33 -6q20 -9 33 -26t13 -38q0 -32 -23 -52t-56 -20t-57 20t-24 52zM257 833l129 -32l-96 -174
l-70 22zM523 0h-470v560h463v-140h-313v-69h292v-135h-292v-76h320v-140z" />
    <glyph glyph-name="uniF460" unicode="&#x410;`" horiz-adv-x="721" 
d="M156 0h-160l307 700h115l307 -700h-162l-57 130h-293zM449 261l-90 209l-92 -209h182zM488 974l69 -128l-240 -113l-57 99z" />
    <glyph glyph-name="uniF461" unicode="&#x415;`" horiz-adv-x="649" 
d="M609 0h-544v700h535v-145h-380v-130h355v-140h-355v-140h389v-145zM468 974l69 -128l-240 -113l-57 99z" />
    <glyph glyph-name="uniF462" unicode="&#x418;`" horiz-adv-x="753" 
d="M533 427l-341 -427h-127v700h155v-429l339 429h129v-700h-155v427zM508 974l69 -128l-240 -113l-57 99z" />
    <glyph glyph-name="uniF463" unicode="&#x41e;`" horiz-adv-x="781" 
d="M30 350q0 152 105.5 257t255.5 105q106 0 196.5 -57t131.5 -153q32 -78 32 -152q0 -151 -105 -256.5t-255 -105.5q-152 0 -256.5 105.5t-104.5 256.5zM191 350q0 -88 57 -150t143 -62q90 0 144.5 61t54.5 151q0 87 -57 149.5t-142 62.5q-88 0 -144 -62t-56 -150zM503 974
l69 -128l-240 -113l-57 99z" />
    <glyph glyph-name="uniF464" unicode="&#x423;`" horiz-adv-x="728" 
d="M405 352l161 348h162l-254 -536q-39 -80 -82.5 -122t-117.5 -42q-86 0 -141 80l100 91q17 -26 43 -26q30 0 50 42l-326 513h192zM508 974l69 -128l-240 -113l-57 99z" />
    <glyph glyph-name="uniF465" unicode="&#x42b;`" horiz-adv-x="900" 
d="M835 0h-155v700h155v-700zM321 323h-101v-178h99q30 0 51 3t43 11.5t33 27.5t11 49q0 87 -136 87zM65 700h155v-232h104q60 0 110.5 -12.5t93 -38.5t66.5 -72.5t24 -108.5q0 -65 -24.5 -112t-68.5 -73.5t-96 -38.5t-114 -12h-250v700zM568 974l69 -128l-240 -113l-57 99z
" />
    <glyph glyph-name="uniF466" unicode="&#x42d;`" horiz-adv-x="707" 
d="M517 285h-310v145h308q-18 66 -73 99.5t-128 33.5q-59 0 -113 -22.5t-90 -66.5l-102 100q50 67 134 100.5t177 33.5q165 0 261 -96.5t96 -258.5q0 -165 -101 -263t-264 -98q-95 0 -178.5 38t-133.5 112l103 88q68 -93 213 -93q77 0 132.5 38t68.5 110zM438 974l69 -128
l-240 -113l-57 99z" />
    <glyph glyph-name="uniF467" unicode="&#x42e;`" horiz-adv-x="1014" 
d="M220 0h-155v700h155v-278h71q22 128 118.5 207t225.5 79q159 0 254 -100.5t95 -257.5q0 -153 -99.5 -255.5t-249.5 -102.5q-141 0 -234 80.5t-111 217.5h-70v-290zM443 350q0 -90 52.5 -151.5t139.5 -61.5q91 0 139.5 60t48.5 153q0 92 -49.5 152.5t-138.5 60.5
t-140.5 -62t-51.5 -151zM708 974l69 -128l-240 -113l-57 99z" />
    <glyph glyph-name="uniF468" unicode="&#x42f;`" horiz-adv-x="701" 
d="M636 0h-155v231h-119l-179 -231h-183l206 260q-73 22 -114.5 75t-41.5 129q0 80 44 135.5t108 78t141 22.5h293v-700zM328 376h153v179h-147q-123 0 -123 -90q0 -42 36 -65.5t81 -23.5zM498 974l69 -128l-240 -113l-57 99z" />
    <glyph glyph-name="uniF469" unicode="&#x401;`" horiz-adv-x="649" 
d="M95 831q0 33 25.5 54.5t59.5 21.5q32 0 57.5 -22.5t25.5 -53.5q0 -32 -25.5 -54.5t-57.5 -22.5q-27 0 -47 13q-38 21 -38 64zM414 831q0 33 26 54.5t59 21.5t57.5 -22t24.5 -54t-24.5 -54.5t-57.5 -22.5t-59 22t-26 55zM301 971l143 -36l-84 -156l-84 16zM609 0h-544v700
h535v-145h-380v-130h355v-140h-355v-140h389v-145z" />
    <glyph glyph-name="uniF46A" unicode="&#x430;`" horiz-adv-x="532" 
d="M117 346l-69 105q38 41 101.5 60.5t127.5 19.5q101 0 157 -57t56 -159v-315h-145v47q-22 -25 -62.5 -39t-77.5 -14q-82 0 -136 45t-54 125q0 61 38 101t88.5 55t109.5 15t94 -13q2 38 -20 56q-23 18 -64 18q-73 0 -144 -50zM235 119q33 0 64.5 16t45.5 43v24
q-35 13 -79 13q-34 0 -58 -6q-43 -14 -43 -45q0 -24 21.5 -34.5t48.5 -10.5zM328 833l109 -82l-132 -164l-100 70z" />
    <glyph glyph-name="uniF46B" unicode="&#x435;`" horiz-adv-x="558" 
d="M438 184l87 -88q-83 -104 -224 -104q-125 0 -203 74t-78 195q0 123 74.5 196.5t195.5 73.5q109 0 178.5 -66t69.5 -173q0 -28 -8 -84h-358q10 -41 47 -61t84 -20q88 0 135 57zM285 401q-83 0 -110 -68h213q-18 68 -103 68zM347 833l109 -82l-132 -164l-100 70z" />
    <glyph glyph-name="uniF46C" unicode="&#x438;`" horiz-adv-x="591" 
d="M401 283l-233 -283h-123v520h145v-283l233 283h123v-520h-145v283zM363 833l109 -82l-132 -164l-100 70z" />
    <glyph glyph-name="uniF46D" unicode="&#x43e;`" horiz-adv-x="604" 
d="M20 261q0 120 81 195t200 75q121 0 202 -75.5t81 -194.5q0 -120 -82 -194.5t-201 -74.5t-200 76t-81 193zM170 261q0 -57 37.5 -95.5t93.5 -38.5q60 0 96.5 37t36.5 97q0 59 -37 97t-96 38t-95 -38t-36 -97zM363 833l109 -82l-132 -164l-100 70z" />
    <glyph glyph-name="uniF46E" unicode="&#x443;`" horiz-adv-x="557" 
d="M417 520h155l-293 -720h-157l107 244l-249 476h169l151 -302zM338 833l109 -82l-132 -164l-100 70z" />
    <glyph glyph-name="uniF46F" unicode="&#x44b;`" horiz-adv-x="703" 
d="M249 0h-204v520h145v-138h66q104 0 166 -46t62 -144q0 -97 -67.5 -144.5t-167.5 -47.5zM248 247h-58v-112h57q87 0 87 56q0 24 -14 37t-30.5 16t-41.5 3zM658 0h-145v520h145v-520zM388 833l109 -82l-132 -164l-100 70z" />
    <glyph glyph-name="uniF470" unicode="&#x44d;`" horiz-adv-x="552" 
d="M381 203h-198v125h195q-16 40 -48.5 54t-81.5 14q-40 0 -78 -18t-59 -50l-104 78q92 125 258 125q122 0 194.5 -73.5t72.5 -196.5q0 -124 -77.5 -196.5t-200.5 -72.5q-79 0 -149 30t-100 92l105 75q45 -62 129 -62q115 0 142 76zM304 833l109 -82l-132 -164l-100 70z" />
    <glyph glyph-name="uniF471" unicode="&#x44e;`" horiz-adv-x="803" 
d="M190 0h-145v520h145v-190h65q23 95 91 148t165 53q119 0 195.5 -76.5t76.5 -193.5q0 -119 -77.5 -194t-194.5 -75q-101 0 -170 55.5t-89 154.5h-62v-202zM397 261q0 -57 29.5 -95.5t85.5 -38.5q58 0 89.5 38t31.5 96q0 59 -32 97t-89 38q-41 0 -73 -29t-38 -70
q-4 -19 -4 -36zM493 833l109 -82l-132 -164l-100 70z" />
    <glyph glyph-name="uniF472" unicode="&#x44f;`" horiz-adv-x="533" 
d="M268 520h220v-520h-145v157h-67l-107 -157h-167l133 182q-53 16 -79 59.5t-26 101.5q0 65 37.5 106.5t88 56t112.5 14.5zM180 337q0 -45 74 -45h89v93h-84q-79 0 -79 -48zM347 833l109 -82l-132 -164l-100 70z" />
    <glyph glyph-name="uniF473" unicode="&#x451;`" horiz-adv-x="558" 
d="M60 660q0 30 23.5 50t54.5 20q30 0 54.5 -20.5t24.5 -49.5q0 -14 -8 -32q-10 -18 -30 -29t-41 -11q-33 0 -55.5 20t-22.5 52zM364 660q0 21 13 38.5t34 25.5q19 6 34 6q13 0 33 -6q20 -9 33 -26t13 -38q0 -32 -23 -52t-56 -20t-57 20t-24 52zM262 793l129 -32l-96 -174
l-70 22zM428 184l87 -88q-83 -104 -214 -104q-125 0 -203 74t-78 195q0 123 74.5 196.5t195.5 73.5q109 0 178.5 -66t69.5 -173q0 -28 -8 -84h-358q10 -41 47 -61t84 -20q80 0 125 57zM285 401q-83 0 -110 -68h213q-18 68 -103 68z" />
    <glyph glyph-name="uniFB01" unicode="fi" horiz-adv-x="586" 
d="M77 385h-72v135h72v10q0 95 49 151.5t140 56.5q44 0 82 -17l-48 -128q-10 10 -25 10q-54 0 -54 -73v-10h111v-135h-110v-385h-145v385zM532 0h-145v520h145v-520zM378 658q0 32 25 52t57 20q33 0 57 -20t24 -52q0 -33 -23.5 -53.5t-57.5 -20.5t-58 20t-24 54z" />
    <glyph glyph-name="uniFB02" unicode="fl" horiz-adv-x="516" 
d="M471 0h-145v584q-19 19 -51 19q-54 0 -54 -73v-10h61v-135h-60v-385h-145v385h-72v135h72v10q0 95 49 151.5t140 56.5q65 0 110 -32l95 32v-738z" />
    <glyph glyph-name=".notdef" horiz-adv-x="236" 
 />
    <glyph glyph-name=".null" horiz-adv-x="0" 
 />
    <glyph glyph-name="nonmarkingreturn" horiz-adv-x="333" 
 />
    <glyph glyph-name="uni0020" unicode=" " horiz-adv-x="236" 
 />
    <glyph glyph-name="uni0021" unicode="!" horiz-adv-x="309" 
d="M231 197h-151v503h151v-503zM70 75q0 32 27 53.5t59 21.5q31 0 57 -22t26 -53q0 -32 -25.5 -54.5t-57.5 -22.5q-34 0 -60 22t-26 55z" />
    <glyph glyph-name="uni0022" unicode="&#x22;" horiz-adv-x="460" 
d="M400 432h-149v268h149v-268zM209 432h-149v268h149v-268z" />
    <glyph glyph-name="uni0023" unicode="#" horiz-adv-x="717" 
d="M407 -21l-133 42l60 161h-78l-75 -203l-133 42l60 161h-68v126h115l32 84h-147v126h193l76 203l132 -42l-60 -161h78l74 203l133 -41l-61 -162h72v-126h-118l-32 -84h150v-126h-196zM411 392h-77l-32 -84h79z" />
    <glyph glyph-name="uni0024" unicode="$" horiz-adv-x="605" 
d="M427 194q0 33 -46 58q-21 10 -103 34q-81 23 -117 40q-124 57 -124 177q0 79 58.5 134.5t140.5 71.5v70h149v-70q125 -24 197 -122l-104 -100q-74 84 -176 84q-105 0 -105 -66q0 -37 57 -54q29 -11 96 -29q41 -11 70 -21t63 -28.5t55 -39.5t35 -54t14 -73
q0 -84 -58.5 -141.5t-143.5 -74.5v-78h-149v80q-76 13 -139.5 55.5t-98.5 107.5l113 94q33 -55 88.5 -87.5t118.5 -32.5q41 0 75 14.5t34 50.5z" />
    <glyph glyph-name="uni0025" unicode="%" horiz-adv-x="937" 
d="M274 -26l-117 68l512 693l111 -81zM30 517q0 84 58.5 135t143.5 51q86 0 144 -50.5t58 -135.5q0 -82 -59 -133.5t-143 -51.5q-83 0 -142.5 52.5t-59.5 132.5zM176 517q0 -24 16 -43t40 -19q25 0 40.5 18t15.5 44t-15.5 44t-40.5 18t-40.5 -18.5t-15.5 -43.5zM503 182
q0 84 58.5 134.5t143.5 50.5q83 0 144 -51q58 -55 58 -134q0 -82 -59.5 -134t-142.5 -52q-84 0 -143 52t-59 134zM649 182q0 -24 16 -43t40 -19q25 0 40.5 18t15.5 44t-15.5 44t-40.5 18t-40.5 -18.5t-15.5 -43.5z" />
    <glyph glyph-name="uni0026" unicode="&#x26;" horiz-adv-x="783" 
d="M794 0h-193q-2 2 -8.5 6.5t-10.5 7.5q-20 15 -59 52q-102 -75 -217 -75q-50 0 -97 11t-89 33.5t-67.5 62.5t-25.5 92q0 81 50.5 134.5t140.5 103.5q-59 76 -59 141q0 70 55 105t129 35q52 0 91.5 -11t68.5 -43t29 -84q0 -48 -33.5 -93.5t-79.5 -76.5q29 -47 103 -125
q69 83 69 224h149q0 -90 -30.5 -187.5t-85.5 -156.5q78 -87 170 -156zM312 131q70 0 105 41q-12 15 -62 72q-42 46 -57 66q-62 -36 -85 -59q-21 -21 -21 -45q0 -27 30 -51t90 -24zM319 549q0 -21 25 -46q28 16 28 46t-26 30q-27 0 -27 -30z" />
    <glyph glyph-name="uni0027" unicode="'" horiz-adv-x="269" 
d="M209 432h-149v268h149v-268z" />
    <glyph glyph-name="uni0028" unicode="(" horiz-adv-x="371" 
d="M361 -113l-107 -87q-107 93 -165.5 212t-58.5 255q0 271 220 467l109 -87q-84 -78 -132.5 -175.5t-48.5 -204.5q0 -105 50 -204t133 -176z" />
    <glyph glyph-name="uni0029" unicode=")" horiz-adv-x="369" 
d="M119 -199l-109 87q82 70 131.5 172t49.5 207q0 208 -180 380l108 87q220 -201 220 -467q0 -136 -57.5 -255t-162.5 -211z" />
    <glyph glyph-name="uni002A" unicode="*" horiz-adv-x="499" 
d="M179 700h145l-4 -109l108 39l41 -135l-109 -30l71 -89l-121 -87l-60 87l-60 -89l-122 87l71 91l-109 31l41 135l111 -39z" />
    <glyph glyph-name="uni002B" unicode="+" horiz-adv-x="605" 
d="M234 294h-174v130h174v173h135v-173h176v-130h-176v-175h-135v175z" />
    <glyph glyph-name="uni002C" unicode="," horiz-adv-x="264" 
d="M96 -5q-26 9 -43.5 33t-17.5 52q0 41 27 62t69 21q44 0 68.5 -29.5t24.5 -74.5q0 -76 -45.5 -135t-118.5 -73l-40 87q34 7 54 23q18 16 22 34z" />
    <glyph glyph-name="uni002D" unicode="-" horiz-adv-x="424" 
d="M364 217h-304v130h304v-130z" />
    <glyph glyph-name="uni002E" unicode="." horiz-adv-x="286" 
d="M50 81q0 36 29 60.5t65 24.5q18 0 40 -9q21 -10 37 -31q15 -22 15 -45q0 -35 -28.5 -61t-63.5 -26q-38 0 -66 25t-28 62z" />
    <glyph glyph-name="uni002F" unicode="/" horiz-adv-x="377" 
d="M91 -200l-131 50l324 871l133 -42z" />
    <glyph glyph-name="uni0030" unicode="0" horiz-adv-x="679" 
d="M30 350q0 157 80 257t229 100q102 0 174 -50.5t104 -129t32 -177.5q0 -156 -80 -256.5t-228 -100.5q-153 0 -232 101.5t-79 255.5zM190 350q0 -54 12.5 -98t48 -76.5t90.5 -32.5q148 0 148 207t-150 207q-79 0 -114 -60.5t-35 -146.5z" />
    <glyph glyph-name="uni0031" unicode="1" horiz-adv-x="398" 
d="M53 459l-53 126l230 115h98v-700h-150v516z" />
    <glyph glyph-name="uni0032" unicode="2" horiz-adv-x="594" 
d="M155 445l-135 51q26 100 105 155.5t183 55.5q115 0 185.5 -60.5t70.5 -171.5q0 -51 -17 -96t-49.5 -82t-66.5 -64.5t-81 -57.5l-47 -30h268v-145h-541v113l83 58q65 44 159 112q35 27 59.5 48.5t48.5 58.5t24 71q0 48 -27 72t-75 24q-104 0 -147 -112z" />
    <glyph glyph-name="uni0033" unicode="3" horiz-adv-x="621" 
d="M152 472l-124 58q68 179 294 179q101 0 173.5 -46.5t72.5 -140.5q0 -100 -91 -143q114 -41 114 -162q0 -109 -77 -167t-190 -58q-116 0 -193 42t-115 143l136 61q10 -32 36.5 -57t59.5 -34q30 -10 60 -10q46 0 84.5 19.5t38.5 60.5q0 25 -17.5 42t-44.5 24q-30 5 -51 5
h-102v140h82q40 0 75 17t35 53q0 31 -24 49q-26 17 -76 17q-114 0 -156 -92z" />
    <glyph glyph-name="uni0034" unicode="4" horiz-adv-x="643" 
d="M526 0h-150v122h-371v100l397 478h124v-443h107v-135h-107v-122zM376 452l-171 -195h171v195z" />
    <glyph glyph-name="uni0035" unicode="5" horiz-adv-x="629" 
d="M169 284l-105 62l37 354h468v-145h-336l-13 -108q39 20 143 20q114 0 180 -62t66 -172q0 -118 -81.5 -179.5t-201.5 -61.5q-112 0 -186 42t-120 137l140 62q17 -42 65 -66.5t97 -24.5q50 0 88.5 21t38.5 67q0 51 -37.5 74t-91.5 23q-47 0 -78.5 -9t-72.5 -34z" />
    <glyph glyph-name="uni0036" unicode="6" horiz-adv-x="648" 
d="M30 331q0 167 84.5 272.5t244.5 105.5q76 0 131.5 -24t106.5 -79l-86 -110q-24 21 -50 39q-50 29 -102 29q-79 0 -126.5 -46.5t-47.5 -124.5q33 45 87 66.5t115 21.5q110 0 175.5 -61.5t65.5 -167.5q0 -116 -79 -188.5t-194 -72.5q-154 0 -239.5 94.5t-85.5 245.5z
M209 250q2 -49 42.5 -81.5t90.5 -32.5q51 0 88.5 29t37.5 78q0 48 -34 73t-83 25q-46 0 -87 -25t-55 -66z" />
    <glyph glyph-name="uni0037" unicode="7" horiz-adv-x="570" 
d="M376 555h-366v145h550v-97l-303 -603h-161z" />
    <glyph glyph-name="uni0038" unicode="8" horiz-adv-x="668" 
d="M321 424h28q42 0 75 18t33 56q0 70 -124 70q-20 0 -38.5 -2.5t-39 -9.5t-32.5 -21.5t-12 -35.5q0 -32 30 -53q28 -22 80 -22zM347 294h-23q-29 0 -57 -6t-52.5 -25t-24.5 -49q0 -32 26.5 -51.5t55.5 -25t62 -5.5t61.5 4.5t55.5 23.5t27 51q0 83 -131 83zM335 -8
q-55 0 -105.5 10t-97 32.5t-74.5 65.5t-28 102q0 50 28.5 96.5t72.5 66.5q-34 17 -57 59t-23 81q0 55 25.5 96t68 63.5t90 33t99.5 10.5q53 0 100.5 -10t90 -32t67.5 -63.5t25 -97.5q0 -94 -79 -136q49 -18 74.5 -62.5t25.5 -100.5q0 -59 -27.5 -102.5t-73.5 -66.5
t-96.5 -34t-105.5 -11z" />
    <glyph glyph-name="uni0039" unicode="9" horiz-adv-x="668" 
d="M638 369q0 -168 -84.5 -273t-244.5 -105q-55 0 -114 15.5t-101 44.5q-38 25 -53 43l86 110q35 -29 86 -48.5t96 -19.5q73 0 123.5 40.5t50.5 110.5q-58 -68 -179 -68q-122 0 -203 59.5t-81 176.5t87.5 185.5t206.5 68.5q156 0 240 -93t84 -247zM465 430q-3 47 -23.5 76
t-62.5 49q-22 9 -55 9q-56 0 -100 -27.5t-44 -79.5q0 -47 41 -72.5t91 -25.5q45 0 92.5 17.5t60.5 53.5z" />
    <glyph glyph-name="uni003A" unicode=":" horiz-adv-x="289" 
d="M60 445q0 32 26.5 53t59.5 21q31 0 57 -22t26 -52q0 -33 -25 -55t-58 -22q-34 0 -60 22t-26 55zM60 75q0 32 27 53.5t59 21.5q31 0 57 -22t26 -53q0 -32 -25.5 -54.5t-57.5 -22.5q-34 0 -60 22t-26 55z" />
    <glyph glyph-name="uni003B" unicode=";" horiz-adv-x="288" 
d="M56 445q0 32 26.5 53t59.5 21q31 0 57 -22t26 -52q0 -33 -25 -55t-58 -22q-34 0 -60 22t-26 55zM113 -5q-22 8 -38.5 30.5t-16.5 45.5q0 37 24 56t62 19q40 0 62 -26t22 -67q0 -50 -23.5 -95.5t-65.5 -70.5q-39 -22 -65 -26l-34 85q64 9 73 49z" />
    <glyph glyph-name="uni003C" unicode="&#x3c;" horiz-adv-x="540" 
d="M480 192v-157l-470 296v61l470 292v-156l-269 -168z" />
    <glyph glyph-name="uni003D" unicode="=" horiz-adv-x="575" 
d="M515 391h-455v126h455v-126zM515 200h-455v126h455v-126z" />
    <glyph glyph-name="uni003E" unicode="&#x3e;" horiz-adv-x="540" 
d="M530 392v-61l-470 -296v157l271 168l-271 168v156z" />
    <glyph glyph-name="uni003F" unicode="?" horiz-adv-x="625" 
d="M435 490q0 34 -35.5 51t-73.5 17q-116 0 -155 -93l-141 49q30 93 115 143.5t187 50.5q47 0 92 -11t84 -33t63 -60.5t24 -88.5q0 -48 -11.5 -82t-39 -59t-53 -39.5t-72.5 -35.5q-61 -28 -61 -67q0 -6 2 -20q0 -3 0.5 -6.5t1 -5.5t0.5 -3l-141 -2q-9 29 -9 52q0 56 30 87.5
t89 60.5q48 23 68 36q36 23 36 59zM202 75q0 32 27 53.5t59 21.5q31 0 57 -22t26 -53q0 -32 -25.5 -54.5t-57.5 -22.5q-34 0 -60 22t-26 55z" />
    <glyph glyph-name="uni0040" unicode="@" horiz-adv-x="948" 
d="M656 0h-102v24q-43 -32 -106 -32q-101 0 -164 71t-63 172q0 113 78.5 183.5t191.5 70.5q125 0 208 -66v-287q69 24 69 151q0 64 -22.5 112.5t-62.5 78t-90.5 44t-110.5 14.5q-130 0 -216 -83.5t-86 -211.5q0 -131 86.5 -213.5t215.5 -82.5q78 0 144 23l10 -131
q-72 -22 -154 -22q-195 0 -318.5 118t-123.5 308q0 191 126.5 308t315.5 117q188 0 307 -98.5t119 -278.5q0 -117 -69.5 -203t-182.5 -86zM475 122q23 0 45 15t34 36v169q-25 17 -64 17q-52 0 -85.5 -38t-33.5 -91q0 -47 29 -77.5t75 -30.5z" />
    <glyph glyph-name="uni0041" unicode="A" horiz-adv-x="721" 
d="M156 0h-160l307 700h115l307 -700h-162l-57 130h-293zM449 261l-90 209l-92 -209h182z" />
    <glyph glyph-name="uni0042" unicode="B" horiz-adv-x="678" 
d="M370 0h-305v700h313q115 0 174 -38q68 -49 68 -141q0 -91 -68 -150q91 -43 91 -163q0 -76 -41.5 -124.5t-99.5 -66t-132 -17.5zM362 287h-142v-142h134q25 0 42.5 2t39.5 8t33.5 22t11.5 40t-10.5 39t-30.5 21.5t-36.5 8t-41.5 1.5zM352 555h-132v-128h145q37 0 65.5 13
t28.5 46q0 23 -8.5 38t-26 21t-33 8t-39.5 2z" />
    <glyph glyph-name="uni0043" unicode="C" horiz-adv-x="696" 
d="M594 231l92 -99q-45 -69 -127.5 -106.5t-170.5 -37.5q-163 0 -260.5 101t-97.5 261q0 156 104 259t258 103q84 0 163.5 -34t119.5 -99l-105 -96q-29 36 -74.5 57.5t-92.5 21.5q-95 0 -153.5 -58.5t-58.5 -153.5q0 -92 59 -152t151 -60q119 0 193 93z" />
    <glyph glyph-name="uni0044" unicode="D" horiz-adv-x="720" 
d="M272 0h-207v700h222q184 0 293.5 -83.5t109.5 -257.5q0 -75 -22 -135.5t-60 -101.5t-91.5 -69t-114.5 -40.5t-130 -12.5zM285 555h-65v-410h65q245 0 245 214q0 196 -245 196z" />
    <glyph glyph-name="uni0045" unicode="E" horiz-adv-x="649" 
d="M609 0h-544v700h535v-145h-380v-130h355v-140h-355v-140h389v-145z" />
    <glyph glyph-name="uni0046" unicode="F" horiz-adv-x="620" 
d="M220 0h-155v700h530v-145h-375v-153h350v-145h-350v-257z" />
    <glyph glyph-name="uni0047" unicode="G" horiz-adv-x="731" 
d="M542 252h-177v140h326v-283q-53 -58 -127.5 -89.5t-154.5 -31.5q-165 0 -272 100.5t-107 261.5q0 156 104 259t258 103q82 0 163 -32t120 -94l-107 -96q-62 72 -170 72q-97 0 -152 -57.5t-55 -154.5q0 -99 61 -155.5t158 -56.5q74 0 132 40v74z" />
    <glyph glyph-name="uni0048" unicode="H" horiz-adv-x="751" 
d="M686 0h-155v280h-311v-280h-155v700h155v-275h311v275h155v-700z" />
    <glyph glyph-name="uni0049" unicode="I" horiz-adv-x="295" 
d="M225 0h-155v700h155v-700z" />
    <glyph glyph-name="uni004A" unicode="J" horiz-adv-x="486" 
d="M271 700h155v-481q0 -104 -54.5 -167.5t-157.5 -63.5q-75 0 -134.5 34.5t-89.5 99.5l113 87q37 -76 97 -76q43 0 57 32.5t14 83.5v451z" />
    <glyph glyph-name="uni004B" unicode="K" horiz-adv-x="701" 
d="M220 0h-155v700h155v-273l269 273h202l-304 -310l324 -390h-204l-237 286l-50 -51v-235z" />
    <glyph glyph-name="uni004C" unicode="L" horiz-adv-x="608" 
d="M598 0h-533v700h155v-555h378v-145z" />
    <glyph glyph-name="uni004D" unicode="M" horiz-adv-x="851" 
d="M220 0h-155v700h144l224 -335l213 335h140v-700h-155v420l-182 -279h-41l-188 282v-423z" />
    <glyph glyph-name="uni004E" unicode="N" horiz-adv-x="740" 
d="M675 700v-700h-120l-339 415v-415h-151v700h119l340 -416v416h151z" />
    <glyph glyph-name="uni004F" unicode="O" horiz-adv-x="781" 
d="M30 350q0 152 105.5 257t255.5 105q106 0 196.5 -57t131.5 -153q32 -78 32 -152q0 -151 -105 -256.5t-255 -105.5q-152 0 -256.5 105.5t-104.5 256.5zM191 350q0 -88 57 -150t143 -62q90 0 144.5 61t54.5 151q0 87 -57 149.5t-142 62.5q-88 0 -144 -62t-56 -150z" />
    <glyph glyph-name="uni0050" unicode="P" horiz-adv-x="677" 
d="M220 220v-220h-155v700h290q85 0 149 -22t106 -77.5t42 -141.5q0 -83 -44 -138.5t-108.5 -78t-144.5 -22.5h-135zM359 555h-139v-190h133q138 0 138 95t-132 95z" />
    <glyph glyph-name="uni0051" unicode="Q" horiz-adv-x="781" 
d="M30 350q0 154 104.5 258t256.5 104q158 0 259 -102.5t101 -259.5q0 -144 -92 -242l60 -74l-108 -87l-64 78q-77 -37 -156 -37q-162 0 -261.5 101t-99.5 261zM191 350q0 -91 55.5 -151.5t144.5 -60.5q40 0 70 13l-56 64l98 83l56 -68q31 43 31 120q0 92 -54.5 152
t-144.5 60q-91 0 -145.5 -60.5t-54.5 -151.5z" />
    <glyph glyph-name="uni0052" unicode="R" horiz-adv-x="689" 
d="M220 239v-239h-155v700h283q129 0 206 -54t77 -174q0 -66 -38 -124.5t-99 -80.5l195 -267h-187l-171 239h-111zM345 555h-125v-171h131q50 0 84.5 21t34.5 67q0 49 -34.5 66t-90.5 17z" />
    <glyph glyph-name="uni0053" unicode="S" horiz-adv-x="619" 
d="M429 194q0 33 -46 58q-21 10 -103 34q-81 23 -117 40q-124 57 -124 177q0 65 45 118.5t110 75.5q54 19 116 19q83 0 155 -33t119 -96l-104 -100q-74 84 -176 84q-105 0 -105 -66q0 -37 57 -54q29 -11 96 -29q41 -11 70 -21t63 -28.5t55 -39.5t35 -54t14 -73
q0 -102 -80 -162t-185 -60q-102 0 -191 43.5t-133 127.5l113 94q33 -55 88.5 -87.5t118.5 -32.5q41 0 75 14.5t34 50.5z" />
    <glyph glyph-name="uni0054" unicode="T" horiz-adv-x="604" 
d="M224 555h-224v145h604v-145h-225v-555h-155v555z" />
    <glyph glyph-name="uni0055" unicode="U" horiz-adv-x="720" 
d="M510 700h155v-400q0 -139 -80.5 -223t-216.5 -84q-141 0 -227 87.5t-86 225.5v394h155v-376q0 -81 40 -133.5t118 -52.5q142 0 142 182v380z" />
    <glyph glyph-name="uni0056" unicode="V" horiz-adv-x="730" 
d="M573 700h167l-313 -700h-108l-329 700h171l213 -464z" />
    <glyph glyph-name="uni0057" unicode="W" horiz-adv-x="971" 
d="M817 700h154l-207 -700h-126l-149 424l-145 -424h-126l-218 700h160l128 -422l140 422h124l143 -419z" />
    <glyph glyph-name="uni0058" unicode="X" horiz-adv-x="707" 
d="M511 700h188l-253 -345l261 -355h-189l-164 229l-165 -229h-189l262 355l-251 345h187l157 -217z" />
    <glyph glyph-name="uni0059" unicode="Y" horiz-adv-x="700" 
d="M531 700h179l-284 -449v-251h-155v251l-281 449h185l176 -280z" />
    <glyph glyph-name="uni005A" unicode="Z" horiz-adv-x="635" 
d="M381 555h-354v145h579v-103l-373 -452h382v-145h-605v103z" />
    <glyph glyph-name="uni005B" unicode="[" horiz-adv-x="374" 
d="M364 -175h-304v884h304v-145h-149v-594h149v-145z" />
    <glyph glyph-name="uni005C" unicode="\" horiz-adv-x="377" 
d="M-40 679l132 42l325 -871l-132 -50z" />
    <glyph glyph-name="uni005D" unicode="]" horiz-adv-x="374" 
d="M10 709h304v-884h-304v145h149v594h-149v145z" />
    <glyph glyph-name="uni005E" unicode="^" horiz-adv-x="533" 
d="M178 394h-168l212 313h90l211 -313h-169l-87 134z" />
    <glyph glyph-name="uni005F" unicode="_" horiz-adv-x="355" 
d="M355 -175h-355v130h355v-130z" />
    <glyph glyph-name="uni0060" unicode="`" horiz-adv-x="364" 
d="M364 656l-86 -69l-147 160l114 86z" />
    <glyph glyph-name="uni0061" unicode="a" horiz-adv-x="532" 
d="M117 346l-69 105q38 41 101.5 60.5t127.5 19.5q101 0 157 -57t56 -159v-315h-145v47q-22 -25 -62.5 -39t-77.5 -14q-82 0 -136 45t-54 125q0 61 38 101t88.5 55t109.5 15t94 -13q2 38 -20 56q-23 18 -64 18q-73 0 -144 -50zM235 119q33 0 64.5 16t45.5 43v24
q-35 13 -79 13q-34 0 -58 -6q-43 -14 -43 -45q0 -24 21.5 -34.5t48.5 -10.5z" />
    <glyph glyph-name="uni0062" unicode="b" horiz-adv-x="593" 
d="M190 0h-145v730h145v-245q19 23 61 34.5t81 11.5q116 0 178.5 -72.5t62.5 -190.5q0 -123 -69 -199.5t-188 -76.5q-74 0 -126 29v-21zM302 396q-86 0 -112 -68v-137q37 -64 112 -64q61 0 91 37.5t30 98.5q0 62 -31 97.5t-90 35.5z" />
    <glyph glyph-name="uni0063" unicode="c" horiz-adv-x="540" 
d="M431 195l106 -63q-34 -66 -97 -103t-138 -37q-124 0 -203 74t-79 195q0 119 78.5 194.5t196.5 75.5q78 0 143.5 -32t94.5 -98l-108 -70q-26 34 -53 49.5t-68 15.5q-60 0 -97 -37.5t-37 -97.5q0 -59 44 -96.5t104 -37.5q72 0 113 68z" />
    <glyph glyph-name="uni0064" unicode="d" horiz-adv-x="586" 
d="M541 0h-145v41q-17 -18 -44.5 -31t-53.5 -16q-32 -2 -33 -2q-117 0 -181 75t-64 192q0 112 72 192t182 80q84 0 122 -25v224h145v-730zM296 127q14 0 33 6q46 10 67 55v168q-31 40 -91 40t-97.5 -37.5t-37.5 -97.5q0 -58 34.5 -96t91.5 -38z" />
    <glyph glyph-name="uni0065" unicode="e" horiz-adv-x="558" 
d="M438 184l87 -88q-83 -104 -224 -104q-125 0 -203 74t-78 195q0 123 74.5 196.5t195.5 73.5q109 0 178.5 -66t69.5 -173q0 -28 -8 -84h-358q10 -41 47 -61t84 -20q88 0 135 57zM285 401q-83 0 -110 -68h213q-18 68 -103 68z" />
    <glyph glyph-name="uni0066" unicode="f" horiz-adv-x="348" 
d="M77 385h-72v135h72v10q0 95 49 151.5t140 56.5q93 0 141 -61l-80 -94q-18 20 -52 20q-54 0 -54 -73v-10h131v-135h-130v-385h-145v385z" />
    <glyph glyph-name="uni0067" unicode="g" horiz-adv-x="579" 
d="M389 520h145v-475q0 -124 -63.5 -189t-183.5 -65q-84 0 -149 35t-93 108l127 53q32 -61 101 -61q116 0 116 90v23q-33 -47 -117 -47q-120 0 -186 75t-66 194q0 113 71 189.5t181 76.5q73 0 117 -28v21zM297 127q30 0 56 15.5t36 42.5v173q-28 34 -93 34q-58 0 -92 -37
t-34 -96q0 -31 9 -56q11 -38 43.5 -57t74.5 -19z" />
    <glyph glyph-name="uni0068" unicode="h" horiz-adv-x="574" 
d="M190 0h-145v730h145v-243q47 43 138 43q111 0 158.5 -62t47.5 -177v-291h-145v284q0 57 -21.5 84t-77.5 27q-30 0 -57 -17.5t-43 -44.5v-333z" />
    <glyph glyph-name="uni0069" unicode="i" horiz-adv-x="253" 
d="M199 0h-145v520h145v-520zM45 658q0 32 25 52t57 20q33 0 57 -20t24 -52q0 -33 -23.5 -53.5t-57.5 -20.5t-58 20t-24 54z" />
    <glyph glyph-name="uni006A" unicode="j" horiz-adv-x="252" 
d="M55 520h145v-518q0 -97 -44.5 -154t-138.5 -57q-137 0 -187 120l127 49q16 -34 47 -34q51 0 51 79v515zM45 659q0 34 24 53t59 19q33 0 56 -20t23 -52q0 -34 -22 -54t-57 -20t-59 20t-24 54z" />
    <glyph glyph-name="uni006B" unicode="k" horiz-adv-x="532" 
d="M190 0h-145v730h145v-386l164 176h186l-223 -227l230 -293h-184l-155 196l-18 -12v-184z" />
    <glyph glyph-name="uni006C" unicode="l" horiz-adv-x="235" 
d="M190 0h-145v730h145v-730z" />
    <glyph glyph-name="uni006D" unicode="m" horiz-adv-x="826" 
d="M786 346v-346h-145v305q0 90 -67 90q-29 0 -51.5 -17.5t-34.5 -45.5v-332h-145v329q0 29 -16 47.5t-45 18.5q-32 0 -57 -17.5t-35 -46.5v-331h-145v520h145v-35q38 45 125 45q81 0 134 -56q53 56 136 56q94 0 147.5 -46t53.5 -138z" />
    <glyph glyph-name="uni006E" unicode="n" horiz-adv-x="577" 
d="M190 0h-145v520h145v-37q41 47 142 47q205 0 205 -238v-292h-145v283q0 58 -23 85t-79 27q-73 0 -100 -69v-326z" />
    <glyph glyph-name="uni006F" unicode="o" horiz-adv-x="604" 
d="M20 261q0 120 81 195t200 75q121 0 202 -75.5t81 -194.5q0 -120 -82 -194.5t-201 -74.5t-200 76t-81 193zM170 261q0 -57 37.5 -95.5t93.5 -38.5q60 0 96.5 37t36.5 97q0 59 -37 97t-96 38t-95 -38t-36 -97z" />
    <glyph glyph-name="uni0070" unicode="p" horiz-adv-x="582" 
d="M190 -200h-145v720h145v-27q19 18 53 28t63 10q117 0 186.5 -74t69.5 -189q0 -119 -72 -197.5t-188 -78.5q-92 0 -112 26v-218zM290 396q-67 0 -100 -59v-166q12 -20 39 -32t53 -12q59 0 94.5 35.5t35.5 94.5q0 64 -30 101.5t-92 37.5z" />
    <glyph glyph-name="uni0071" unicode="q" horiz-adv-x="579" 
d="M534 -200h-145v225q-41 -33 -116 -33q-116 0 -184.5 77t-68.5 192q0 118 78.5 192t195.5 74q61 0 95 -20v13h145v-720zM297 127q26 0 53 13.5t39 34.5v185q-32 32 -92 32q-57 0 -92 -38t-35 -95q0 -58 35 -95t92 -37z" />
    <glyph glyph-name="uni0072" unicode="r" horiz-adv-x="362" 
d="M190 0h-145v520h145v-21q10 14 35 22.5t45 8.5q66 0 102 -45l-74 -116q-5 10 -20 15.5t-27 5.5q-46 0 -61 -54v-336z" />
    <glyph glyph-name="uni0073" unicode="s" horiz-adv-x="496" 
d="M331 155q0 10 -13 17q-14 8 -57 21q-43 12 -72 21q-64 17 -108.5 56.5t-44.5 99.5q0 58 36 96t83.5 51.5t104.5 13.5q62 0 122.5 -24.5t93.5 -69.5l-99 -95q-53 54 -146 54q-45 0 -45 -25q0 -8 13 -14q11 -6 62 -20q39 -11 60.5 -17.5t56.5 -22.5t54 -33t34 -45t15 -63
q0 -58 -34.5 -96.5t-82 -53t-103.5 -14.5q-76 0 -146 32t-103 94l115 78q24 -31 66.5 -50t83.5 -19q54 0 54 28z" />
    <glyph glyph-name="uni0074" unicode="t" horiz-adv-x="446" 
d="M104 385h-99v135h99v121h145v-121h159v-135h-159v-169q0 -18 1.5 -30.5t6 -27t16 -22t29.5 -7.5q46 0 89 34l60 -103q-62 -66 -163 -66q-86 0 -135 47t-49 132v212z" />
    <glyph glyph-name="uni0075" unicode="u" horiz-adv-x="570" 
d="M380 523h145v-523h-145v34q-54 -42 -122 -42q-218 0 -218 234v297h145v-286q0 -110 88 -110q69 0 107 64v332z" />
    <glyph glyph-name="uni0076" unicode="v" horiz-adv-x="527" 
d="M398 520h154l-228 -520h-110l-239 520h163l133 -300z" />
    <glyph glyph-name="uni0077" unicode="w" horiz-adv-x="747" 
d="M615 520h147l-167 -520h-115l-104 282l-105 -282h-114l-172 520h150l88 -273l100 273h108l101 -273z" />
    <glyph glyph-name="uni0078" unicode="x" horiz-adv-x="576" 
d="M402 520h175l-199 -252l208 -268h-180l-119 159l-123 -159h-174l208 267l-198 253h179l111 -141z" />
    <glyph glyph-name="uni0079" unicode="y" horiz-adv-x="557" 
d="M417 520h155l-293 -720h-157l107 244l-249 476h169l151 -302z" />
    <glyph glyph-name="uni007A" unicode="z" horiz-adv-x="514" 
d="M278 385h-243v135h459v-93l-259 -292h254v-135h-469v94z" />
    <glyph glyph-name="uni007B" unicode="{" horiz-adv-x="362" 
d="M89 -21v144q0 44 -17.5 61.5t-61.5 17.5v128q45 0 62 11.5t17 52.5v151q0 91 41.5 127.5t134.5 36.5h87v-128h-58q-35 0 -46 -15.5t-11 -53.5v-145q0 -71 -50 -97q50 -23 50 -102v-153q0 -35 12 -48q11 -14 43 -14h60v-128h-105q-158 0 -158 154z" />
    <glyph glyph-name="uni007C" unicode="|" horiz-adv-x="315" 
d="M235 0h-155v700h155v-700z" />
    <glyph glyph-name="uni007D" unicode="}" horiz-adv-x="362" 
d="M273 123v-144q0 -80 -39 -117t-119 -37h-105v128h60q32 0 44 14q11 14 11 48v153q0 79 50 102q-50 26 -50 97v145q0 39 -11 55q-12 14 -46 14h-58v128h87q93 0 134.5 -36.5t41.5 -127.5v-151q0 -41 17 -52.5t62 -11.5v-128q-44 0 -61.5 -17.5t-17.5 -61.5z" />
    <glyph glyph-name="uni007E" unicode="~" horiz-adv-x="561" 
d="M85 258l-75 100q31 31 52 48.5t54.5 32.5t69.5 15q24 0 50 -8q21 -7 72 -32q46 -24 72 -24q60 0 107 64l64 -102q-29 -35 -74.5 -61.5t-86.5 -26.5q-24 0 -47 6q-23 5 -38 12q-9 3 -52 26q-38 20 -66 20q-50 0 -102 -70z" />
    <glyph glyph-name="uni00A0" unicode="&#xa0;" horiz-adv-x="236" 
 />
    <glyph glyph-name="uni00A1" unicode="&#xa1;" horiz-adv-x="309" 
d="M231 -182h-151v503h151v-503zM70 443q0 33 26 55t60 22q33 0 59 -23q24 -24 24 -54q0 -31 -26 -53t-57 -22q-32 0 -59 21.5t-27 53.5z" />
    <glyph glyph-name="uni00A2" unicode="&#xa2;" horiz-adv-x="545" 
d="M436 195l106 -63q-25 -48 -67.5 -83t-94.5 -48v-201h-155v201q-95 23 -147.5 92.5t-52.5 167.5q0 95 54.5 167t145.5 94v178h155v-178q116 -28 158 -121l-108 -70q-32 42 -70 57v-256q47 15 76 63zM175 261q0 -37 19 -68t51 -48v237q-34 -16 -52 -49t-18 -72z" />
    <glyph glyph-name="uni00A3" unicode="&#xa3;" horiz-adv-x="598" 
d="M138 248h-83v124h47q-27 62 -27 121q0 95 69 154.5t165 59.5q138 0 227 -98l-82 -116q-70 69 -147 69q-36 0 -56.5 -22t-20.5 -58q0 -17 6 -35q4 -19 15 -42q10 -28 13 -33h166v-124h-141v-12q0 -45 -23 -74q22 -2 75 -18q54 -17 76 -17q31 0 50.5 13.5t43.5 43.5l77 -98
q-66 -86 -168 -86q-44 0 -114 21t-107 21q-65 0 -120 -53l-69 107q54 50 106 66q22 29 22 71v15z" />
    <glyph glyph-name="uni00A4" unicode="&#xa4;" horiz-adv-x="650" 
d="M77 347q0 68 31 123l-83 84l94 94l87 -85q61 27 119 27q68 0 119 -27l91 89l95 -94l-89 -89q33 -63 33 -122q0 -57 -33 -120l85 -86l-94 -95l-87 87q-47 -28 -120 -28q-69 0 -121 28l-91 -91l-93 94l89 91q-32 62 -32 120zM222 347q0 -42 30.5 -74t72.5 -32
q45 0 74.5 30.5t29.5 75.5t-30 76.5t-74 31.5q-46 0 -74.5 -31t-28.5 -77z" />
    <glyph glyph-name="uni00A5" unicode="&#xa5;" horiz-adv-x="700" 
d="M271 301h-149v126h60l-192 273h192l169 -247l171 247h188l-195 -273h62v-126h-151v-65h151v-126h-151v-110h-155v110h-149v126h149v65z" />
    <glyph glyph-name="uni00A6" unicode="&#xa6;" horiz-adv-x="315" 
d="M235 700v-315h-155v315h155zM80 0v315h155v-315h-155z" />
    <glyph glyph-name="uni00A7" unicode="&#xa7;" horiz-adv-x="498" 
d="M30 262q0 115 88 164q-44 47 -44 109q0 75 55.5 120t130.5 45q98 0 175 -98l-93 -86q-31 39 -72 39q-16 0 -28.5 -10.5t-12.5 -26.5q0 -22 11 -33q10 -12 34 -22q85 -8 139.5 -62.5t54.5 -138.5q0 -106 -88 -166q42 -47 42 -106q0 -75 -54.5 -120t-130.5 -45
q-98 0 -175 98l87 102q35 -55 88 -55q18 0 28 11t10 29q0 14 -15 29q-15 14 -37 21q-84 8 -138.5 63t-54.5 139zM178 262q0 -29 21 -53t50 -24q31 0 51 23t20 54t-20 54t-51 23t-51 -23t-20 -54z" />
    <glyph glyph-name="uni00A8" unicode="&#xa8;" horiz-adv-x="479" 
d="M115 660q0 30 23.5 50t54.5 20q30 0 54.5 -20.5t24.5 -49.5q0 -14 -8 -32q-10 -18 -30 -29t-41 -11q-33 0 -55.5 20t-22.5 52zM319 660q0 21 13 38.5t34 25.5q20 6 34 6t33 -6q20 -9 33 -26t13 -38q0 -32 -23 -52t-56 -20t-57 20t-24 52z" />
    <glyph glyph-name="uni00A9" unicode="&#xa9;" horiz-adv-x="941" 
d="M40 237q0 180 126 301t304 121q188 0 309.5 -119t121.5 -303t-124 -303t-307 -119q-191 0 -310.5 117t-119.5 305zM173 237q0 -129 84.5 -212.5t212.5 -83.5q132 0 215 83t83 213q0 136 -82 216t-216 80q-126 0 -211.5 -85.5t-85.5 -210.5zM604 185l80 -88
q-30 -46 -88 -75.5t-114 -29.5q-118 0 -189.5 66t-71.5 183q0 105 72.5 176.5t176.5 71.5q140 0 204 -100l-94 -82q-40 49 -97 49q-50 0 -83 -32.5t-33 -82.5q0 -52 34.5 -84t87.5 -32q69 0 115 60z" />
    <glyph glyph-name="uni00AA" unicode="&#xaa;" horiz-adv-x="464" 
d="M109 529l-44 90q71 42 183 42q71 0 113.5 -38t42.5 -109v-215h-130v27q-28 -31 -90 -31q-58 0 -98.5 30.5t-40.5 85.5q0 32 17 55t46 34.5t57 16t58 4.5t51 -7q0 17 -11 28q-12 9 -43 9q-54 0 -111 -22zM221 400q33 0 53 16v16q-27 9 -52 9q-42 0 -42 -21q0 -10 6 -14
q6 -6 35 -6z" />
    <glyph glyph-name="uni00AB" unicode="&#xab;" horiz-adv-x="578" 
d="M318 130l-101 -92l-187 222v7l187 214l100 -89l-112 -130zM548 130l-101 -92l-187 222v7l187 214l100 -89l-112 -130z" />
    <glyph glyph-name="uni00AC" unicode="&#xac;" horiz-adv-x="524" 
d="M382 296h-362v126h484v-241h-122v115z" />
    <glyph glyph-name="uni00AD" unicode="&#xad;" horiz-adv-x="424" 
d="M364 217h-304v130h304v-130z" />
    <glyph glyph-name="uni00AE" unicode="&#xae;" horiz-adv-x="576" 
d="M30 479q0 105 77 176.5t182 71.5t181 -72.5t76 -175.5q0 -105 -76.5 -178t-180.5 -73q-106 0 -182.5 73.5t-76.5 177.5zM262 397v-65h-106v295h124q92 0 127 -48q15 -24 15 -55q0 -27 -11.5 -51t-32.5 -35l55 -106q68 63 68 146q0 84 -64 144t-149 60t-149 -60t-64 -144
q0 -88 62.5 -146.5t150.5 -58.5q74 0 135 50q6 6 10 9h-118l-29 65h-24zM307 513q0 16 -21 16h-24v-32h24q21 0 21 16z" />
    <glyph glyph-name="uni00AF" unicode="&#xaf;" horiz-adv-x="454" 
d="M454 610h-294v120h294v-120z" />
    <glyph glyph-name="uni00B0" unicode="&#xb0;" horiz-adv-x="417" 
d="M30 542q0 72 53 121t125 49q61 0 118 -40q61 -48 61 -129q0 -72 -53.5 -121t-125.5 -49t-125 49t-53 120zM170 542q0 -16 11 -25t27 -9q17 0 28 9t11 25q0 17 -11 26q-12 9 -28 9t-27 -9.5t-11 -25.5z" />
    <glyph glyph-name="uni00B1" unicode="&#xb1;" horiz-adv-x="535" 
d="M204 365h-164v125h164v175h125v-175h166v-125h-166v-94h-125v94zM495 122h-455v125h455v-125z" />
    <glyph glyph-name="uni00B2" unicode="&#xb2;" horiz-adv-x="425" 
d="M125 549l-95 61q25 57 76.5 85.5t117.5 28.5q65 0 112 -32t47 -94q0 -96 -90 -153l-39 -25h141v-120h-351v101l78 45q126 72 126 119q0 39 -38 39q-62 0 -85 -55z" />
    <glyph glyph-name="uni00B3" unicode="&#xb3;" horiz-adv-x="432" 
d="M114 557l-87 70q28 48 77.5 73t107.5 25q29 0 56 -4.5t54.5 -15.5t44 -33t16.5 -52q0 -62 -58 -94q67 -25 67 -96q0 -67 -56.5 -101t-127.5 -34q-133 0 -188 112l99 57q16 -49 89 -49q26 0 38 5q11 5 11 18q0 22 -54 22h-39v100h33q51 0 51 24q0 21 -38 21q-62 0 -96 -48
z" />
    <glyph glyph-name="uni00B4" unicode="&#xb4;" horiz-adv-x="454" 
d="M328 833l109 -82l-132 -164l-100 70z" />
    <glyph glyph-name="uni00B5" unicode="&#xb5;" horiz-adv-x="577" 
d="M387 520h145v-520h-145v27q-47 -35 -122 -35q-18 0 -41 5q-18 5 -34 14v-210h-145v719h145v-283q0 -53 20 -81.5t71 -28.5q27 0 57.5 11t48.5 29v353z" />
    <glyph glyph-name="uni00B5" unicode="&#x3bc;" horiz-adv-x="577" 
d="M387 520h145v-520h-145v27q-47 -35 -122 -35q-18 0 -41 5q-18 5 -34 14v-210h-145v719h145v-283q0 -53 20 -81.5t71 -28.5q27 0 57.5 11t48.5 29v353z" />
    <glyph glyph-name="uni00B6" unicode="&#xb6;" horiz-adv-x="451" 
d="M22 465q0 109 62.5 172t171.5 63h175v-128h-82v-555q0 -98 -43 -148.5t-136 -50.5t-150 65l65 112q41 -32 81 -32q35 0 35 55v217q-86 16 -132.5 78.5t-46.5 151.5z" />
    <glyph glyph-name="uni00B7" unicode="&#xb7;" horiz-adv-x="236" 
d="M18 303q0 32 26.5 53t59.5 21q31 0 57 -22t26 -52q0 -33 -25 -55t-58 -22q-34 0 -60 22t-26 55z" />
    <glyph glyph-name="uni00B8" unicode="&#xb8;" horiz-adv-x="468" 
d="M184 -161l44 69q28 -28 81 -28q13 0 21 3q8 5 8 10q0 17 -45 17h-6v90h75v-26q46 -4 76 -26t30 -64q0 -34 -20.5 -53.5t-57.5 -32.5q-29 -8 -73 -8q-78 0 -133 49z" />
    <glyph glyph-name="uni00B9" unicode="&#xb9;" horiz-adv-x="330" 
d="M58 539l-48 114l161 67h99v-420h-135v270z" />
    <glyph glyph-name="uni00BA" unicode="&#xba;" horiz-adv-x="463" 
d="M40 478q0 84 53 133.5t138 49.5q86 0 139 -49t53 -134q0 -83 -54 -133t-138 -50t-137.5 50.5t-53.5 132.5zM175 478q0 -25 15.5 -41.5t40.5 -16.5q57 0 57 58q0 26 -15.5 42t-41.5 16t-41 -16t-15 -42z" />
    <glyph glyph-name="uni00BB" unicode="&#xbb;" horiz-adv-x="578" 
d="M548 267v-7l-187 -222l-101 92l113 132l-112 130l100 89zM318 267v-7l-187 -222l-101 92l113 132l-112 130l100 89z" />
    <glyph glyph-name="uni00BC" unicode="&#xbc;" horiz-adv-x="899" 
d="M229 -31l-109 90l551 671l107 -86zM68 539l-48 114l161 67h99v-420h-135v270zM811 0h-125v64h-226v94l244 262h107v-241h68v-115h-68v-64zM686 260l-78 -81h78v81z" />
    <glyph glyph-name="uni00BD" unicode="&#xbd;" horiz-adv-x="965" 
d="M229 -31l-109 90l551 671l107 -86zM68 539l-48 114l161 67h99v-420h-135v270zM655 249l-95 61q25 57 76.5 85.5t117.5 28.5q65 0 112 -32t47 -94q0 -96 -90 -153l-39 -25h141v-120h-351v101l78 45q126 72 126 119q0 39 -38 39q-62 0 -85 -55z" />
    <glyph glyph-name="uni00BE" unicode="&#xbe;" horiz-adv-x="939" 
d="M269 -31l-109 90l551 671l107 -86zM851 0h-125v64h-226v94l244 262h107v-241h68v-115h-68v-64zM726 260l-78 -81h78v81zM114 557l-87 70q28 48 77.5 73t107.5 25q29 0 56 -4.5t54.5 -15.5t44 -33t16.5 -52q0 -62 -58 -94q67 -25 67 -96q0 -67 -56.5 -101t-127.5 -34
q-133 0 -188 112l99 57q16 -49 89 -49q26 0 38 5q11 5 11 18q0 22 -54 22h-39v100h33q51 0 51 24q0 21 -38 21q-62 0 -96 -48z" />
    <glyph glyph-name="uni00BF" unicode="&#xbf;" horiz-adv-x="625" 
d="M190 28q0 -34 35.5 -51t73.5 -17q116 0 155 93l141 -49q-30 -93 -114.5 -143.5t-187.5 -50.5q-65 0 -122 18.5t-99 64t-42 110.5q0 39 9.5 69.5t22.5 50t39.5 39t47 30.5t58.5 28q60 27 60 66q0 5 -2 21l-2 14l141 2q9 -29 9 -52q0 -56 -29.5 -87t-88.5 -60
q-53 -26 -69 -36q-36 -23 -36 -60zM423 443q0 -32 -27 -53.5t-59 -21.5q-31 0 -57 22t-26 53q0 32 25.5 54.5t57.5 22.5q35 0 60.5 -21.5t25.5 -55.5z" />
    <glyph glyph-name="uni00C0" unicode="&#xc0;" horiz-adv-x="721" 
d="M156 0h-160l307 700h115l307 -700h-162l-57 130h-293zM449 261l-90 209l-92 -209h182zM467 832l-57 -99l-240 113l69 128z" />
    <glyph glyph-name="uni00C1" unicode="&#xc1;" horiz-adv-x="721" 
d="M156 0h-160l307 700h115l307 -700h-162l-57 130h-293zM449 261l-90 209l-92 -209h182zM508 974l69 -128l-240 -113l-57 99z" />
    <glyph glyph-name="uni00C2" unicode="&#xc2;" horiz-adv-x="721" 
d="M156 0h-160l307 700h115l307 -700h-162l-57 130h-293zM449 261l-90 209l-92 -209h182zM355 945h4l184 -117l-58 -85l-128 66l-128 -66l-52 83z" />
    <glyph glyph-name="uni00C3" unicode="&#xc3;" horiz-adv-x="721" 
d="M156 0h-160l307 700h115l307 -700h-162l-57 130h-293zM449 261l-90 209l-92 -209h182zM218 766l-46 94q22 28 56 45.5t69 17.5q29 0 70 -15q39 -15 65 -15q50 0 78 30l38 -94q-40 -66 -126 -66q-24 0 -66 15q-44 15 -72 15q-33 0 -66 -27z" />
    <glyph glyph-name="uni00C4" unicode="&#xc4;" horiz-adv-x="721" 
d="M156 0h-160l307 700h115l307 -700h-162l-57 130h-293zM449 261l-90 209l-92 -209h182zM152 831q0 33 25.5 54.5t59.5 21.5q32 0 57.5 -22.5t25.5 -53.5q0 -32 -25.5 -54.5t-57.5 -22.5q-27 0 -47 13q-38 21 -38 64zM401 831q0 33 26 54.5t59 21.5t57.5 -22t24.5 -54
t-24.5 -54.5t-57.5 -22.5t-59 22t-26 55z" />
    <glyph glyph-name="uni00C5" unicode="&#xc5;" horiz-adv-x="721" 
d="M156 0h-160l307 700h115l307 -700h-162l-57 130h-293zM449 261l-90 209l-92 -209h182zM203 849q0 61 45 89.5t110 28.5q67 0 113.5 -28t46.5 -90q0 -61 -47.5 -91t-112.5 -30q-63 0 -109 31t-46 90zM313 849q0 -20 13 -30.5t34 -10.5t34.5 10.5t13.5 30.5q0 38 -48 38
q-20 0 -34 -9q-13 -10 -13 -29z" />
    <glyph glyph-name="uni00C6" unicode="&#xc6;" horiz-adv-x="1154" 
d="M1114 0h-544v130h-299l-102 -130h-169l527 700h578v-145h-380v-130h355v-140h-355v-140h389v-145zM570 532l-205 -271h205v271z" />
    <glyph glyph-name="uni00C7" unicode="&#xc7;" horiz-adv-x="696" 
d="M233 -157l54 65q28 -28 81 -28q14 0 21 3q8 5 8 10q0 17 -45 17h-6v84q-147 13 -231.5 110t-84.5 246q0 157 103.5 257.5t258.5 100.5q87 0 164.5 -31.5t118.5 -97.5l-105 -96q-28 36 -73.5 55.5t-93.5 19.5q-96 0 -154 -57t-58 -151q0 -92 59.5 -150t150.5 -58
q122 0 193 89l92 -99q-85 -124 -265 -138v-20q116 -8 116 -90q0 -94 -139 -94q-109 0 -165 53z" />
    <glyph glyph-name="uni00C8" unicode="&#xc8;" horiz-adv-x="649" 
d="M609 0h-544v700h535v-145h-380v-130h355v-140h-355v-140h389v-145zM457 832l-57 -99l-240 113l69 128z" />
    <glyph glyph-name="uni00C9" unicode="&#xc9;" horiz-adv-x="649" 
d="M609 0h-544v700h535v-145h-380v-130h355v-140h-355v-140h389v-145zM468 974l69 -128l-240 -113l-57 99z" />
    <glyph glyph-name="uni00CA" unicode="&#xca;" horiz-adv-x="649" 
d="M609 0h-544v700h535v-145h-380v-130h355v-140h-355v-140h389v-145zM334 945h4l184 -117l-58 -85l-128 66l-128 -66l-52 83z" />
    <glyph glyph-name="uni00CB" unicode="&#xcb;" horiz-adv-x="649" 
d="M609 0h-544v700h535v-145h-380v-130h355v-140h-355v-140h389v-145zM127 831q0 33 25.5 54.5t59.5 21.5q32 0 57.5 -22.5t25.5 -53.5q0 -32 -25.5 -54.5t-57.5 -22.5q-27 0 -47 13q-38 21 -38 64zM376 831q0 33 26 54.5t59 21.5t57.5 -22t24.5 -54t-24.5 -54.5
t-57.5 -22.5t-59 22t-26 55z" />
    <glyph glyph-name="uni00CC" unicode="&#xcc;" horiz-adv-x="295" 
d="M225 0h-155v700h155v-700zM247 832l-57 -99l-240 113l69 128z" />
    <glyph glyph-name="uni00CD" unicode="&#xcd;" horiz-adv-x="295" 
d="M225 0h-155v700h155v-700zM288 974l69 -128l-240 -113l-57 99z" />
    <glyph glyph-name="uni00CE" unicode="&#xce;" horiz-adv-x="295" 
d="M225 0h-155v700h155v-700zM143 945h4l184 -117l-58 -85l-128 66l-128 -66l-52 83z" />
    <glyph glyph-name="uni00CF" unicode="&#xcf;" horiz-adv-x="295" 
d="M225 0h-155v700h155v-700zM-60 831q0 34 25 55t60 21q32 0 57.5 -22.5t25.5 -53.5q0 -32 -25.5 -54.5t-57.5 -22.5q-35 0 -60 21.5t-25 55.5zM189 831q0 33 26 54.5t59 21.5t57.5 -22t24.5 -54t-24.5 -54.5t-57.5 -22.5t-59 22t-26 55z" />
    <glyph glyph-name="uni00D0" unicode="&#xd0;" horiz-adv-x="786" 
d="M131 285h-111v129h111v286h222q184 0 293.5 -83.5t109.5 -257.5q0 -75 -22 -135.5t-60 -101.5t-91.5 -69t-114.5 -40.5t-130 -12.5h-207v285zM351 555h-65v-141h158v-129h-158v-140h65q244 0 244 214q0 196 -244 196z" />
    <glyph glyph-name="uni00D1" unicode="&#xd1;" horiz-adv-x="740" 
d="M675 700v-700h-120l-339 415v-415h-151v700h119l340 -416v416h151zM228 766l-46 94q22 28 56 45.5t69 17.5q29 0 70 -15q39 -15 65 -15q50 0 78 30l38 -94q-40 -66 -126 -66q-24 0 -66 15q-44 15 -72 15q-33 0 -66 -27z" />
    <glyph glyph-name="uni00D2" unicode="&#xd2;" horiz-adv-x="781" 
d="M30 350q0 152 105.5 257t255.5 105q106 0 196.5 -57t131.5 -153q32 -78 32 -152q0 -151 -105 -256.5t-255 -105.5q-152 0 -256.5 105.5t-104.5 256.5zM191 350q0 -88 57 -150t143 -62q90 0 144.5 61t54.5 151q0 87 -57 149.5t-142 62.5q-88 0 -144 -62t-56 -150zM502 832
l-57 -99l-240 113l69 128z" />
    <glyph glyph-name="uni00D3" unicode="&#xd3;" horiz-adv-x="781" 
d="M30 350q0 152 105.5 257t255.5 105q106 0 196.5 -57t131.5 -153q32 -78 32 -152q0 -151 -105 -256.5t-255 -105.5q-152 0 -256.5 105.5t-104.5 256.5zM191 350q0 -88 57 -150t143 -62q90 0 144.5 61t54.5 151q0 87 -57 149.5t-142 62.5q-88 0 -144 -62t-56 -150zM533 974
l69 -128l-240 -113l-57 99z" />
    <glyph glyph-name="uni00D4" unicode="&#xd4;" horiz-adv-x="781" 
d="M30 350q0 152 105.5 257t255.5 105q106 0 196.5 -57t131.5 -153q32 -78 32 -152q0 -151 -105 -256.5t-255 -105.5q-152 0 -256.5 105.5t-104.5 256.5zM191 350q0 -88 57 -150t143 -62q90 0 144.5 61t54.5 151q0 87 -57 149.5t-142 62.5q-88 0 -144 -62t-56 -150zM385 945
h4l184 -117l-58 -85l-128 66l-128 -66l-52 83z" />
    <glyph glyph-name="uni00D5" unicode="&#xd5;" horiz-adv-x="781" 
d="M30 350q0 152 105.5 257t255.5 105q106 0 196.5 -57t131.5 -153q32 -78 32 -152q0 -151 -105 -256.5t-255 -105.5q-152 0 -256.5 105.5t-104.5 256.5zM191 350q0 -88 57 -150t143 -62q90 0 144.5 61t54.5 151q0 87 -57 149.5t-142 62.5q-88 0 -144 -62t-56 -150zM248 766
l-46 94q22 28 56 45.5t69 17.5q29 0 70 -15q39 -15 65 -15q50 0 78 30l38 -94q-40 -66 -126 -66q-24 0 -66 15q-44 15 -72 15q-33 0 -66 -27z" />
    <glyph glyph-name="uni00D6" unicode="&#xd6;" horiz-adv-x="781" 
d="M30 350q0 152 105.5 257t255.5 105q106 0 196.5 -57t131.5 -153q32 -78 32 -152q0 -151 -105 -256.5t-255 -105.5q-152 0 -256.5 105.5t-104.5 256.5zM191 350q0 -88 57 -150t143 -62q90 0 144.5 61t54.5 151q0 87 -57 149.5t-142 62.5q-88 0 -144 -62t-56 -150zM182 831
q0 33 25.5 54.5t59.5 21.5q32 0 57.5 -22.5t25.5 -53.5q0 -32 -25.5 -54.5t-57.5 -22.5q-27 0 -47 13q-38 21 -38 64zM431 831q0 33 26 54.5t59 21.5t57.5 -22t24.5 -54t-24.5 -54.5t-57.5 -22.5t-59 22t-26 55z" />
    <glyph glyph-name="uni00D7" unicode="&#xd7;" horiz-adv-x="605" 
d="M204 358l-124 124l92 92l123 -124l124 124l92 -92l-124 -124l124 -123l-92 -92l-124 124l-123 -124l-92 92z" />
    <glyph glyph-name="uni00D8" unicode="&#xd8;" horiz-adv-x="781" 
d="M168 -32l-109 90l51 62q-80 98 -80 230q0 151 105.5 254.5t255.5 103.5q89 0 169 -40l50 61l107 -86l-49 -60q83 -98 83 -233q0 -151 -105 -254.5t-255 -103.5q-95 0 -171 40zM590 350q0 56 -26 106l-245 -302q35 -12 72 -12q90 0 144.5 59.5t54.5 148.5zM191 350
q0 -59 23 -103l245 299q-33 12 -68 12q-88 0 -144 -60t-56 -148z" />
    <glyph glyph-name="uni00D9" unicode="&#xd9;" horiz-adv-x="720" 
d="M510 700h155v-400q0 -139 -80.5 -223t-216.5 -84q-141 0 -227 87.5t-86 225.5v394h155v-376q0 -81 40 -133.5t118 -52.5q142 0 142 182v380zM472 832l-57 -99l-240 113l69 128z" />
    <glyph glyph-name="uni00DA" unicode="&#xda;" horiz-adv-x="720" 
d="M510 700h155v-400q0 -139 -80.5 -223t-216.5 -84q-141 0 -227 87.5t-86 225.5v394h155v-376q0 -81 40 -133.5t118 -52.5q142 0 142 182v380zM503 974l69 -128l-240 -113l-57 99z" />
    <glyph glyph-name="uni00DB" unicode="&#xdb;" horiz-adv-x="720" 
d="M510 700h155v-400q0 -139 -80.5 -223t-216.5 -84q-141 0 -227 87.5t-86 225.5v394h155v-376q0 -81 40 -133.5t118 -52.5q142 0 142 182v380zM355 945h4l184 -117l-58 -85l-128 66l-128 -66l-52 83z" />
    <glyph glyph-name="uni00DC" unicode="&#xdc;" horiz-adv-x="720" 
d="M510 700h155v-400q0 -139 -80.5 -223t-216.5 -84q-141 0 -227 87.5t-86 225.5v394h155v-376q0 -81 40 -133.5t118 -52.5q142 0 142 182v380zM152 831q0 33 25.5 54.5t59.5 21.5q32 0 57.5 -22.5t25.5 -53.5q0 -32 -25.5 -54.5t-57.5 -22.5q-27 0 -47 13q-38 21 -38 64z
M401 831q0 33 26 54.5t59 21.5t57.5 -22t24.5 -54t-24.5 -54.5t-57.5 -22.5t-59 22t-26 55z" />
    <glyph glyph-name="uni00DD" unicode="&#xdd;" horiz-adv-x="700" 
d="M531 700h179l-284 -449v-251h-155v251l-281 449h185l176 -280zM498 974l69 -128l-240 -113l-57 99z" />
    <glyph glyph-name="uni00DE" unicode="&#xde;" horiz-adv-x="662" 
d="M220 120v-120h-155v700h155v-100h115q85 0 149 -22t106 -77.5t42 -141.5q0 -83 -44 -138.5t-108.5 -78t-144.5 -22.5h-115zM339 455h-119v-190h113q138 0 138 95t-132 95z" />
    <glyph glyph-name="uni00DF" unicode="&#xdf;" horiz-adv-x="567" 
d="M291 738q102 0 160 -54.5t58 -155.5q0 -45 -19 -83t-56 -57q60 -20 84 -62.5t24 -109.5q0 -106 -56.5 -166.5t-159.5 -60.5q-60 0 -102 20l33 131q32 -16 60 -16q38 0 59 25.5t21 63.5q0 43 -26.5 64.5t-70.5 21.5h-49v135h14q99 0 99 80q0 39 -24 64t-63 25
q-24 0 -41 -12t-26 -28t-13.5 -41.5t-5.5 -43t-1 -41.5v-437h-145v436q0 302 246 302z" />
    <glyph glyph-name="uni00E0" unicode="&#xe0;" horiz-adv-x="532" 
d="M117 346l-69 105q38 41 101.5 60.5t127.5 19.5q101 0 157 -57t56 -159v-315h-145v47q-22 -25 -62.5 -39t-77.5 -14q-82 0 -136 45t-54 125q0 61 38 101t88.5 55t109.5 15t94 -13q2 38 -20 56q-23 18 -64 18q-73 0 -144 -50zM235 119q33 0 64.5 16t45.5 43v24
q-35 13 -79 13q-34 0 -58 -6q-43 -14 -43 -45q0 -24 21.5 -34.5t48.5 -10.5zM354 656l-86 -69l-147 160l114 86z" />
    <glyph glyph-name="uni00E1" unicode="&#xe1;" horiz-adv-x="532" 
d="M117 346l-69 105q38 41 101.5 60.5t127.5 19.5q101 0 157 -57t56 -159v-315h-145v47q-22 -25 -62.5 -39t-77.5 -14q-82 0 -136 45t-54 125q0 61 38 101t88.5 55t109.5 15t94 -13q2 38 -20 56q-23 18 -64 18q-73 0 -144 -50zM235 119q33 0 64.5 16t45.5 43v24
q-35 13 -79 13q-34 0 -58 -6q-43 -14 -43 -45q0 -24 21.5 -34.5t48.5 -10.5zM305 833l109 -82l-132 -164l-100 70z" />
    <glyph glyph-name="uni00E2" unicode="&#xe2;" horiz-adv-x="532" 
d="M117 346l-69 105q38 41 101.5 60.5t127.5 19.5q101 0 157 -57t56 -159v-315h-145v47q-22 -25 -62.5 -39t-77.5 -14q-82 0 -136 45t-54 125q0 61 38 101t88.5 55t109.5 15t94 -13q2 38 -20 56q-23 18 -64 18q-73 0 -144 -50zM235 119q33 0 64.5 16t45.5 43v24
q-35 13 -79 13q-34 0 -58 -6q-43 -14 -43 -45q0 -24 21.5 -34.5t48.5 -10.5zM266 796h4l165 -136l-70 -88l-98 81l-100 -79l-67 87z" />
    <glyph glyph-name="uni00E3" unicode="&#xe3;" horiz-adv-x="532" 
d="M117 346l-69 105q38 41 101.5 60.5t127.5 19.5q101 0 157 -57t56 -159v-315h-145v47q-22 -25 -62.5 -39t-77.5 -14q-82 0 -136 45t-54 125q0 61 38 101t88.5 55t109.5 15t94 -13q2 38 -20 56q-23 18 -64 18q-73 0 -144 -50zM235 119q33 0 64.5 16t45.5 43v24
q-35 13 -79 13q-34 0 -58 -6q-43 -14 -43 -45q0 -24 21.5 -34.5t48.5 -10.5zM145 599l-60 67q56 78 132 78q24 0 61 -19q38 -20 57 -20q36 0 66 27l49 -75q-24 -30 -58.5 -51t-68.5 -21q-21 0 -59 20q-37 19 -60 19q-28 0 -59 -25z" />
    <glyph glyph-name="uni00E4" unicode="&#xe4;" horiz-adv-x="532" 
d="M117 346l-69 105q38 41 101.5 60.5t127.5 19.5q101 0 157 -57t56 -159v-315h-145v47q-22 -25 -62.5 -39t-77.5 -14q-82 0 -136 45t-54 125q0 61 38 101t88.5 55t109.5 15t94 -13q2 38 -20 56q-23 18 -64 18q-73 0 -144 -50zM235 119q33 0 64.5 16t45.5 43v24
q-35 13 -79 13q-34 0 -58 -6q-43 -14 -43 -45q0 -24 21.5 -34.5t48.5 -10.5zM86 660q0 30 23.5 50t54.5 20q30 0 54.5 -20.5t24.5 -49.5q0 -14 -8 -32q-10 -18 -30 -29t-41 -11q-33 0 -55.5 20t-22.5 52zM290 660q0 21 13 38.5t34 25.5q20 6 34 6q13 0 33 -6q20 -9 33 -26
t13 -38q0 -32 -23 -52t-56 -20t-57 20t-24 52z" />
    <glyph glyph-name="uni00E5" unicode="&#xe5;" horiz-adv-x="532" 
d="M117 346l-69 105q38 41 101.5 60.5t127.5 19.5q101 0 157 -57t56 -159v-315h-145v47q-22 -25 -62.5 -39t-77.5 -14q-82 0 -136 45t-54 125q0 61 38 101t88.5 55t109.5 15t94 -13q2 38 -20 56q-23 18 -64 18q-73 0 -144 -50zM235 119q33 0 64.5 16t45.5 43v24
q-35 13 -79 13q-34 0 -58 -6q-43 -14 -43 -45q0 -24 21.5 -34.5t48.5 -10.5zM130 701q0 55 41 92t96 37q58 0 98.5 -36.5t40.5 -92.5q0 -55 -41.5 -91t-97.5 -36q-55 0 -96 36.5t-41 90.5zM225 703q0 -20 12 -32t32 -12q19 0 31 12q11 13 11 32q0 18 -11 31q-13 11 -31 11
q-19 0 -32 -11q-12 -12 -12 -31z" />
    <glyph glyph-name="uni00E6" unicode="&#xe6;" horiz-adv-x="878" 
d="M748 184l87 -88q-83 -104 -214 -104q-59 0 -115.5 19.5t-93.5 58.5q-73 -76 -188 -76q-90 0 -149.5 42t-59.5 128q0 61 38 101t88.5 55t109.5 15t94 -13q2 38 -20 56q-23 18 -64 18q-73 0 -144 -50l-69 105q38 41 101.5 60.5t127.5 19.5q97 0 156 -56q71 56 177 56
q109 0 178.5 -66t69.5 -173q0 -28 -8 -84h-358q10 -41 47 -61t84 -20q80 0 125 57zM235 119q33 0 64.5 16t45.5 43v24q-35 13 -79 13q-34 0 -58 -6q-43 -14 -43 -45q0 -24 21.5 -34.5t48.5 -10.5zM605 401q-83 0 -110 -68h213q-18 68 -103 68z" />
    <glyph glyph-name="uni00E7" unicode="&#xe7;" horiz-adv-x="540" 
d="M146 -161l44 69q28 -28 81 -28q13 0 21 3q8 5 8 10q0 17 -45 17h-6v86q-106 16 -167.5 87.5t-61.5 177.5q0 119 78.5 194.5t196.5 75.5q78 0 143.5 -32t94.5 -98l-108 -70q-26 34 -53 49.5t-68 15.5q-60 0 -97 -37.5t-37 -97.5q0 -59 44 -96.5t104 -37.5q72 0 113 68
l106 -63q-31 -59 -88.5 -96.5t-124.5 -42.5v-19q46 -4 76 -26t30 -64q0 -34 -20.5 -53.5t-57.5 -32.5q-29 -8 -73 -8q-78 0 -133 49z" />
    <glyph glyph-name="uni00E8" unicode="&#xe8;" horiz-adv-x="558" 
d="M438 184l87 -88q-83 -104 -224 -104q-125 0 -203 74t-78 195q0 123 74.5 196.5t195.5 73.5q109 0 178.5 -66t69.5 -173q0 -28 -8 -84h-358q10 -41 47 -61t84 -20q88 0 135 57zM285 401q-83 0 -110 -68h213q-18 68 -103 68zM375 656l-86 -69l-147 160l114 86z" />
    <glyph glyph-name="uni00E9" unicode="&#xe9;" horiz-adv-x="558" 
d="M438 184l87 -88q-83 -104 -224 -104q-125 0 -203 74t-78 195q0 123 74.5 196.5t195.5 73.5q109 0 178.5 -66t69.5 -173q0 -28 -8 -84h-358q10 -41 47 -61t84 -20q88 0 135 57zM285 401q-83 0 -110 -68h213q-18 68 -103 68zM316 833l109 -82l-132 -164l-100 70z" />
    <glyph glyph-name="uni00EA" unicode="&#xea;" horiz-adv-x="558" 
d="M438 184l87 -88q-83 -104 -224 -104q-125 0 -203 74t-78 195q0 123 74.5 196.5t195.5 73.5q109 0 178.5 -66t69.5 -173q0 -28 -8 -84h-358q10 -41 47 -61t84 -20q88 0 135 57zM285 401q-83 0 -110 -68h213q-18 68 -103 68zM288 796h4l165 -136l-70 -88l-98 81l-100 -79
l-67 87z" />
    <glyph glyph-name="uni00EB" unicode="&#xeb;" horiz-adv-x="558" 
d="M438 184l87 -88q-83 -104 -224 -104q-125 0 -203 74t-78 195q0 123 74.5 196.5t195.5 73.5q109 0 178.5 -66t69.5 -173q0 -28 -8 -84h-358q10 -41 47 -61t84 -20q88 0 135 57zM285 401q-83 0 -110 -68h213q-18 68 -103 68zM97 660q0 30 23.5 50t54.5 20q30 0 54.5 -20.5
t24.5 -49.5q0 -14 -8 -32q-10 -18 -30 -29t-41 -11q-33 0 -55.5 20t-22.5 52zM301 660q0 21 13 38.5t34 25.5q20 6 34 6t33 -6q20 -9 33 -26t13 -38q0 -32 -23 -52t-56 -20t-57 20t-24 52z" />
    <glyph glyph-name="uni00EC" unicode="&#xec;" horiz-adv-x="263" 
d="M204 0h-145v520h145v-520zM228 656l-86 -69l-147 160l114 86z" />
    <glyph glyph-name="uni00ED" unicode="&#xed;" horiz-adv-x="263" 
d="M204 0h-145v520h145v-520zM159 833l109 -82l-132 -164l-100 70z" />
    <glyph glyph-name="uni00EE" unicode="&#xee;" horiz-adv-x="263" 
d="M204 0h-145v520h145v-520zM130 796h4l165 -136l-70 -88l-98 81l-100 -79l-67 87z" />
    <glyph glyph-name="uni00EF" unicode="&#xef;" horiz-adv-x="263" 
d="M204 0h-145v520h145v-520zM-50 660q0 30 23.5 50t54.5 20q30 0 54.5 -20.5t24.5 -49.5q0 -14 -8 -32q-10 -18 -30 -29t-41 -11q-33 0 -55.5 20t-22.5 52zM154 660q0 21 13 38.5t34 25.5q19 6 34 6q13 0 33 -6q20 -9 33 -26t13 -38q0 -32 -23 -52t-56 -20t-57 20t-24 52z
" />
    <glyph glyph-name="uni00F0" unicode="&#xf0;" horiz-adv-x="614" 
d="M252 733l22 47l100 -39l-20 -44q116 -56 175.5 -155t59.5 -230q0 -142 -73.5 -231t-209.5 -89q-119 0 -200 76t-81 193q0 120 80.5 190t200.5 70q24 0 50 -6q27 -9 41 -16q-33 52 -95 85l-21 -46l-99 39l19 43q-12 3 -61 8l35 120q43 -6 77 -15zM175 261
q0 -57 37.5 -95.5t93.5 -38.5q66 0 99.5 41.5t33.5 109.5q0 55 -10 78q-34 40 -100 40q-69 0 -111.5 -34t-42.5 -101z" />
    <glyph glyph-name="uni00F1" unicode="&#xf1;" horiz-adv-x="577" 
d="M190 0h-145v520h145v-37q41 47 142 47q205 0 205 -238v-292h-145v283q0 58 -23 85t-79 27q-73 0 -100 -69v-326zM168 599l-60 67q56 78 132 78q24 0 61 -19q38 -20 57 -20q36 0 66 27l49 -75q-24 -30 -58.5 -51t-68.5 -21q-21 0 -59 20q-37 19 -60 19q-28 0 -59 -25z" />
    <glyph glyph-name="uni00F2" unicode="&#xf2;" horiz-adv-x="604" 
d="M20 261q0 120 81 195t200 75q121 0 202 -75.5t81 -194.5q0 -120 -82 -194.5t-201 -74.5t-200 76t-81 193zM170 261q0 -57 37.5 -95.5t93.5 -38.5q60 0 96.5 37t36.5 97q0 59 -37 97t-96 38t-95 -38t-36 -97zM378 656l-86 -69l-147 160l114 86z" />
    <glyph glyph-name="uni00F3" unicode="&#xf3;" horiz-adv-x="604" 
d="M20 261q0 120 81 195t200 75q121 0 202 -75.5t81 -194.5q0 -120 -82 -194.5t-201 -74.5t-200 76t-81 193zM170 261q0 -57 37.5 -95.5t93.5 -38.5q60 0 96.5 37t36.5 97q0 59 -37 97t-96 38t-95 -38t-36 -97zM339 833l109 -82l-132 -164l-100 70z" />
    <glyph glyph-name="uni00F4" unicode="&#xf4;" horiz-adv-x="604" 
d="M20 261q0 120 81 195t200 75q121 0 202 -75.5t81 -194.5q0 -120 -82 -194.5t-201 -74.5t-200 76t-81 193zM170 261q0 -57 37.5 -95.5t93.5 -38.5q60 0 96.5 37t36.5 97q0 59 -37 97t-96 38t-95 -38t-36 -97zM300 796h4l165 -136l-70 -88l-98 81l-100 -79l-67 87z" />
    <glyph glyph-name="uni00F5" unicode="&#xf5;" horiz-adv-x="604" 
d="M20 261q0 120 81 195t200 75q121 0 202 -75.5t81 -194.5q0 -120 -82 -194.5t-201 -74.5t-200 76t-81 193zM170 261q0 -57 37.5 -95.5t93.5 -38.5q60 0 96.5 37t36.5 97q0 59 -37 97t-96 38t-95 -38t-36 -97zM179 599l-60 67q56 78 132 78q24 0 61 -19q38 -20 57 -20
q36 0 66 27l49 -75q-24 -30 -58.5 -51t-68.5 -21q-21 0 -59 20q-37 19 -60 19q-28 0 -59 -25z" />
    <glyph glyph-name="uni00F6" unicode="&#xf6;" horiz-adv-x="604" 
d="M20 261q0 120 81 195t200 75q121 0 202 -75.5t81 -194.5q0 -120 -82 -194.5t-201 -74.5t-200 76t-81 193zM170 261q0 -57 37.5 -95.5t93.5 -38.5q60 0 96.5 37t36.5 97q0 59 -37 97t-96 38t-95 -38t-36 -97zM120 660q0 30 23.5 50t54.5 20q30 0 54.5 -20.5t24.5 -49.5
q0 -14 -8 -32q-10 -18 -30 -29t-41 -11q-33 0 -55.5 20t-22.5 52zM324 660q0 21 13 38.5t34 25.5q20 6 34 6q13 0 33 -6q20 -9 33 -26t13 -38q0 -32 -23 -52t-56 -20t-57 20t-24 52z" />
    <glyph glyph-name="uni00F7" unicode="&#xf7;" horiz-adv-x="555" 
d="M196 543q0 30 25.5 51t56.5 21q30 0 55.5 -21t25.5 -51q0 -32 -24.5 -52.5t-56.5 -20.5q-33 0 -57.5 20.5t-24.5 52.5zM196 175q0 32 25 52t57 20q31 0 56 -20.5t25 -51.5q0 -32 -24 -53t-57 -21t-57.5 20.5t-24.5 53.5zM525 296h-495v126h495v-126z" />
    <glyph glyph-name="uni00F8" unicode="&#xf8;" horiz-adv-x="604" 
d="M20 261q0 120 81 195t200 75q64 0 118 -22l45 54l107 -86l-41 -50q54 -73 54 -166q0 -120 -82 -194.5t-201 -74.5q-58 0 -112 20l-51 -62l-109 90l46 55q-55 70 -55 166zM170 261q0 -25 6 -44l148 177l-23 2q-59 0 -95 -38t-36 -97zM434 261q0 23 -6 42l-144 -175l17 -1
q60 0 96.5 37t36.5 97z" />
    <glyph glyph-name="uni00F9" unicode="&#xf9;" horiz-adv-x="570" 
d="M380 523h145v-523h-145v34q-54 -42 -122 -42q-218 0 -218 234v297h145v-286q0 -110 88 -110q69 0 107 64v332zM379 656l-86 -69l-147 160l114 86z" />
    <glyph glyph-name="uni00FA" unicode="&#xfa;" horiz-adv-x="570" 
d="M380 523h145v-523h-145v34q-54 -42 -122 -42q-218 0 -218 234v297h145v-286q0 -110 88 -110q69 0 107 64v332zM310 833l109 -82l-132 -164l-100 70z" />
    <glyph glyph-name="uni00FB" unicode="&#xfb;" horiz-adv-x="570" 
d="M380 523h145v-523h-145v34q-54 -42 -122 -42q-218 0 -218 234v297h145v-286q0 -110 88 -110q69 0 107 64v332zM281 796h4l165 -136l-70 -88l-98 81l-100 -79l-67 87z" />
    <glyph glyph-name="uni00FC" unicode="&#xfc;" horiz-adv-x="570" 
d="M380 523h145v-523h-145v34q-54 -42 -122 -42q-218 0 -218 234v297h145v-286q0 -110 88 -110q69 0 107 64v332zM101 660q0 30 23.5 50t54.5 20q30 0 54.5 -20.5t24.5 -49.5q0 -14 -8 -32q-10 -18 -30 -29t-41 -11q-33 0 -55.5 20t-22.5 52zM305 660q0 21 13 38.5t34 25.5
q20 6 34 6t33 -6q20 -9 33 -26t13 -38q0 -32 -23 -52t-56 -20t-57 20t-24 52z" />
    <glyph glyph-name="uni00FD" unicode="&#xfd;" horiz-adv-x="557" 
d="M417 520h155l-293 -720h-157l107 244l-249 476h169l151 -302zM316 833l109 -82l-132 -164l-100 70z" />
    <glyph glyph-name="uni00FE" unicode="&#xfe;" horiz-adv-x="587" 
d="M190 -200h-145v930h145v-237q19 18 53 28t63 10q117 0 186.5 -74t69.5 -189q0 -119 -72 -197.5t-188 -78.5q-92 0 -112 26v-218zM290 396q-67 0 -100 -59v-166q12 -20 39 -32t53 -12q59 0 94.5 35.5t35.5 94.5q0 64 -30 101.5t-92 37.5z" />
    <glyph glyph-name="uni00FF" unicode="&#xff;" horiz-adv-x="557" 
d="M417 520h155l-293 -720h-157l107 244l-249 476h169l151 -302zM97 660q0 30 23.5 50t54.5 20q30 0 54.5 -20.5t24.5 -49.5q0 -14 -8 -32q-10 -18 -30 -29t-41 -11q-33 0 -55.5 20t-22.5 52zM301 660q0 21 13 38.5t34 25.5q20 6 34 6t33 -6q20 -9 33 -26t13 -38
q0 -32 -23 -52t-56 -20t-57 20t-24 52z" />
    <glyph glyph-name="uni0100" unicode="&#x100;" horiz-adv-x="721" 
d="M156 0h-160l307 700h115l307 -700h-162l-57 130h-293zM449 261l-90 209l-92 -209h182zM517 770h-314v120h314v-120z" />
    <glyph glyph-name="uni0101" unicode="&#x101;" horiz-adv-x="532" 
d="M117 346l-69 105q38 41 101.5 60.5t127.5 19.5q101 0 157 -57t56 -159v-315h-145v47q-22 -25 -62.5 -39t-77.5 -14q-82 0 -136 45t-54 125q0 61 38 101t88.5 55t109.5 15t94 -13q2 38 -20 56q-23 18 -64 18q-73 0 -144 -50zM235 119q33 0 64.5 16t45.5 43v24
q-35 13 -79 13q-34 0 -58 -6q-43 -14 -43 -45q0 -24 21.5 -34.5t48.5 -10.5zM415 610h-294v120h294v-120z" />
    <glyph glyph-name="uni0102" unicode="&#x102;" horiz-adv-x="721" 
d="M156 0h-160l307 700h115l307 -700h-162l-57 130h-293zM449 261l-90 209l-92 -209h182zM159 863l64 77q59 -60 143 -60q85 0 140 60l55 -78q-29 -48 -83.5 -80t-111.5 -32q-58 0 -117.5 32t-89.5 81z" />
    <glyph glyph-name="uni0103" unicode="&#x103;" horiz-adv-x="532" 
d="M117 346l-69 105q38 41 101.5 60.5t127.5 19.5q101 0 157 -57t56 -159v-315h-145v47q-22 -25 -62.5 -39t-77.5 -14q-82 0 -136 45t-54 125q0 61 38 101t88.5 55t109.5 15t94 -13q2 38 -20 56q-23 18 -64 18q-73 0 -144 -50zM235 119q33 0 64.5 16t45.5 43v24
q-35 13 -79 13q-34 0 -58 -6q-43 -14 -43 -45q0 -24 21.5 -34.5t48.5 -10.5zM92 707l66 75q46 -52 105 -52q66 0 110 50l51 -72q-66 -98 -167 -98q-34 0 -66 13q-62 21 -99 84z" />
    <glyph glyph-name="uni0104" unicode="&#x104;" horiz-adv-x="721" 
d="M680 -70l45 -90q-16 -20 -52 -30t-68 -10q-34 0 -64.5 7.5t-55.5 30t-25 57.5q0 19 10 39q19 44 92 67l-56 129h-293l-57 -130h-160l307 700h115l307 -700h-25q-27 -1 -58.5 -16t-31.5 -38q0 -12 9 -20q9 -6 21 -6q20 0 40 10zM449 261l-90 209l-92 -209h182z" />
    <glyph glyph-name="uni0105" unicode="&#x105;" horiz-adv-x="535" 
d="M459 -70l45 -90q-16 -20 -52 -30t-68 -10q-34 0 -64.5 7.5t-55.5 30t-25 57.5q0 40 31.5 67.5t74.5 40.5v44q-22 -25 -62.5 -39t-77.5 -14q-82 0 -136 45t-54 125q0 61 38 101t88.5 55t109.5 15t94 -13q2 38 -20 56q-23 18 -64 18q-73 0 -144 -50l-69 105
q38 41 101.5 60.5t127.5 19.5q101 0 157 -57t56 -159v-315h-11q-27 -1 -58.5 -16t-31.5 -38q0 -12 9 -20q9 -6 21 -6q20 0 40 10zM235 119q33 0 64.5 16t45.5 43v24q-35 13 -79 13q-34 0 -58 -6q-43 -14 -43 -45q0 -24 21.5 -34.5t48.5 -10.5z" />
    <glyph glyph-name="uni0106" unicode="&#x106;" horiz-adv-x="696" 
d="M594 231l92 -99q-45 -69 -127.5 -106.5t-170.5 -37.5q-163 0 -260.5 101t-97.5 261q0 156 104 259t258 103q84 0 163.5 -34t119.5 -99l-105 -96q-29 36 -74.5 57.5t-92.5 21.5q-95 0 -153.5 -58.5t-58.5 -153.5q0 -92 59 -152t151 -60q119 0 193 93zM518 974l69 -128
l-240 -113l-57 99z" />
    <glyph glyph-name="uni0107" unicode="&#x107;" horiz-adv-x="540" 
d="M431 195l106 -63q-34 -66 -97 -103t-138 -37q-124 0 -203 74t-79 195q0 119 78.5 194.5t196.5 75.5q78 0 143.5 -32t94.5 -98l-108 -70q-26 34 -53 49.5t-68 15.5q-60 0 -97 -37.5t-37 -97.5q0 -59 44 -96.5t104 -37.5q72 0 113 68zM345 833l109 -82l-132 -164l-100 70z
" />
    <glyph glyph-name="uni0108" unicode="&#x108;" horiz-adv-x="696" 
d="M594 231l92 -99q-45 -69 -127.5 -106.5t-170.5 -37.5q-163 0 -260.5 101t-97.5 261q0 156 104 259t258 103q84 0 163.5 -34t119.5 -99l-105 -96q-29 36 -74.5 57.5t-92.5 21.5q-95 0 -153.5 -58.5t-58.5 -153.5q0 -92 59 -152t151 -60q119 0 193 93zM371 945h4l184 -117
l-58 -85l-128 66l-128 -66l-52 83z" />
    <glyph glyph-name="uni0109" unicode="&#x109;" horiz-adv-x="540" 
d="M431 195l106 -63q-34 -66 -97 -103t-138 -37q-124 0 -203 74t-79 195q0 119 78.5 194.5t196.5 75.5q78 0 143.5 -32t94.5 -98l-108 -70q-26 34 -53 49.5t-68 15.5q-60 0 -97 -37.5t-37 -97.5q0 -59 44 -96.5t104 -37.5q72 0 113 68zM296 796h4l165 -136l-70 -88l-98 81
l-100 -79l-67 87z" />
    <glyph glyph-name="uni010A" unicode="&#x10a;" horiz-adv-x="696" 
d="M594 231l92 -99q-45 -69 -127.5 -106.5t-170.5 -37.5q-163 0 -260.5 101t-97.5 261q0 156 104 259t258 103q84 0 163.5 -34t119.5 -99l-105 -96q-29 36 -74.5 57.5t-92.5 21.5q-95 0 -153.5 -58.5t-58.5 -153.5q0 -92 59 -152t151 -60q119 0 193 93zM300 828q0 32 25 52
t57 20q33 0 57 -20t24 -52q0 -33 -23.5 -53.5t-57.5 -20.5t-58 20t-24 54z" />
    <glyph glyph-name="uni010B" unicode="&#x10b;" horiz-adv-x="540" 
d="M431 195l106 -63q-34 -66 -97 -103t-138 -37q-124 0 -203 74t-79 195q0 119 78.5 194.5t196.5 75.5q78 0 143.5 -32t94.5 -98l-108 -70q-26 34 -53 49.5t-68 15.5q-60 0 -97 -37.5t-37 -97.5q0 -59 44 -96.5t104 -37.5q72 0 113 68zM216 658q0 32 25 52t57 20
q33 0 57 -20t24 -52q0 -33 -23.5 -53.5t-57.5 -20.5t-58 20t-24 54z" />
    <glyph glyph-name="uni010C" unicode="&#x10c;" horiz-adv-x="696" 
d="M594 231l92 -99q-45 -69 -127.5 -106.5t-170.5 -37.5q-163 0 -260.5 101t-97.5 261q0 156 104 259t258 103q84 0 163.5 -34t119.5 -99l-105 -96q-29 36 -74.5 57.5t-92.5 21.5q-95 0 -153.5 -58.5t-58.5 -153.5q0 -92 59 -152t151 -60q119 0 193 93zM379 743h-4l-184 117
l58 85l128 -76l128 76l52 -83z" />
    <glyph glyph-name="uni010D" unicode="&#x10d;" horiz-adv-x="540" 
d="M431 195l106 -63q-34 -66 -97 -103t-138 -37q-124 0 -203 74t-79 195q0 119 78.5 194.5t196.5 75.5q78 0 143.5 -32t94.5 -98l-108 -70q-26 34 -53 49.5t-68 15.5q-60 0 -97 -37.5t-37 -97.5q0 -59 44 -96.5t104 -37.5q72 0 113 68zM299 598h-4l-165 136l70 88l98 -81
l100 79l67 -87z" />
    <glyph glyph-name="uni010E" unicode="&#x10e;" horiz-adv-x="720" 
d="M272 0h-207v700h222q184 0 293.5 -83.5t109.5 -257.5q0 -75 -22 -135.5t-60 -101.5t-91.5 -69t-114.5 -40.5t-130 -12.5zM285 555h-65v-410h65q245 0 245 214q0 196 -245 196zM309 743h-4l-184 117l58 85l128 -76l128 76l52 -83z" />
    <glyph glyph-name="uni010F" unicode="&#x10f;" horiz-adv-x="586" 
d="M541 0h-145v41q-17 -18 -44.5 -31t-53.5 -16q-32 -2 -33 -2q-117 0 -181 75t-64 192q0 112 72 192t182 80q84 0 122 -25v224h145v-730zM296 127q14 0 33 6q46 10 67 55v168q-31 40 -91 40t-97.5 -37.5t-37.5 -97.5q0 -58 34.5 -96t91.5 -38zM593 731h154q6 -8 11 -30
q3 -20 3 -40q0 -105 -123 -185l-63 55q44 44 44 106q0 61 -26 94z" />
    <glyph glyph-name="uni0110" unicode="&#x110;" horiz-adv-x="786" 
d="M131 285h-111v129h111v286h222q184 0 293.5 -83.5t109.5 -257.5q0 -75 -22 -135.5t-60 -101.5t-91.5 -69t-114.5 -40.5t-130 -12.5h-207v285zM351 555h-65v-141h158v-129h-158v-140h65q244 0 244 214q0 196 -244 196z" />
    <glyph glyph-name="uni0111" unicode="&#x111;" horiz-adv-x="586" 
d="M396 550h-114v130h114v50h145v-50h45v-130h-45v-550h-145v41q-17 -18 -44.5 -31t-53.5 -16q-32 -2 -33 -2q-117 0 -181 75t-64 192q0 112 72 192t182 80q84 0 122 -25v44zM296 127q14 0 33 6q46 10 67 55v168q-31 40 -91 40t-97.5 -37.5t-37.5 -97.5q0 -58 34.5 -96
t91.5 -38z" />
    <glyph glyph-name="uni0112" unicode="&#x112;" horiz-adv-x="649" 
d="M609 0h-544v700h535v-145h-380v-130h355v-140h-355v-140h389v-145zM484 770h-314v120h314v-120z" />
    <glyph glyph-name="uni0113" unicode="&#x113;" horiz-adv-x="558" 
d="M438 184l87 -88q-83 -104 -224 -104q-125 0 -203 74t-78 195q0 123 74.5 196.5t195.5 73.5q109 0 178.5 -66t69.5 -173q0 -28 -8 -84h-358q10 -41 47 -61t84 -20q88 0 135 57zM285 401q-83 0 -110 -68h213q-18 68 -103 68zM426 610h-294v120h294v-120z" />
    <glyph glyph-name="uni0116" unicode="&#x116;" horiz-adv-x="649" 
d="M609 0h-544v700h535v-145h-380v-130h355v-140h-355v-140h389v-145zM250 828q0 32 25 52t57 20q33 0 57 -20t24 -52q0 -33 -23.5 -53.5t-57.5 -20.5t-58 20t-24 54z" />
    <glyph glyph-name="uni0117" unicode="&#x117;" horiz-adv-x="558" 
d="M438 184l87 -88q-83 -104 -224 -104q-125 0 -203 74t-78 195q0 123 74.5 196.5t195.5 73.5q109 0 178.5 -66t69.5 -173q0 -28 -8 -84h-358q10 -41 47 -61t84 -20q88 0 135 57zM285 401q-83 0 -110 -68h213q-18 68 -103 68zM207 658q0 32 25 52t57 20q33 0 57 -20t24 -52
q0 -33 -23.5 -53.5t-57.5 -20.5t-58 20t-24 54z" />
    <glyph glyph-name="uni0118" unicode="&#x118;" horiz-adv-x="649" 
d="M453 0h-388v700h535v-145h-380v-130h355v-140h-355v-140h389v-145h-13q-27 -1 -58.5 -16t-31.5 -38q0 -12 9 -20q9 -6 21 -6q20 0 40 10l45 -90q-16 -20 -52 -30t-68 -10q-34 0 -64.5 7.5t-55.5 30t-25 57.5q0 37 27 62q24 26 70 43z" />
    <glyph glyph-name="uni0119" unicode="&#x119;" horiz-adv-x="558" 
d="M428 184l87 -88q-36 -45 -80 -70q-62 -57 -62 -80q0 -12 9 -20q9 -6 21 -6q20 0 40 10l45 -90q-16 -20 -52 -30t-68 -10q-34 0 -64.5 7.5t-55.5 30t-25 57.5q0 57 85 97h-7q-125 0 -203 74t-78 195q0 123 74.5 196.5t195.5 73.5q109 0 178.5 -66t69.5 -173q0 -28 -8 -84
h-358q10 -41 47 -61t84 -20q80 0 125 57zM285 401q-83 0 -110 -68h213q-18 68 -103 68z" />
    <glyph glyph-name="uni011A" unicode="&#x11a;" horiz-adv-x="649" 
d="M609 0h-544v700h535v-145h-380v-130h355v-140h-355v-140h389v-145zM339 743h-4l-184 117l58 85l128 -76l128 76l52 -83z" />
    <glyph glyph-name="uni011B" unicode="&#x11b;" horiz-adv-x="558" 
d="M438 184l87 -88q-83 -104 -224 -104q-125 0 -203 74t-78 195q0 123 74.5 196.5t195.5 73.5q109 0 178.5 -66t69.5 -173q0 -28 -8 -84h-358q10 -41 47 -61t84 -20q88 0 135 57zM285 401q-83 0 -110 -68h213q-18 68 -103 68zM281 598h-4l-165 136l70 88l98 -81l100 79
l67 -87z" />
    <glyph glyph-name="uni011C" unicode="&#x11c;" horiz-adv-x="731" 
d="M542 252h-177v140h326v-283q-53 -58 -127.5 -89.5t-154.5 -31.5q-165 0 -272 100.5t-107 261.5q0 156 104 259t258 103q82 0 163 -32t120 -94l-107 -96q-62 72 -170 72q-97 0 -152 -57.5t-55 -154.5q0 -99 61 -155.5t158 -56.5q74 0 132 40v74zM371 945h4l184 -117
l-58 -85l-128 66l-128 -66l-52 83z" />
    <glyph glyph-name="uni011D" unicode="&#x11d;" horiz-adv-x="579" 
d="M389 520h145v-475q0 -124 -63.5 -189t-183.5 -65q-84 0 -149 35t-93 108l127 53q32 -61 101 -61q116 0 116 90v23q-33 -47 -117 -47q-120 0 -186 75t-66 194q0 113 71 189.5t181 76.5q73 0 117 -28v21zM297 127q30 0 56 15.5t36 42.5v173q-28 34 -93 34q-58 0 -92 -37
t-34 -96q0 -31 9 -56q11 -38 43.5 -57t74.5 -19zM296 796h4l165 -136l-70 -88l-98 81l-100 -79l-67 87z" />
    <glyph glyph-name="uni011E" unicode="&#x11e;" horiz-adv-x="731" 
d="M542 252h-177v140h326v-283q-53 -58 -127.5 -89.5t-154.5 -31.5q-165 0 -272 100.5t-107 261.5q0 156 104 259t258 103q82 0 163 -32t120 -94l-107 -96q-62 72 -170 72q-97 0 -152 -57.5t-55 -154.5q0 -99 61 -155.5t158 -56.5q74 0 132 40v74zM193 863l64 77
q59 -60 143 -60q85 0 140 60l55 -78q-29 -48 -83.5 -80t-111.5 -32q-58 0 -117.5 32t-89.5 81z" />
    <glyph glyph-name="uni011F" unicode="&#x11f;" horiz-adv-x="579" 
d="M389 520h145v-475q0 -124 -63.5 -189t-183.5 -65q-84 0 -149 35t-93 108l127 53q32 -61 101 -61q116 0 116 90v23q-33 -47 -117 -47q-120 0 -186 75t-66 194q0 113 71 189.5t181 76.5q73 0 117 -28v21zM297 127q30 0 56 15.5t36 42.5v173q-28 34 -93 34q-58 0 -92 -37
t-34 -96q0 -31 9 -56q11 -38 43.5 -57t74.5 -19zM121 707l66 75q46 -52 105 -52q66 0 110 50l51 -72q-66 -98 -167 -98q-34 0 -66 13q-62 21 -99 84z" />
    <glyph glyph-name="uni0120" unicode="&#x120;" horiz-adv-x="731" 
d="M542 252h-177v140h326v-283q-53 -58 -127.5 -89.5t-154.5 -31.5q-165 0 -272 100.5t-107 261.5q0 156 104 259t258 103q82 0 163 -32t120 -94l-107 -96q-62 72 -170 72q-97 0 -152 -57.5t-55 -154.5q0 -99 61 -155.5t158 -56.5q74 0 132 40v74zM300 828q0 32 25 52t57 20
q33 0 57 -20t24 -52q0 -33 -23.5 -53.5t-57.5 -20.5t-58 20t-24 54z" />
    <glyph glyph-name="uni0121" unicode="&#x121;" horiz-adv-x="579" 
d="M389 520h145v-475q0 -124 -63.5 -189t-183.5 -65q-84 0 -149 35t-93 108l127 53q32 -61 101 -61q116 0 116 90v23q-33 -47 -117 -47q-120 0 -186 75t-66 194q0 113 71 189.5t181 76.5q73 0 117 -28v21zM297 127q30 0 56 15.5t36 42.5v173q-28 34 -93 34q-58 0 -92 -37
t-34 -96q0 -31 9 -56q11 -38 43.5 -57t74.5 -19zM215 658q0 32 25 52t57 20q33 0 57 -20t24 -52q0 -33 -23.5 -53.5t-57.5 -20.5t-58 20t-24 54z" />
    <glyph glyph-name="uni0122" unicode="&#x122;" horiz-adv-x="731" 
d="M542 252h-177v140h326v-283q-53 -58 -127.5 -89.5t-154.5 -31.5q-165 0 -272 100.5t-107 261.5q0 156 104 259t258 103q82 0 163 -32t120 -94l-107 -96q-62 72 -170 72q-97 0 -152 -57.5t-55 -154.5q0 -99 61 -155.5t158 -56.5q74 0 132 40v74zM317 -109l121 78
q52 -35 52 -94q0 -53 -28.5 -98.5t-75.5 -72.5l-69 50q32 37 32 75q0 25 -32 62z" />
    <glyph glyph-name="uni0123" unicode="&#x123;" horiz-adv-x="579" 
d="M395 632l-121 -78q-52 35 -52 94q0 51 29 97.5t75 73.5l69 -50q-32 -37 -32 -75q0 -25 32 -62zM389 520h145v-475q0 -124 -63.5 -189t-183.5 -65q-84 0 -149 35t-93 108l127 53q32 -61 101 -61q116 0 116 90v23q-33 -47 -117 -47q-120 0 -186 75t-66 194q0 113 71 189.5
t181 76.5q73 0 117 -28v21zM297 127q30 0 56 15.5t36 42.5v173q-28 34 -93 34q-58 0 -92 -37t-34 -96q0 -31 9 -56q11 -38 43.5 -57t74.5 -19z" />
    <glyph glyph-name="uni0124" unicode="&#x124;" horiz-adv-x="751" 
d="M686 0h-155v280h-311v-280h-155v700h155v-275h311v275h155v-700zM370 945h4l184 -117l-58 -85l-128 66l-128 -66l-52 83z" />
    <glyph glyph-name="uni0125" unicode="&#x125;" horiz-adv-x="574" 
d="M190 0h-145v730h145v-243q47 43 138 43q111 0 158.5 -62t47.5 -177v-291h-145v284q0 57 -21.5 84t-77.5 27q-30 0 -57 -17.5t-43 -44.5v-333zM121 945h4l184 -117l-58 -85l-128 66l-128 -66l-52 83z" />
    <glyph glyph-name="uni0126" unicode="&#x126;" horiz-adv-x="751" 
d="M65 502h-65v120h65v78h155v-78h311v78h155v-78h65v-120h-65v-502h-155v280h-311v-280h-155v502zM220 502v-77h311v77h-311z" />
    <glyph glyph-name="uni0127" unicode="&#x127;" horiz-adv-x="574" 
d="M45 550h-45v130h45v50h145v-50h114v-130h-114v-63q46 43 121 43q223 0 223 -239v-291h-145v284q0 57 -21.5 84t-77.5 27q-30 0 -57 -17.5t-43 -44.5v-333h-145v550z" />
    <glyph glyph-name="uni012A" unicode="&#x12a;" horiz-adv-x="295" 
d="M225 0h-155v700h155v-700zM305 770h-314v120h314v-120z" />
    <glyph glyph-name="uni012B" unicode="&#x12b;" horiz-adv-x="263" 
d="M204 0h-145v520h145v-520zM279 610h-294v120h294v-120z" />
    <glyph glyph-name="uni012E" unicode="&#x12e;" horiz-adv-x="295" 
d="M71 0h-1v700h155v-700h-2q-29 0 -64 -14.5t-35 -39.5q0 -12 9 -20q9 -6 21 -6q20 0 40 10l45 -90q-16 -20 -52 -30t-68 -10q-34 0 -64.5 7.5t-55.5 30t-25 57.5q0 37 27 62q24 26 70 43z" />
    <glyph glyph-name="uni012F" unicode="&#x12f;" horiz-adv-x="263" 
d="M172 -70l45 -90q-16 -20 -52 -30t-68 -10q-34 0 -64.5 7.5t-55.5 30t-25 57.5q0 40 31.5 67.5t75.5 40.5v517h145v-520h-3q-29 0 -64 -14.5t-35 -39.5q0 -12 9 -20q9 -6 21 -6q20 0 40 10zM50 658q0 32 25 52t57 20q33 0 57 -20t24 -52q0 -33 -23.5 -53.5t-57.5 -20.5
t-58 20t-24 54z" />
    <glyph glyph-name="uni0130" unicode="&#x130;" horiz-adv-x="295" 
d="M225 0h-155v700h155v-700zM67 828q0 32 25 52t57 20q33 0 57 -20t24 -52q0 -33 -23.5 -53.5t-57.5 -20.5t-58 20t-24 54z" />
    <glyph glyph-name="uni0131" unicode="&#x131;" horiz-adv-x="263" 
d="M204 0h-145v520h145v-520z" />
    <glyph glyph-name="uni0134" unicode="&#x134;" horiz-adv-x="486" 
d="M271 700h155v-481q0 -104 -54.5 -167.5t-157.5 -63.5q-75 0 -134.5 34.5t-89.5 99.5l113 87q37 -76 97 -76q43 0 57 32.5t14 83.5v451zM334 945h4l184 -117l-58 -85l-128 66l-128 -66l-52 83z" />
    <glyph glyph-name="uni0135" unicode="&#x135;" horiz-adv-x="263" 
d="M61 520h145v-518q0 -97 -44.5 -154t-138.5 -57q-137 0 -187 120l127 49q16 -34 47 -34q51 0 51 79v515zM130 796h4l165 -136l-70 -88l-98 81l-100 -79l-67 87z" />
    <glyph glyph-name="uni0136" unicode="&#x136;" horiz-adv-x="701" 
d="M220 0h-155v700h155v-273l269 273h202l-304 -310l324 -390h-204l-237 286l-50 -51v-235zM237 -109l121 78q52 -35 52 -94q0 -53 -28.5 -98.5t-75.5 -72.5l-69 50q32 37 32 75q0 25 -32 62z" />
    <glyph glyph-name="uni0137" unicode="&#x137;" horiz-adv-x="532" 
d="M190 0h-145v730h145v-386l164 176h186l-223 -227l230 -293h-184l-155 196l-18 -12v-184zM160 -109l121 78q52 -35 52 -94q0 -53 -28.5 -98.5t-75.5 -72.5l-69 50q32 37 32 75q0 25 -32 62z" />
    <glyph glyph-name="uni0139" unicode="&#x139;" horiz-adv-x="608" 
d="M598 0h-533v700h155v-555h378v-145zM438 974l69 -128l-240 -113l-57 99z" />
    <glyph glyph-name="uni013A" unicode="&#x13a;" horiz-adv-x="235" 
d="M190 0h-145v730h145v-730zM273 994l69 -128l-240 -113l-57 99z" />
    <glyph glyph-name="uni013B" unicode="&#x13b;" horiz-adv-x="608" 
d="M598 0h-533v700h155v-555h378v-145zM247 -109l121 78q52 -35 52 -94q0 -53 -28.5 -98.5t-75.5 -72.5l-69 50q32 37 32 75q0 25 -32 62z" />
    <glyph glyph-name="uni013C" unicode="&#x13c;" horiz-adv-x="235" 
d="M190 0h-145v730h145v-730zM31 -109l121 78q52 -35 52 -94q0 -53 -28.5 -98.5t-75.5 -72.5l-69 50q32 37 32 75q0 25 -32 62z" />
    <glyph glyph-name="uni013D" unicode="&#x13d;" horiz-adv-x="608" 
d="M598 0h-533v700h155v-555h378v-145zM368 701h154q6 -8 11 -30q3 -19 3 -40q0 -105 -123 -185l-63 55q44 44 44 106q0 61 -26 94z" />
    <glyph glyph-name="uni013E" unicode="&#x13e;" horiz-adv-x="282" 
d="M190 0h-145v730h145v-730zM233 731h154q6 -8 11 -30q3 -19 3 -40q0 -105 -123 -185l-63 55q44 44 44 106q0 61 -26 94z" />
    <glyph glyph-name="uni013F" unicode="&#x13f;" horiz-adv-x="608" 
d="M598 0h-533v700h155v-555h378v-145zM350 398q0 32 26.5 53t59.5 21q31 0 57 -22t26 -52q0 -33 -25 -55t-58 -22q-34 0 -60 22t-26 55z" />
    <glyph glyph-name="uni0140" unicode="&#x140;" horiz-adv-x="352" 
d="M190 0h-145v730h145v-730zM210 345q0 32 26.5 53t59.5 21q31 0 57 -22t26 -52q0 -33 -25 -55t-58 -22q-34 0 -60 22t-26 55z" />
    <glyph glyph-name="uni0141" unicode="&#x141;" 
d="M79 166l-79 -57v156l79 57v378h155v-266l182 131v-156l-182 -131v-133h378v-145h-533v166z" />
    <glyph glyph-name="uni0142" unicode="&#x142;" horiz-adv-x="336" 
d="M93 209l-93 -67v156l93 67v365h145v-260l98 71v-156l-98 -71v-314h-145v209z" />
    <glyph glyph-name="uni0143" unicode="&#x143;" horiz-adv-x="740" 
d="M675 700v-700h-120l-339 415v-415h-151v700h119l340 -416v416h151zM508 974l69 -128l-240 -113l-57 99z" />
    <glyph glyph-name="uni0144" unicode="&#x144;" horiz-adv-x="577" 
d="M190 0h-145v520h145v-37q41 47 142 47q205 0 205 -238v-292h-145v283q0 58 -23 85t-79 27q-73 0 -100 -69v-326zM318 833l109 -82l-132 -164l-100 70z" />
    <glyph glyph-name="uni0145" unicode="&#x145;" horiz-adv-x="740" 
d="M675 700v-700h-120l-339 415v-415h-151v700h119l340 -416v416h151zM297 -109l121 78q52 -35 52 -94q0 -53 -28.5 -98.5t-75.5 -72.5l-69 50q32 37 32 75q0 25 -32 62z" />
    <glyph glyph-name="uni0146" unicode="&#x146;" horiz-adv-x="577" 
d="M190 0h-145v520h145v-37q41 47 142 47q205 0 205 -238v-292h-145v283q0 58 -23 85t-79 27q-73 0 -100 -69v-326zM195 -109l121 78q52 -35 52 -94q0 -53 -28.5 -98.5t-75.5 -72.5l-69 50q32 37 32 75q0 25 -32 62z" />
    <glyph glyph-name="uni0147" unicode="&#x147;" horiz-adv-x="740" 
d="M675 700v-700h-120l-339 415v-415h-151v700h119l340 -416v416h151zM375 743h-4l-184 117l58 85l128 -76l128 76l52 -83z" />
    <glyph glyph-name="uni0148" unicode="&#x148;" horiz-adv-x="577" 
d="M190 0h-145v520h145v-37q41 47 142 47q205 0 205 -238v-292h-145v283q0 58 -23 85t-79 27q-73 0 -100 -69v-326zM293 598h-4l-165 136l70 88l98 -81l100 79l67 -87z" />
    <glyph glyph-name="uni014C" unicode="&#x14c;" horiz-adv-x="781" 
d="M30 350q0 152 105.5 257t255.5 105q106 0 196.5 -57t131.5 -153q32 -78 32 -152q0 -151 -105 -256.5t-255 -105.5q-152 0 -256.5 105.5t-104.5 256.5zM191 350q0 -88 57 -150t143 -62q90 0 144.5 61t54.5 151q0 87 -57 149.5t-142 62.5q-88 0 -144 -62t-56 -150zM547 770
h-314v120h314v-120z" />
    <glyph glyph-name="uni014D" unicode="&#x14d;" horiz-adv-x="604" 
d="M20 261q0 120 81 195t200 75q121 0 202 -75.5t81 -194.5q0 -120 -82 -194.5t-201 -74.5t-200 76t-81 193zM170 261q0 -57 37.5 -95.5t93.5 -38.5q60 0 96.5 37t36.5 97q0 59 -37 97t-96 38t-95 -38t-36 -97zM449 610h-294v120h294v-120z" />
    <glyph glyph-name="uni0150" unicode="&#x150;" horiz-adv-x="781" 
d="M30 350q0 152 105.5 257t255.5 105q106 0 196.5 -57t131.5 -153q32 -78 32 -152q0 -151 -105 -256.5t-255 -105.5q-152 0 -256.5 105.5t-104.5 256.5zM191 350q0 -88 57 -150t143 -62q90 0 144.5 61t54.5 151q0 87 -57 149.5t-142 62.5q-88 0 -144 -62t-56 -150zM574 935
l106 -94l-204 -113l-61 63zM330 935l130 -65l-167 -142l-64 58z" />
    <glyph glyph-name="uni0151" unicode="&#x151;" horiz-adv-x="604" 
d="M20 261q0 120 81 195t200 75q121 0 202 -75.5t81 -194.5q0 -120 -82 -194.5t-201 -74.5t-200 76t-81 193zM170 261q0 -57 37.5 -95.5t93.5 -38.5q60 0 96.5 37t36.5 97q0 59 -37 97t-96 38t-95 -38t-36 -97zM448 813l93 -72l-142 -154l-76 57zM272 823l93 -66l-125 -170
l-77 58z" />
    <glyph glyph-name="uni0152" unicode="&#x152;" horiz-adv-x="1130" 
d="M1090 0h-544v33q-71 -41 -155 -41q-153 0 -257 103.5t-104 254.5t105.5 254.5t255.5 103.5q87 0 155 -39v31h535v-145h-380v-130h355v-140h-355v-140h389v-145zM391 142q97 0 155 70v272q-60 74 -155 74q-88 0 -144 -60t-56 -148t57 -148t143 -60z" />
    <glyph glyph-name="uni0153" unicode="&#x153;" horiz-adv-x="932" 
d="M802 184l87 -88q-83 -104 -214 -104q-115 0 -189 60q-75 -60 -185 -60q-119 0 -200 76t-81 193q0 120 81 195t200 75q109 0 183 -58q73 58 180 58q109 0 178.5 -66t69.5 -173q0 -28 -8 -84h-358q10 -41 47 -61t84 -20q80 0 125 57zM312 127q61 0 97 36q-15 43 -15 98
q0 54 13 94q-38 41 -106 41q-59 0 -95 -38t-36 -97q0 -61 40.5 -97.5t101.5 -36.5zM659 401q-83 0 -110 -68h213q-18 68 -103 68z" />
    <glyph glyph-name="uni0154" unicode="&#x154;" horiz-adv-x="689" 
d="M220 239v-239h-155v700h283q129 0 206 -54t77 -174q0 -66 -38 -124.5t-99 -80.5l195 -267h-187l-171 239h-111zM345 555h-125v-171h131q50 0 84.5 21t34.5 67q0 49 -34.5 66t-90.5 17zM448 974l69 -128l-240 -113l-57 99z" />
    <glyph glyph-name="uni0155" unicode="&#x155;" horiz-adv-x="362" 
d="M190 0h-145v520h145v-21q10 14 35 22.5t45 8.5q66 0 102 -45l-74 -116q-5 10 -20 15.5t-27 5.5q-46 0 -61 -54v-336zM213 833l109 -82l-132 -164l-100 70z" />
    <glyph glyph-name="uni0156" unicode="&#x156;" horiz-adv-x="689" 
d="M220 239v-239h-155v700h283q129 0 206 -54t77 -174q0 -66 -38 -124.5t-99 -80.5l195 -267h-187l-171 239h-111zM345 555h-125v-171h131q50 0 84.5 21t34.5 67q0 49 -34.5 66t-90.5 17zM247 -109l121 78q52 -35 52 -94q0 -53 -28.5 -98.5t-75.5 -72.5l-69 50q32 37 32 75
q0 25 -32 62z" />
    <glyph glyph-name="uni0157" unicode="&#x157;" horiz-adv-x="362" 
d="M190 0h-145v520h145v-21q10 14 35 22.5t45 8.5q66 0 102 -45l-74 -116q-5 10 -20 15.5t-27 5.5q-46 0 -61 -54v-336zM60 -109l121 78q52 -35 52 -94q0 -53 -28.5 -98.5t-75.5 -72.5l-69 50q32 37 32 75q0 25 -32 62z" />
    <glyph glyph-name="uni0158" unicode="&#x158;" horiz-adv-x="689" 
d="M220 239v-239h-155v700h283q129 0 206 -54t77 -174q0 -66 -38 -124.5t-99 -80.5l195 -267h-187l-171 239h-111zM345 555h-125v-171h131q50 0 84.5 21t34.5 67q0 49 -34.5 66t-90.5 17zM319 743h-4l-184 117l58 85l128 -76l128 76l52 -83z" />
    <glyph glyph-name="uni0159" unicode="&#x159;" horiz-adv-x="362" 
d="M190 0h-145v520h145v-21q10 14 35 22.5t45 8.5q66 0 102 -45l-74 -116q-5 10 -20 15.5t-27 5.5q-46 0 -61 -54v-336zM188 598h-4l-165 136l70 88l98 -81l100 79l67 -87z" />
    <glyph glyph-name="uni015A" unicode="&#x15a;" horiz-adv-x="619" 
d="M429 194q0 33 -46 58q-21 10 -103 34q-81 23 -117 40q-124 57 -124 177q0 65 45 118.5t110 75.5q54 19 116 19q83 0 155 -33t119 -96l-104 -100q-74 84 -176 84q-105 0 -105 -66q0 -37 57 -54q29 -11 96 -29q41 -11 70 -21t63 -28.5t55 -39.5t35 -54t14 -73
q0 -102 -80 -162t-185 -60q-102 0 -191 43.5t-133 127.5l113 94q33 -55 88.5 -87.5t118.5 -32.5q41 0 75 14.5t34 50.5zM474 974l69 -128l-240 -113l-57 99z" />
    <glyph glyph-name="uni015B" unicode="&#x15b;" horiz-adv-x="496" 
d="M331 155q0 10 -13 17q-14 8 -57 21q-43 12 -72 21q-64 17 -108.5 56.5t-44.5 99.5q0 58 36 96t83.5 51.5t104.5 13.5q62 0 122.5 -24.5t93.5 -69.5l-99 -95q-53 54 -146 54q-45 0 -45 -25q0 -8 13 -14q11 -6 62 -20q39 -11 60.5 -17.5t56.5 -22.5t54 -33t34 -45t15 -63
q0 -58 -34.5 -96.5t-82 -53t-103.5 -14.5q-76 0 -146 32t-103 94l115 78q24 -31 66.5 -50t83.5 -19q54 0 54 28zM285 833l109 -82l-132 -164l-100 70z" />
    <glyph glyph-name="uni015C" unicode="&#x15c;" horiz-adv-x="619" 
d="M429 194q0 33 -46 58q-21 10 -103 34q-81 23 -117 40q-124 57 -124 177q0 65 45 118.5t110 75.5q54 19 116 19q83 0 155 -33t119 -96l-104 -100q-74 84 -176 84q-105 0 -105 -66q0 -37 57 -54q29 -11 96 -29q41 -11 70 -21t63 -28.5t55 -39.5t35 -54t14 -73
q0 -102 -80 -162t-185 -60q-102 0 -191 43.5t-133 127.5l113 94q33 -55 88.5 -87.5t118.5 -32.5q41 0 75 14.5t34 50.5zM329 945h4l184 -117l-58 -85l-128 66l-128 -66l-52 83z" />
    <glyph glyph-name="uni015D" unicode="&#x15d;" horiz-adv-x="496" 
d="M331 155q0 10 -13 17q-14 8 -57 21q-43 12 -72 21q-64 17 -108.5 56.5t-44.5 99.5q0 58 36 96t83.5 51.5t104.5 13.5q62 0 122.5 -24.5t93.5 -69.5l-99 -95q-53 54 -146 54q-45 0 -45 -25q0 -8 13 -14q11 -6 62 -20q39 -11 60.5 -17.5t56.5 -22.5t54 -33t34 -45t15 -63
q0 -58 -34.5 -96.5t-82 -53t-103.5 -14.5q-76 0 -146 32t-103 94l115 78q24 -31 66.5 -50t83.5 -19q54 0 54 28zM257 796h4l165 -136l-70 -88l-98 81l-100 -79l-67 87z" />
    <glyph glyph-name="uni015E" unicode="&#x15e;" horiz-adv-x="599" 
d="M140 -157l54 65q28 -28 81 -28q13 0 21 3q8 5 8 10q0 17 -45 17h-6v86q-70 8 -144.5 47t-108.5 94l93 112q42 -52 101 -82t124 -30q35 0 63 13t28 44q0 10 -6 23q-8 14 -31 27q-26 15 -106 38q-43 12 -72.5 22t-65.5 28.5t-57.5 40t-36.5 55t-15 75.5q0 67 43.5 115.5
t103 69t124.5 20.5q83 0 156 -30t118 -91l-104 -100q-70 76 -176 76q-22 0 -43.5 -4t-41.5 -18t-20 -36q0 -10 7 -21q5 -12 30 -26q20 -12 106 -37q136 -40 189 -84q58 -52 58 -131q0 -94 -72 -150.5t-169 -62.5v-19q116 -8 116 -90q0 -94 -139 -94q-109 0 -165 53z" />
    <glyph glyph-name="uni015F" unicode="&#x15f;" horiz-adv-x="496" 
d="M116 -161l44 69q28 -28 81 -28q13 0 21 3q8 5 8 10q0 17 -45 17h-6v84q-63 6 -120.5 39t-86.5 85l115 78q24 -31 66.5 -50t83.5 -19q54 0 54 28q0 10 -13 17q-14 8 -57 21q-43 12 -72 21q-64 17 -108.5 56.5t-44.5 99.5q0 58 36 96t83.5 51.5t104.5 13.5
q62 0 122.5 -24.5t93.5 -69.5l-99 -95q-53 54 -146 54q-45 0 -45 -25q0 -8 13 -14q11 -6 62 -20q39 -11 60.5 -17.5t56.5 -22.5t54 -33t34 -45t15 -63q0 -76 -53.5 -115.5t-133.5 -46.5v-20q46 -4 76 -26t30 -64q0 -34 -20.5 -53.5t-57.5 -32.5q-29 -8 -73 -8q-78 0 -133 49
z" />
    <glyph glyph-name="uni0160" unicode="&#x160;" horiz-adv-x="619" 
d="M429 194q0 33 -46 58q-21 10 -103 34q-81 23 -117 40q-124 57 -124 177q0 65 45 118.5t110 75.5q54 19 116 19q83 0 155 -33t119 -96l-104 -100q-74 84 -176 84q-105 0 -105 -66q0 -37 57 -54q29 -11 96 -29q41 -11 70 -21t63 -28.5t55 -39.5t35 -54t14 -73
q0 -102 -80 -162t-185 -60q-102 0 -191 43.5t-133 127.5l113 94q33 -55 88.5 -87.5t118.5 -32.5q41 0 75 14.5t34 50.5zM329 743h-4l-184 117l58 85l128 -76l128 76l52 -83z" />
    <glyph glyph-name="uni0161" unicode="&#x161;" horiz-adv-x="496" 
d="M331 155q0 10 -13 17q-14 8 -57 21q-43 12 -72 21q-64 17 -108.5 56.5t-44.5 99.5q0 58 36 96t83.5 51.5t104.5 13.5q62 0 122.5 -24.5t93.5 -69.5l-99 -95q-53 54 -146 54q-45 0 -45 -25q0 -8 13 -14q11 -6 62 -20q39 -11 60.5 -17.5t56.5 -22.5t54 -33t34 -45t15 -63
q0 -58 -34.5 -96.5t-82 -53t-103.5 -14.5q-76 0 -146 32t-103 94l115 78q24 -31 66.5 -50t83.5 -19q54 0 54 28zM250 598h-4l-165 136l70 88l98 -81l100 79l67 -87z" />
    <glyph glyph-name="uni0162" unicode="&#x162;" horiz-adv-x="604" 
d="M224 555h-224v145h604v-145h-225v-555h-40v-26q116 -8 116 -90q0 -94 -139 -94q-109 0 -165 53l54 65q28 -28 81 -28q14 0 21 3q8 5 8 10q0 17 -45 17h-6v90h-40v555z" />
    <glyph glyph-name="uni0163" unicode="&#x163;" horiz-adv-x="426" 
d="M111 -161l44 69q28 -28 81 -28q14 0 21 3q8 5 8 10q0 17 -45 17h-6v88q-64 13 -97 60.5t-33 114.5v212h-79v135h79v101h145v-101h159v-135h-159v-169q0 -87 46 -87q14 0 29 9q14 7 36 35l88 -80q-20 -38 -57.5 -63t-81.5 -33v-23q46 -4 76 -26t30 -64q0 -34 -20.5 -53.5
t-57.5 -32.5q-29 -8 -73 -8q-78 0 -133 49z" />
    <glyph glyph-name="uni0164" unicode="&#x164;" horiz-adv-x="604" 
d="M224 555h-224v145h604v-145h-225v-555h-155v555zM307 743h-4l-184 117l58 85l128 -76l128 76l52 -83z" />
    <glyph glyph-name="uni0165" unicode="&#x165;" horiz-adv-x="426" 
d="M86 385h-81v135h81v101h143v-405q0 -87 46 -87q14 0 29 9q14 7 36 35l88 -80q-23 -45 -71.5 -72t-101.5 -27q-79 0 -124 49.5t-45 129.5v212zM288 701h154q6 -8 11 -30q3 -19 3 -40q0 -105 -123 -185l-63 55q44 44 44 106q0 61 -26 94z" />
    <glyph glyph-name="uni016A" unicode="&#x16a;" horiz-adv-x="720" 
d="M510 700h155v-400q0 -139 -80.5 -223t-216.5 -84q-141 0 -227 87.5t-86 225.5v394h155v-376q0 -81 40 -133.5t118 -52.5q142 0 142 182v380zM517 770h-314v120h314v-120z" />
    <glyph glyph-name="uni016B" unicode="&#x16b;" horiz-adv-x="570" 
d="M380 523h145v-523h-145v34q-54 -42 -122 -42q-218 0 -218 234v297h145v-286q0 -110 88 -110q69 0 107 64v332zM430 610h-294v120h294v-120z" />
    <glyph glyph-name="uni016C" unicode="&#x16c;" horiz-adv-x="720" 
d="M510 700h155v-400q0 -139 -80.5 -223t-216.5 -84q-141 0 -227 87.5t-86 225.5v394h155v-376q0 -81 40 -133.5t118 -52.5q142 0 142 182v380zM159 863l64 77q59 -60 143 -60q85 0 140 60l55 -78q-29 -48 -83.5 -80t-111.5 -32q-58 0 -117.5 32t-89.5 81z" />
    <glyph glyph-name="uni016D" unicode="&#x16d;" horiz-adv-x="570" 
d="M380 523h145v-523h-145v34q-54 -42 -122 -42q-218 0 -218 234v297h145v-286q0 -110 88 -110q69 0 107 64v332zM117 707l66 75q46 -52 105 -52q66 0 110 50l51 -72q-66 -98 -167 -98q-34 0 -66 13q-62 21 -99 84z" />
    <glyph glyph-name="uni016E" unicode="&#x16e;" horiz-adv-x="720" 
d="M510 700h155v-400q0 -139 -80.5 -223t-216.5 -84q-141 0 -227 87.5t-86 225.5v394h155v-376q0 -81 40 -133.5t118 -52.5q142 0 142 182v380zM203 849q0 61 45 89.5t110 28.5q67 0 113.5 -28t46.5 -90q0 -61 -47.5 -91t-112.5 -30q-63 0 -109 31t-46 90zM313 849
q0 -20 13 -30.5t34 -10.5t34.5 10.5t13.5 30.5q0 38 -48 38q-20 0 -34 -9q-13 -10 -13 -29z" />
    <glyph glyph-name="uni016F" unicode="&#x16f;" horiz-adv-x="570" 
d="M380 523h145v-523h-145v34q-54 -42 -122 -42q-218 0 -218 234v297h145v-286q0 -110 88 -110q69 0 107 64v332zM145 701q0 55 41 92t96 37q58 0 98.5 -36.5t40.5 -92.5q0 -55 -41.5 -91t-97.5 -36q-55 0 -96 36.5t-41 90.5zM240 703q0 -20 12 -32t32 -12q19 0 31 12
q11 13 11 32q0 18 -11 31q-13 11 -31 11q-19 0 -32 -11q-12 -12 -12 -31z" />
    <glyph glyph-name="uni0170" unicode="&#x170;" horiz-adv-x="720" 
d="M510 700h155v-400q0 -139 -80.5 -223t-216.5 -84q-141 0 -227 87.5t-86 225.5v394h155v-376q0 -81 40 -133.5t118 -52.5q142 0 142 182v380zM534 935l106 -94l-204 -113l-61 63zM290 935l130 -65l-167 -142l-64 58z" />
    <glyph glyph-name="uni0171" unicode="&#x171;" horiz-adv-x="570" 
d="M380 523h145v-523h-145v34q-54 -42 -122 -42q-218 0 -218 234v297h145v-286q0 -110 88 -110q69 0 107 64v332zM419 813l93 -72l-142 -154l-76 57zM243 823l93 -66l-125 -170l-77 58z" />
    <glyph glyph-name="uni0172" unicode="&#x172;" horiz-adv-x="720" 
d="M510 700h155v-400q0 -108 -51.5 -187t-150.5 -107q-18 -21 -18 -46q0 -40 30 -40q20 0 40 10l45 -90q-16 -20 -52 -30t-68 -10q-34 0 -64.5 7.5t-55.5 30t-25 57.5q0 53 72 98q-140 0 -226 87.5t-86 225.5v394h155v-376q0 -77 42 -131.5t116 -54.5q50 0 83.5 27.5
t46 66.5t12.5 88v380z" />
    <glyph glyph-name="uni0173" unicode="&#x173;" horiz-adv-x="570" 
d="M494 -70l45 -90q-16 -20 -52 -30t-68 -10q-34 0 -64.5 7.5t-55.5 30t-25 57.5q0 40 31.5 67.5t74.5 40.5v31q-54 -42 -122 -42q-218 0 -218 234v297h145v-286q0 -110 88 -110q69 0 107 64v332h145v-523h-11q-27 -1 -58.5 -16t-31.5 -38q0 -12 9 -20q9 -6 21 -6
q20 0 40 10z" />
    <glyph glyph-name="uni0178" unicode="&#x178;" horiz-adv-x="700" 
d="M531 700h179l-284 -449v-251h-155v251l-281 449h185l176 -280zM142 831q0 33 25.5 54.5t59.5 21.5q32 0 57.5 -22.5t25.5 -53.5q0 -32 -25.5 -54.5t-57.5 -22.5q-27 0 -47 13q-38 21 -38 64zM391 831q0 33 26 54.5t59 21.5t57.5 -22t24.5 -54t-24.5 -54.5t-57.5 -22.5
t-59 22t-26 55z" />
    <glyph glyph-name="uni0179" unicode="&#x179;" horiz-adv-x="635" 
d="M381 555h-354v145h579v-103l-373 -452h382v-145h-605v103zM438 974l69 -128l-240 -113l-57 99z" />
    <glyph glyph-name="uni017A" unicode="&#x17a;" horiz-adv-x="514" 
d="M278 385h-243v135h459v-93l-259 -292h254v-135h-469v94zM294 833l109 -82l-132 -164l-100 70z" />
    <glyph glyph-name="uni017B" unicode="&#x17b;" horiz-adv-x="635" 
d="M381 555h-354v145h579v-103l-373 -452h382v-145h-605v103zM236 828q0 32 25 52t57 20q33 0 57 -20t24 -52q0 -33 -23.5 -53.5t-57.5 -20.5t-58 20t-24 54z" />
    <glyph glyph-name="uni017C" unicode="&#x17c;" horiz-adv-x="514" 
d="M278 385h-243v135h459v-93l-259 -292h254v-135h-469v94zM175 658q0 32 25 52t57 20q33 0 57 -20t24 -52q0 -33 -23.5 -53.5t-57.5 -20.5t-58 20t-24 54z" />
    <glyph glyph-name="uni017D" unicode="&#x17d;" horiz-adv-x="635" 
d="M381 555h-354v145h579v-103l-373 -452h382v-145h-605v103zM322 743h-4l-184 117l58 85l128 -76l128 76l52 -83z" />
    <glyph glyph-name="uni017E" unicode="&#x17e;" horiz-adv-x="514" 
d="M278 385h-243v135h459v-93l-259 -292h254v-135h-469v94zM259 598h-4l-165 136l70 88l98 -81l100 79l67 -87z" />
    <glyph glyph-name="uni018F" unicode="&#x18f;" horiz-adv-x="766" 
d="M25 306q0 60 23 124h526q-18 66 -73 99.5t-128 33.5q-59 0 -113 -22.5t-90 -66.5l-102 100q50 67 134 100.5t177 33.5q165 0 261 -96.5t96 -258.5q0 -165 -101 -263t-264 -98q-111 0 -198.5 52t-125.5 151q-22 54 -22 111zM576 285h-393q12 -75 62.5 -111.5t129.5 -36.5
q77 0 132.5 38t68.5 110z" />
    <glyph glyph-name="uni0192" unicode="&#x192;" horiz-adv-x="539" 
d="M325 465l-1 -4h132v-135h-156l-57 -319q-9 -48 -21 -82.5t-33.5 -66.5t-56 -49t-81.5 -17q-80 0 -135 58l50 112q35 -35 75 -35q41 0 55 68l61 331h-123v135h147l4 26q35 222 221 222q86 0 133 -41l-53 -116q-34 22 -72 22q-18 0 -32.5 -7t-23 -15.5t-15.5 -26t-10 -28.5
t-8 -32z" />
    <glyph glyph-name="uni01DD" unicode="&#x1dd;" horiz-adv-x="558" 
d="M130 339l-87 88q83 104 237 104q116 0 187 -77t71 -192q0 -124 -74 -197t-196 -73q-108 0 -178 66.5t-70 172.5q0 28 8 84h358q-10 37 -40.5 59t-69.5 22q-100 0 -146 -57zM273 122q83 0 110 68h-213q18 -68 103 -68z" />
    <glyph glyph-name="uni0218" unicode="&#x218;" horiz-adv-x="619" 
d="M429 194q0 33 -46 58q-21 10 -103 34q-81 23 -117 40q-124 57 -124 177q0 65 45 118.5t110 75.5q54 19 116 19q83 0 155 -33t119 -96l-104 -100q-74 84 -176 84q-105 0 -105 -66q0 -37 57 -54q29 -11 96 -29q41 -11 70 -21t63 -28.5t55 -39.5t35 -54t14 -73
q0 -102 -80 -162t-185 -60q-102 0 -191 43.5t-133 127.5l113 94q33 -55 88.5 -87.5t118.5 -32.5q41 0 75 14.5t34 50.5zM238 -109l121 78q52 -35 52 -94q0 -53 -28.5 -98.5t-75.5 -72.5l-69 50q32 37 32 75q0 25 -32 62z" />
    <glyph glyph-name="uni0219" unicode="&#x219;" horiz-adv-x="496" 
d="M331 155q0 10 -13 17q-14 8 -57 21q-43 12 -72 21q-64 17 -108.5 56.5t-44.5 99.5q0 58 36 96t83.5 51.5t104.5 13.5q62 0 122.5 -24.5t93.5 -69.5l-99 -95q-53 54 -146 54q-45 0 -45 -25q0 -8 13 -14q11 -6 62 -20q39 -11 60.5 -17.5t56.5 -22.5t54 -33t34 -45t15 -63
q0 -58 -34.5 -96.5t-82 -53t-103.5 -14.5q-76 0 -146 32t-103 94l115 78q24 -31 66.5 -50t83.5 -19q54 0 54 28zM162 -109l121 78q52 -35 52 -94q0 -53 -28.5 -98.5t-75.5 -72.5l-69 50q32 37 32 75q0 25 -32 62z" />
    <glyph glyph-name="uni021A" unicode="&#x21a;" horiz-adv-x="604" 
d="M224 555h-224v145h604v-145h-225v-555h-155v555zM216 -109l121 78q52 -35 52 -94q0 -53 -28.5 -98.5t-75.5 -72.5l-69 50q32 37 32 75q0 25 -32 62z" />
    <glyph glyph-name="uni021B" unicode="&#x21b;" horiz-adv-x="446" 
d="M104 385h-99v135h99v121h145v-121h159v-135h-159v-169q0 -18 1.5 -30.5t6 -27t16 -22t29.5 -7.5q46 0 89 34l60 -103q-62 -66 -163 -66q-86 0 -135 47t-49 132v212zM167 -109l121 78q52 -35 52 -94q0 -53 -28.5 -98.5t-75.5 -72.5l-69 50q32 37 32 75q0 25 -32 62z" />
    <glyph glyph-name="uni0237" unicode="&#x237;" horiz-adv-x="263" 
d="M61 520h145v-518q0 -97 -44.5 -154t-138.5 -57q-137 0 -187 120l127 49q16 -34 47 -34q51 0 51 79v515z" />
    <glyph glyph-name="uni0259" unicode="&#x259;" horiz-adv-x="558" 
d="M130 339l-87 88q83 104 237 104q116 0 187 -77t71 -192q0 -124 -74 -197t-196 -73q-108 0 -178 66.5t-70 172.5q0 28 8 84h358q-10 37 -40.5 59t-69.5 22q-100 0 -146 -57zM273 122q83 0 110 68h-213q18 -68 103 -68z" />
    <glyph glyph-name="uni02BC" unicode="&#x2bc;" horiz-adv-x="216" 
d="M42 665l122 76q52 -42 52 -110q0 -105 -123 -185l-63 55q20 19 33 43q11 24 11 43q0 34 -32 78z" />
    <glyph glyph-name="uni02C6" unicode="&#x2c6;" horiz-adv-x="467" 
d="M298 796h4l165 -136l-70 -88l-98 81l-100 -79l-67 87z" />
    <glyph glyph-name="uni02C7" unicode="&#x2c7;" horiz-adv-x="464" 
d="M298 598h-4l-165 136l70 88l98 -81l100 79l67 -87z" />
    <glyph glyph-name="uni02D8" unicode="&#x2d8;" horiz-adv-x="471" 
d="M139 707l66 75q46 -52 105 -52q66 0 110 50l51 -72q-66 -98 -167 -98q-34 0 -66 13q-62 21 -99 84z" />
    <glyph glyph-name="uni02D9" unicode="&#x2d9;" horiz-adv-x="250" 
d="M50 658q0 32 25 52t57 20q33 0 57 -20t24 -52q0 -33 -23.5 -53.5t-57.5 -20.5t-58 20t-24 54z" />
    <glyph glyph-name="uni02DA" unicode="&#x2da;" horiz-adv-x="443" 
d="M167 701q0 55 41 92t96 37q58 0 98.5 -36.5t40.5 -92.5q0 -55 -41.5 -91t-97.5 -36q-55 0 -96 36.5t-41 90.5zM262 703q0 -20 12 -32t32 -12q19 0 31 12q11 13 11 32q0 18 -11 31q-13 11 -31 11q-19 0 -32 -11q-12 -12 -12 -31z" />
    <glyph glyph-name="uni02DB" unicode="&#x2db;" horiz-adv-x="395" 
d="M350 -70l45 -90q-16 -20 -52 -30t-68 -10q-34 0 -64.5 7.5t-55.5 30t-25 57.5q0 37 26.5 63.5t68 39.5t80 19t74.5 6v-23q-29 0 -64 -14.5t-35 -39.5q0 -12 9 -20q9 -6 21 -6q20 0 40 10z" />
    <glyph glyph-name="uni02DC" unicode="&#x2dc;" horiz-adv-x="470" 
d="M165 599l-60 67q56 78 132 78q24 0 61 -19q38 -20 57 -20q36 0 66 27l49 -75q-24 -30 -58.5 -51t-68.5 -21q-21 0 -59 20q-37 19 -60 19q-28 0 -59 -25z" />
    <glyph glyph-name="uni02DD" unicode="&#x2dd;" horiz-adv-x="544" 
d="M451 813l93 -72l-142 -154l-76 57zM275 823l93 -66l-125 -170l-77 58z" />
    <glyph glyph-name="uni0300" unicode="&#x300;" horiz-adv-x="0" 
d="M-183 656l-86 -69l-147 160l114 86z" />
    <glyph glyph-name="uni0301" unicode="&#x301;" horiz-adv-x="0" 
d="M-243 833l109 -82l-132 -164l-100 70z" />
    <glyph glyph-name="uni0394" unicode="&#x394;" horiz-adv-x="733" 
d="M723 0h-713l303 707h101zM506 130l-142 325l-139 -325h281z" />
    <glyph glyph-name="uni0394" unicode="&#x2206;" horiz-adv-x="733" 
d="M723 0h-713l303 707h101zM506 130l-142 325l-139 -325h281z" />
    <glyph glyph-name="uni03A9" unicode="&#x3a9;" horiz-adv-x="829" 
d="M381 0h-341v150h120q-25 11 -48 54t-34 80q-15 50 -15 106q0 150 100.5 236t251.5 86q157 0 254.5 -85.5t97.5 -236.5q0 -67 -27.5 -139t-77.5 -101h127v-150h-341v150q69 23 114 87.5t45 137.5q0 33 -12 67q-24 58 -70.5 89t-109.5 31q-89 0 -140.5 -51.5t-51.5 -138.5
q0 -71 45.5 -136.5t112.5 -85.5v-150z" />
    <glyph glyph-name="uni03A9" unicode="&#x2126;" horiz-adv-x="829" 
d="M381 0h-341v150h120q-25 11 -48 54t-34 80q-15 50 -15 106q0 150 100.5 236t251.5 86q157 0 254.5 -85.5t97.5 -236.5q0 -67 -27.5 -139t-77.5 -101h127v-150h-341v150q69 23 114 87.5t45 137.5q0 33 -12 67q-24 58 -70.5 89t-109.5 31q-89 0 -140.5 -51.5t-51.5 -138.5
q0 -71 45.5 -136.5t112.5 -85.5v-150z" />
    <glyph glyph-name="uni03C0" unicode="&#x3c0;" horiz-adv-x="645" 
d="M123 385h-85v135h563v-135h-75v-221q0 -43 29 -43q5 0 14 3q7 1 31 16l35 -105q-57 -49 -137 -49q-117 0 -117 164v235h-112v-60q0 -32 -0.5 -50.5t-2.5 -53t-6.5 -56.5t-13.5 -51.5t-22 -48.5t-33 -36.5t-46 -26.5q-44 -16 -112 -16l-13 139q47 2 65.5 21t29.5 67
q5 29 7 89z" />
    <glyph glyph-name="uni0401" unicode="&#x401;" horiz-adv-x="649" 
d="M609 0h-544v700h535v-145h-380v-130h355v-140h-355v-140h389v-145zM114 831q0 33 25.5 54.5t59.5 21.5q32 0 57.5 -22.5t25.5 -53.5q0 -32 -25.5 -54.5t-57.5 -22.5q-27 0 -47 13q-38 21 -38 64zM363 831q0 33 26 54.5t59 21.5t57.5 -22t24.5 -54t-24.5 -54.5
t-57.5 -22.5t-59 22t-26 55z" />
    <glyph glyph-name="uni0402" unicode="&#x402;" horiz-adv-x="767" 
d="M581 203q0 49 -25 79.5t-73 30.5q-73 0 -109 -55v-258h-155v555h-219v145h599v-145h-225v-134q48 37 137 37q108 0 167 -62t59 -168q0 -100 -55 -168.5t-151 -68.5q-91 0 -134 63l83 104q12 -12 21 -16q9 -6 30 -6q25 0 37.5 20t12.5 47z" />
    <glyph glyph-name="uni0403" unicode="&#x403;" horiz-adv-x="590" 
d="M220 0h-155v700h525v-145h-370v-555zM448 974l69 -128l-240 -113l-57 99z" />
    <glyph glyph-name="uni0404" unicode="&#x404;" horiz-adv-x="690" 
d="M191 429h296v-145h-299q14 -72 69.5 -109.5t132.5 -37.5q106 0 169 96l121 -61q-28 -78 -108.5 -129t-166.5 -51q-167 0 -271 98t-104 260t104 260t264 98q79 0 154 -34t112 -97l-113 -83q-53 69 -163 69q-71 0 -124 -34.5t-73 -99.5z" />
    <glyph glyph-name="uni0405" unicode="&#x405;" horiz-adv-x="619" 
d="M429 194q0 33 -46 58q-21 10 -103 34q-81 23 -117 40q-124 57 -124 177q0 65 45 118.5t110 75.5q54 19 116 19q83 0 155 -33t119 -96l-104 -100q-74 84 -176 84q-105 0 -105 -66q0 -37 57 -54q29 -11 96 -29q41 -11 70 -21t63 -28.5t55 -39.5t35 -54t14 -73
q0 -102 -80 -162t-185 -60q-102 0 -191 43.5t-133 127.5l113 94q33 -55 88.5 -87.5t118.5 -32.5q41 0 75 14.5t34 50.5z" />
    <glyph glyph-name="uni0406" unicode="&#x406;" horiz-adv-x="295" 
d="M225 0h-155v700h155v-700z" />
    <glyph glyph-name="uni0407" unicode="&#x407;" horiz-adv-x="295" 
d="M-25 806q0 30 23 51q25 20 58 20q31 0 55.5 -20.5t24.5 -50.5q0 -14 -8 -32q-10 -18 -29 -28q-20 -12 -43 -12q-33 0 -57 20t-24 52zM159 806q0 32 24.5 51.5t57.5 19.5q31 0 56 -20q23 -21 23 -51q0 -31 -23.5 -51.5t-55.5 -20.5t-57 20t-25 52zM225 0h-155v700h155
v-700z" />
    <glyph glyph-name="uni0408" unicode="&#x408;" horiz-adv-x="486" 
d="M271 700h155v-481q0 -104 -54.5 -167.5t-157.5 -63.5q-75 0 -134.5 34.5t-89.5 99.5l113 87q37 -76 97 -76q43 0 57 32.5t14 83.5v451z" />
    <glyph glyph-name="uni0409" unicode="&#x409;" horiz-adv-x="1042" 
d="M747 316h-99v-171h95q60 0 94 18.5t34 72.5q0 42 -30 62q-31 18 -94 18zM137 700h511v-239h101q283 0 283 -225q0 -63 -24.5 -110.5t-67 -74t-93 -39t-109.5 -12.5h-245v550h-205l-4 -81q-10 -230 -52 -341q-27 -73 -73.5 -102t-126.5 -29q-21 0 -40 3v144q18 -2 25 -2
q53 0 77 49q15 30 27 115q12 86 15 315z" />
    <glyph glyph-name="uni040A" unicode="&#x40a;" horiz-adv-x="1038" 
d="M651 700v-256h101q276 0 276 -217q0 -62 -23 -107.5t-63.5 -71t-90 -37t-109.5 -11.5h-246v299h-276v-299h-155v700h155v-256h276v256h155zM751 299h-100v-154h96q26 0 44 2.5t37 10t29 24t10 42.5q0 25 -9.5 41.5t-28 23t-35.5 8.5t-43 2z" />
    <glyph glyph-name="uni040B" unicode="&#x40b;" horiz-adv-x="739" 
d="M219 555h-219v145h599v-145h-225v-130q56 33 114 33q114 0 167.5 -63.5t53.5 -176.5v-218h-155v198q0 48 -21.5 81.5t-66.5 33.5q-57 0 -92 -45v-268h-155v555z" />
    <glyph glyph-name="uni040C" unicode="&#x40c;" horiz-adv-x="701" 
d="M220 0h-155v700h155v-273l269 273h202l-304 -310l324 -390h-204l-237 286l-50 -51v-235zM445 974l69 -128l-240 -113l-57 99z" />
    <glyph glyph-name="uni040E" unicode="&#x40e;" horiz-adv-x="728" 
d="M405 352l161 348h162l-254 -536q-39 -80 -82.5 -122t-117.5 -42q-86 0 -141 80l100 91q17 -26 43 -26q30 0 50 42l-326 513h192zM188 893h130q12 -51 60 -51q24 0 41.5 14t20.5 37h130q-2 -65 -60.5 -114.5t-125.5 -49.5q-82 0 -132 42.5t-64 121.5z" />
    <glyph glyph-name="uni040F" unicode="&#x40f;" horiz-adv-x="745" 
d="M297 0h-232v700h155v-555h305v555h155v-700h-233v-137h-150v137z" />
    <glyph glyph-name="uni0410" unicode="&#x410;" horiz-adv-x="721" 
d="M156 0h-160l307 700h115l307 -700h-162l-57 130h-293zM449 261l-90 209l-92 -209h182z" />
    <glyph glyph-name="uni0411" unicode="&#x411;" horiz-adv-x="665" 
d="M65 700h527v-145h-372v-114h176q114 0 179 -52.5t65 -163.5q0 -225 -291 -225h-284v700zM361 296h-141v-151h135q25 0 43.5 2.5t38.5 10t31 24.5t11 42q0 24 -10.5 39.5t-30 22t-36.5 8.5t-41 2z" />
    <glyph glyph-name="uni0412" unicode="&#x412;" horiz-adv-x="678" 
d="M370 0h-305v700h313q115 0 174 -38q68 -49 68 -141q0 -91 -68 -150q91 -43 91 -163q0 -76 -41.5 -124.5t-99.5 -66t-132 -17.5zM362 287h-142v-142h134q25 0 42.5 2t39.5 8t33.5 22t11.5 40t-10.5 39t-30.5 21.5t-36.5 8t-41.5 1.5zM352 555h-132v-128h145q37 0 65.5 13
t28.5 46q0 23 -8.5 38t-26 21t-33 8t-39.5 2z" />
    <glyph glyph-name="uni0413" unicode="&#x413;" horiz-adv-x="590" 
d="M220 0h-155v700h525v-145h-370v-555z" />
    <glyph glyph-name="uni0414" unicode="&#x414;" horiz-adv-x="751" 
d="M147 -117h-145v262h76q73 152 73 471v84h509v-555h81v-262h-145v117h-449v-117zM505 555h-206l-1 -39q-6 -240 -60 -371h267v410z" />
    <glyph glyph-name="uni0415" unicode="&#x415;" horiz-adv-x="649" 
d="M609 0h-544v700h535v-145h-380v-130h355v-140h-355v-140h389v-145z" />
    <glyph glyph-name="uni0416" unicode="&#x416;" horiz-adv-x="990" 
d="M-1 0l277 360l-280 340h190l232 -277v277h155v-279l229 279h192l-280 -325l278 -375h-184l-215 286l-20 -30v-256h-155l1 255l-19 27l-225 -282h-176z" />
    <glyph glyph-name="uni0417" unicode="&#x417;" horiz-adv-x="655" 
d="M338 -12q-232 0 -338 157l123 83q71 -95 211 -95q135 0 135 76q0 75 -146 75h-110v145h104q27 0 52.5 4t51 19.5t25.5 41.5q0 28 -22 45.5t-47.5 22.5t-53.5 5q-109 0 -178 -77l-120 81q103 141 307 141q53 0 99 -10.5t85.5 -33t62.5 -63.5t23 -97q0 -91 -72 -133
q95 -38 95 -157q0 -59 -24.5 -104.5t-66.5 -72t-91.5 -40t-104.5 -13.5z" />
    <glyph glyph-name="uni0418" unicode="&#x418;" horiz-adv-x="753" 
d="M533 427l-341 -427h-127v700h155v-429l339 429h129v-700h-155v427z" />
    <glyph glyph-name="uni0419" unicode="&#x419;" horiz-adv-x="753" 
d="M533 427l-341 -427h-127v700h155v-429l339 429h129v-700h-155v427zM193 893h130q12 -51 60 -51q24 0 41.5 14t20.5 37h130q-2 -65 -60.5 -114.5t-125.5 -49.5q-82 0 -132 42.5t-64 121.5z" />
    <glyph glyph-name="uni041A" unicode="&#x41a;" horiz-adv-x="701" 
d="M220 0h-155v700h155v-273l269 273h202l-304 -310l324 -390h-204l-237 286l-50 -51v-235z" />
    <glyph glyph-name="uni041B" unicode="&#x41b;" horiz-adv-x="727" 
d="M662 0h-155v550h-219l-4 -81q-10 -230 -52 -341q-27 -73 -73.5 -102t-126.5 -29q-21 0 -40 3v144q18 -2 25 -2q53 0 77 49q15 30 27 115q12 86 15 315l1 79h525v-700z" />
    <glyph glyph-name="uni041C" unicode="&#x41c;" horiz-adv-x="851" 
d="M220 0h-155v700h144l224 -335l213 335h140v-700h-155v420l-182 -279h-41l-188 282v-423z" />
    <glyph glyph-name="uni041D" unicode="&#x41d;" horiz-adv-x="751" 
d="M686 0h-155v280h-311v-280h-155v700h155v-275h311v275h155v-700z" />
    <glyph glyph-name="uni041E" unicode="&#x41e;" horiz-adv-x="781" 
d="M30 350q0 152 105.5 257t255.5 105q106 0 196.5 -57t131.5 -153q32 -78 32 -152q0 -151 -105 -256.5t-255 -105.5q-152 0 -256.5 105.5t-104.5 256.5zM191 350q0 -88 57 -150t143 -62q90 0 144.5 61t54.5 151q0 87 -57 149.5t-142 62.5q-88 0 -144 -62t-56 -150z" />
    <glyph glyph-name="uni041F" unicode="&#x41f;" horiz-adv-x="750" 
d="M685 0h-155v555h-310v-555h-155v700h620v-700z" />
    <glyph glyph-name="uni0420" unicode="&#x420;" horiz-adv-x="677" 
d="M220 220v-220h-155v700h290q85 0 149 -22t106 -77.5t42 -141.5q0 -83 -44 -138.5t-108.5 -78t-144.5 -22.5h-135zM359 555h-139v-190h133q138 0 138 95t-132 95z" />
    <glyph glyph-name="uni0421" unicode="&#x421;" horiz-adv-x="696" 
d="M594 231l92 -99q-45 -69 -127.5 -106.5t-170.5 -37.5q-163 0 -260.5 101t-97.5 261q0 156 104 259t258 103q84 0 163.5 -34t119.5 -99l-105 -96q-29 36 -74.5 57.5t-92.5 21.5q-95 0 -153.5 -58.5t-58.5 -153.5q0 -92 59 -152t151 -60q119 0 193 93z" />
    <glyph glyph-name="uni0422" unicode="&#x422;" horiz-adv-x="604" 
d="M224 555h-224v145h604v-145h-225v-555h-155v555z" />
    <glyph glyph-name="uni0423" unicode="&#x423;" horiz-adv-x="728" 
d="M405 352l161 348h162l-254 -536q-39 -80 -82.5 -122t-117.5 -42q-86 0 -141 80l100 91q17 -26 43 -26q30 0 50 42l-326 513h192z" />
    <glyph glyph-name="uni0424" unicode="&#x424;" horiz-adv-x="899" 
d="M527 -15h-155v81h-4q-146 0 -244.5 77.5t-98.5 216.5q0 150 97.5 222t249.5 72v61h155v-61q154 0 250.5 -74.5t96.5 -219.5q0 -142 -98.5 -218t-242.5 -76h-6v-81zM529 509h-2v-298h6q181 0 181 149q0 83 -48.5 116t-136.5 33zM185 360q0 -74 54 -111.5t130 -37.5h3v298
q-90 0 -138.5 -32.5t-48.5 -116.5z" />
    <glyph glyph-name="uni0425" unicode="&#x425;" horiz-adv-x="707" 
d="M511 700h188l-253 -345l261 -355h-189l-164 229l-165 -229h-189l262 355l-251 345h187l157 -217z" />
    <glyph glyph-name="uni0426" unicode="&#x426;" horiz-adv-x="749" 
d="M595 0h-530v700h155v-555h283v555h155v-555h81v-262h-144v117z" />
    <glyph glyph-name="uni0427" unicode="&#x427;" horiz-adv-x="709" 
d="M489 700h155v-700h-155v263q-32 -18 -81 -28.5t-90 -10.5q-126 0 -202 60t-76 180v236h156v-138q0 -92 29.5 -142.5t113.5 -50.5q36 0 79.5 11.5t70.5 30.5v289z" />
    <glyph glyph-name="uni0428" unicode="&#x428;" horiz-adv-x="949" 
d="M884 0h-819v700h155v-555h177v555h155v-555h177v555h155v-700z" />
    <glyph glyph-name="uni0429" unicode="&#x429;" horiz-adv-x="977" 
d="M822 0h-757v700h155v-555h178v555h155v-555h178v555h155v-555h81v-262h-145v117z" />
    <glyph glyph-name="uni042A" unicode="&#x42a;" horiz-adv-x="741" 
d="M153 555h-153v145h308v-232h129q294 0 294 -232q0 -66 -24 -113.5t-68 -73.5t-95.5 -37.5t-115.5 -11.5h-275v555zM435 323h-127v-178h124q30 0 51 3t43 11.5t33 27.5t11 49q0 87 -135 87z" />
    <glyph glyph-name="uni042B" unicode="&#x42b;" horiz-adv-x="900" 
d="M835 0h-155v700h155v-700zM321 323h-101v-178h99q30 0 51 3t43 11.5t33 27.5t11 49q0 87 -136 87zM65 700h155v-232h104q60 0 110.5 -12.5t93 -38.5t66.5 -72.5t24 -108.5q0 -65 -24.5 -112t-68.5 -73.5t-96 -38.5t-114 -12h-250v700z" />
    <glyph glyph-name="uni042C" unicode="&#x42c;" horiz-adv-x="657" 
d="M351 323h-130v-178h127q138 0 138 91q0 87 -135 87zM65 700h156v-232h132q62 0 112.5 -11.5t92.5 -37t65.5 -72t23.5 -111.5q0 -64 -24.5 -111.5t-68.5 -73.5t-95.5 -38.5t-113.5 -12.5h-280v700z" />
    <glyph glyph-name="uni042D" unicode="&#x42d;" horiz-adv-x="707" 
d="M517 285h-310v145h308q-18 66 -73 99.5t-128 33.5q-59 0 -113 -22.5t-90 -66.5l-102 100q50 67 134 100.5t177 33.5q165 0 261 -96.5t96 -258.5q0 -165 -101 -263t-264 -98q-95 0 -178.5 38t-133.5 112l103 88q68 -93 213 -93q77 0 132.5 38t68.5 110z" />
    <glyph glyph-name="uni042E" unicode="&#x42e;" horiz-adv-x="1014" 
d="M220 0h-155v700h155v-278h71q22 128 118.5 207t225.5 79q159 0 254 -100.5t95 -257.5q0 -153 -99.5 -255.5t-249.5 -102.5q-141 0 -234 80.5t-111 217.5h-70v-290zM443 350q0 -90 52.5 -151.5t139.5 -61.5q91 0 139.5 60t48.5 153q0 92 -49.5 152.5t-138.5 60.5
t-140.5 -62t-51.5 -151z" />
    <glyph glyph-name="uni042F" unicode="&#x42f;" horiz-adv-x="701" 
d="M636 0h-155v231h-119l-179 -231h-183l206 260q-73 22 -114.5 75t-41.5 129q0 80 44 135.5t108 78t141 22.5h293v-700zM328 376h153v179h-147q-123 0 -123 -90q0 -42 36 -65.5t81 -23.5z" />
    <glyph glyph-name="uni0430" unicode="&#x430;" horiz-adv-x="532" 
d="M117 346l-69 105q38 41 101.5 60.5t127.5 19.5q101 0 157 -57t56 -159v-315h-145v47q-22 -25 -62.5 -39t-77.5 -14q-82 0 -136 45t-54 125q0 61 38 101t88.5 55t109.5 15t94 -13q2 38 -20 56q-23 18 -64 18q-73 0 -144 -50zM235 119q33 0 64.5 16t45.5 43v24
q-35 13 -79 13q-34 0 -58 -6q-43 -14 -43 -45q0 -24 21.5 -34.5t48.5 -10.5z" />
    <glyph glyph-name="uni0431" unicode="&#x431;" horiz-adv-x="593" 
d="M506 743l25 -131q-50 -23 -127 -32q-85 -11 -103 -16q-134 -33 -147 -149q61 75 183 75q107 0 171.5 -64.5t64.5 -169.5q0 -121 -73 -193.5t-191 -72.5q-137 0 -210.5 87.5t-73.5 224.5q0 186 74.5 283.5t247.5 120.5q91 12 118 21q22 6 41 16zM175 278v-16
q0 -55 39.5 -96t93.5 -41q56 0 85.5 32.5t29.5 89.5q0 52 -30 80t-82 28q-95 0 -136 -77z" />
    <glyph glyph-name="uni0432" unicode="&#x432;" horiz-adv-x="531" 
d="M307 0h-262v520h227q35 0 63 -2.5t60 -11.5t53.5 -24t35.5 -42t14 -64q0 -22 -9 -46q-11 -25 -39 -53q30 -14 45.5 -47t15.5 -69q0 -83 -59 -122t-145 -39zM287 201h-97v-71h103q68 0 68 34q0 20 -17 29q-19 8 -57 8zM269 390h-79v-64h109q49 0 49 32q0 15 -12 24
q-13 8 -67 8z" />
    <glyph glyph-name="uni0433" unicode="&#x433;" horiz-adv-x="456" 
d="M190 0h-145v520h406v-135h-261v-385z" />
    <glyph glyph-name="uni0434" unicode="&#x434;" horiz-adv-x="603" 
d="M140 -112h-135v247h59q52 106 52 322v63h412v-385h70v-247h-135v112h-323v-112zM383 385h-134v-32q0 -49 -10 -117.5t-27 -100.5h171v250z" />
    <glyph glyph-name="uni0435" unicode="&#x435;" horiz-adv-x="558" 
d="M438 184l87 -88q-83 -104 -224 -104q-125 0 -203 74t-78 195q0 123 74.5 196.5t195.5 73.5q109 0 178.5 -66t69.5 -173q0 -28 -8 -84h-358q10 -41 47 -61t84 -20q88 0 135 57zM285 401q-83 0 -110 -68h213q-18 68 -103 68z" />
    <glyph glyph-name="uni0436" unicode="&#x436;" horiz-adv-x="765" 
d="M-7 0l194 286l-197 234h182l138 -177v177h145v-178l145 178h175l-198 -234l198 -286h-177l-123 198l-20 -24v-174h-145v173l-20 24l-125 -197h-172z" />
    <glyph glyph-name="uni0437" unicode="&#x437;" horiz-adv-x="507" 
d="M249 -12q-86 0 -146 30.5t-101 101.5l109 75q47 -77 140 -77q32 0 59 11.5t27 39.5q0 33 -60 33h-108v125h103q48 0 48 33q0 24 -21.5 34.5t-47.5 10.5q-47 0 -78 -14.5t-60 -50.5l-102 68q36 64 101 95.5t143 31.5q89 0 152 -37.5t63 -118.5q0 -57 -39 -96
q56 -40 56 -114q0 -47 -21 -83t-56.5 -56.5t-76 -31t-84.5 -10.5z" />
    <glyph glyph-name="uni0438" unicode="&#x438;" horiz-adv-x="591" 
d="M401 283l-233 -283h-123v520h145v-283l233 283h123v-520h-145v283z" />
    <glyph glyph-name="uni0439" unicode="&#x439;" horiz-adv-x="591" 
d="M401 283l-233 -283h-123v520h145v-283l233 283h123v-520h-145v283zM123 738h133q2 -53 52 -53q49 0 49 53h132q-2 -78 -52.5 -120.5t-128.5 -42.5q-82 0 -132.5 42t-52.5 121z" />
    <glyph glyph-name="uni043A" unicode="&#x43a;" horiz-adv-x="557" 
d="M190 0h-145v520h145v-186l184 186h188l-236 -231l241 -289h-184l-161 197l-32 -33v-164z" />
    <glyph glyph-name="uni043B" unicode="&#x43b;" horiz-adv-x="581" 
d="M536 0h-145v385h-141v-14q0 -42 -2 -75.5t-7.5 -81t-19 -83t-34 -68.5t-54.5 -50.5t-79 -17.5q-28 0 -52 5v130q6 -1 18 -1q36 0 52.5 22t26.5 64q14 59 14 192v113h423v-520z" />
    <glyph glyph-name="uni043C" unicode="&#x43c;" horiz-adv-x="663" 
d="M190 0h-145v520h128l162 -208l164 208h119v-520h-145v266l-137 -172l-146 175v-269z" />
    <glyph glyph-name="uni043D" unicode="&#x43d;" horiz-adv-x="579" 
d="M534 0h-145v195h-199v-195h-145v520h145v-190h199v190h145v-520z" />
    <glyph glyph-name="uni043E" unicode="&#x43e;" horiz-adv-x="604" 
d="M20 261q0 120 81 195t200 75q121 0 202 -75.5t81 -194.5q0 -120 -82 -194.5t-201 -74.5t-200 76t-81 193zM170 261q0 -57 37.5 -95.5t93.5 -38.5q60 0 96.5 37t36.5 97q0 59 -37 97t-96 38t-95 -38t-36 -97z" />
    <glyph glyph-name="uni043F" unicode="&#x43f;" horiz-adv-x="573" 
d="M528 0h-145v385h-193v-385h-145v520h483v-520z" />
    <glyph glyph-name="uni0440" unicode="&#x440;" horiz-adv-x="582" 
d="M190 -200h-145v720h145v-27q19 18 53 28t63 10q117 0 186.5 -74t69.5 -189q0 -119 -72 -197.5t-188 -78.5q-92 0 -112 26v-218zM290 396q-67 0 -100 -59v-166q12 -20 39 -32t53 -12q59 0 94.5 35.5t35.5 94.5q0 64 -30 101.5t-92 37.5z" />
    <glyph glyph-name="uni0441" unicode="&#x441;" horiz-adv-x="540" 
d="M431 195l106 -63q-34 -66 -97 -103t-138 -37q-124 0 -203 74t-79 195q0 119 78.5 194.5t196.5 75.5q78 0 143.5 -32t94.5 -98l-108 -70q-26 34 -53 49.5t-68 15.5q-60 0 -97 -37.5t-37 -97.5q0 -59 44 -96.5t104 -37.5q72 0 113 68z" />
    <glyph glyph-name="uni0442" unicode="&#x442;" horiz-adv-x="509" 
d="M181 385h-177v135h501v-135h-179v-385h-145v385z" />
    <glyph glyph-name="uni0443" unicode="&#x443;" horiz-adv-x="557" 
d="M417 520h155l-293 -720h-157l107 244l-249 476h169l151 -302z" />
    <glyph glyph-name="uni0444" unicode="&#x444;" horiz-adv-x="749" 
d="M447 -200h-145v190h-6q-126 0 -202 73t-76 196q0 120 79 195t198 75h7v201h145v-201h8q122 0 199 -75t77 -195q0 -125 -77.5 -197t-200.5 -72h-6v-190zM168 259q0 -63 32.5 -98.5t95.5 -35.5h6v269h-7q-127 0 -127 -135zM453 394h-6v-269h6q68 0 98 32.5t30 101.5
q0 90 -54 120q-31 15 -74 15z" />
    <glyph glyph-name="uni0445" unicode="&#x445;" horiz-adv-x="576" 
d="M402 520h175l-199 -252l208 -268h-180l-119 159l-123 -159h-174l208 267l-198 253h179l111 -141z" />
    <glyph glyph-name="uni0446" unicode="&#x446;" horiz-adv-x="595" 
d="M455 0h-410v520h145v-385h190v385h145v-385h65v-247h-135v112z" />
    <glyph glyph-name="uni0447" unicode="&#x447;" horiz-adv-x="550" 
d="M360 520h145v-520h-145v185q-47 -35 -120 -35q-215 0 -215 207v163h145v-107q0 -68 21 -98t83 -30q23 0 47.5 12t38.5 30v193z" />
    <glyph glyph-name="uni0448" unicode="&#x448;" horiz-adv-x="749" 
d="M704 0h-659v520h145v-385h112v385h145v-385h112v385h145v-520z" />
    <glyph glyph-name="uni0449" unicode="&#x449;" horiz-adv-x="774" 
d="M634 0h-589v520h145v-385h112v385h145v-385h112v385h145v-385h65v-247h-135v112z" />
    <glyph glyph-name="uni044A" unicode="&#x44a;" horiz-adv-x="595" 
d="M124 385h-119v135h264v-136h84q105 0 166 -46.5t61 -145.5q0 -98 -66 -145t-167 -47h-223v385zM344 249h-75v-114h75q86 0 86 56q0 29 -20 44q-22 14 -66 14z" />
    <glyph glyph-name="uni044B" unicode="&#x44b;" horiz-adv-x="703" 
d="M249 0h-204v520h145v-138h66q104 0 166 -46t62 -144q0 -97 -67.5 -144.5t-167.5 -47.5zM248 247h-58v-112h57q87 0 87 56q0 24 -14 37t-30.5 16t-41.5 3zM658 0h-145v520h145v-520z" />
    <glyph glyph-name="uni044C" unicode="&#x44c;" horiz-adv-x="517" 
d="M268 0h-223v520h145v-138h85q105 0 166 -45.5t61 -144.5q0 -98 -66.5 -145t-167.5 -47zM265 247h-75v-112h75q87 0 87 56q0 24 -14.5 37t-31 16t-41.5 3z" />
    <glyph glyph-name="uni044D" unicode="&#x44d;" horiz-adv-x="552" 
d="M381 203h-198v125h195q-16 40 -48.5 54t-81.5 14q-40 0 -78 -18t-59 -50l-104 78q92 125 258 125q122 0 194.5 -73.5t72.5 -196.5q0 -124 -77.5 -196.5t-200.5 -72.5q-79 0 -149 30t-100 92l105 75q45 -62 129 -62q115 0 142 76z" />
    <glyph glyph-name="uni044E" unicode="&#x44e;" horiz-adv-x="803" 
d="M190 0h-145v520h145v-190h65q23 95 91 148t165 53q119 0 195.5 -76.5t76.5 -193.5q0 -119 -77.5 -194t-194.5 -75q-101 0 -170 55.5t-89 154.5h-62v-202zM397 261q0 -57 29.5 -95.5t85.5 -38.5q58 0 89.5 38t31.5 96q0 59 -32 97t-89 38q-41 0 -73 -29t-38 -70
q-4 -19 -4 -36z" />
    <glyph glyph-name="uni044F" unicode="&#x44f;" horiz-adv-x="533" 
d="M268 520h220v-520h-145v157h-67l-107 -157h-167l133 182q-53 16 -79 59.5t-26 101.5q0 65 37.5 106.5t88 56t112.5 14.5zM180 337q0 -45 74 -45h89v93h-84q-79 0 -79 -48z" />
    <glyph glyph-name="uni0451" unicode="&#x451;" horiz-adv-x="558" 
d="M438 184l87 -88q-83 -104 -224 -104q-125 0 -203 74t-78 195q0 123 74.5 196.5t195.5 73.5q109 0 178.5 -66t69.5 -173q0 -28 -8 -84h-358q10 -41 47 -61t84 -20q88 0 135 57zM285 401q-83 0 -110 -68h213q-18 68 -103 68zM110 660q0 30 23.5 50t54.5 20q30 0 54.5 -20.5
t24.5 -49.5q0 -14 -8 -32q-10 -18 -30 -29t-41 -11q-33 0 -55.5 20t-22.5 52zM314 660q0 21 13 38.5t34 25.5q20 6 34 6q13 0 33 -6q20 -9 33 -26t13 -38q0 -32 -23 -52t-56 -20t-57 20t-24 52z" />
    <glyph glyph-name="uni0452" unicode="&#x452;" horiz-adv-x="649" 
d="M120 520h-120v130h120v80h145v-80h197v-130h-197v-128q51 39 128 39q113 0 169.5 -66.5t56.5 -181.5q0 -127 -59 -229t-168 -163l-86 98q87 57 125 119.5t38 161.5q0 126 -102 126q-31 0 -59 -19t-43 -48v-229h-145v520z" />
    <glyph glyph-name="uni0453" unicode="&#x453;" horiz-adv-x="456" 
d="M190 0h-145v520h406v-135h-261v-385zM297 833l109 -82l-132 -164l-100 70z" />
    <glyph glyph-name="uni0454" unicode="&#x454;" horiz-adv-x="541" 
d="M178 328h195v-125h-197q25 -76 132 -76q77 0 119 58l108 -58q-29 -65 -94.5 -100t-140.5 -35q-120 0 -197.5 75.5t-77.5 193.5q0 125 79 197.5t203 72.5q73 0 133.5 -27.5t93.5 -85.5l-111 -72q-40 50 -117 50q-97 0 -128 -68z" />
    <glyph glyph-name="uni0455" unicode="&#x455;" horiz-adv-x="496" 
d="M331 155q0 10 -13 17q-14 8 -57 21q-43 12 -72 21q-64 17 -108.5 56.5t-44.5 99.5q0 58 36 96t83.5 51.5t104.5 13.5q62 0 122.5 -24.5t93.5 -69.5l-99 -95q-53 54 -146 54q-45 0 -45 -25q0 -8 13 -14q11 -6 62 -20q39 -11 60.5 -17.5t56.5 -22.5t54 -33t34 -45t15 -63
q0 -58 -34.5 -96.5t-82 -53t-103.5 -14.5q-76 0 -146 32t-103 94l115 78q24 -31 66.5 -50t83.5 -19q54 0 54 28z" />
    <glyph glyph-name="uni0456" unicode="&#x456;" horiz-adv-x="253" 
d="M199 0h-145v520h145v-520zM45 658q0 32 25 52t57 20q33 0 57 -20t24 -52q0 -33 -23.5 -53.5t-57.5 -20.5t-58 20t-24 54z" />
    <glyph glyph-name="uni0457" unicode="&#x457;" horiz-adv-x="235" 
d="M190 0h-145v520h145v-520zM-40 657q0 30 23 51.5t53 21.5q28 0 50.5 -22t22.5 -51q0 -28 -22.5 -51.5t-50.5 -23.5q-32 0 -54 22t-22 53zM126 657q0 30 23 51.5t53 21.5q29 0 52 -22t23 -51q0 -30 -22.5 -52.5t-52.5 -22.5q-31 0 -53.5 22t-22.5 53z" />
    <glyph glyph-name="uni0458" unicode="&#x458;" horiz-adv-x="252" 
d="M55 520h145v-518q0 -97 -44.5 -154t-138.5 -57q-137 0 -187 120l127 49q16 -34 47 -34q51 0 51 79v515zM45 659q0 34 24 53t59 19q33 0 56 -20t23 -52q0 -34 -22 -54t-57 -20t-59 20t-24 54z" />
    <glyph glyph-name="uni0459" unicode="&#x459;" horiz-adv-x="823" 
d="M388 0v385h-138v-14q0 -42 -2 -75.5t-7.5 -81t-19 -83t-34 -68.5t-54.5 -50.5t-79 -17.5q-28 0 -52 5v130q6 -1 18 -1q36 0 52.5 22t26.5 64q14 59 14 192v113h420v-148h48q227 0 227 -185q0 -96 -66.5 -141.5t-166.5 -45.5h-187zM573 237h-40v-102h52q34 0 53.5 10
t19.5 41q0 28 -19 40q-20 11 -66 11z" />
    <glyph glyph-name="uni045A" unicode="&#x45a;" horiz-adv-x="821" 
d="M190 0h-145v520h145v-169h197v169h145v-169h47q106 0 166.5 -38.5t60.5 -135.5q0 -50 -19.5 -86t-54 -55t-73.5 -27.5t-86 -8.5h-186v216h-197v-216zM572 216h-40v-81h39q47 0 66 10q19 9 19 31q0 21 -19 31q-19 9 -65 9z" />
    <glyph glyph-name="uni045B" unicode="&#x45b;" horiz-adv-x="646" 
d="M120 520h-120v130h120v80h145v-80h197v-130h-197v-141q49 42 133 42q213 0 213 -239v-182h-145v174q0 55 -22.5 83.5t-76.5 28.5q-21 0 -44 -9q-44 -21 -58 -55v-222h-145v520z" />
    <glyph glyph-name="uni045C" unicode="&#x45c;" horiz-adv-x="557" 
d="M190 0h-145v520h145v-186l184 186h188l-236 -231l241 -289h-184l-161 197l-32 -33v-164zM314 833l109 -82l-132 -164l-100 70z" />
    <glyph glyph-name="uni045E" unicode="&#x45e;" horiz-adv-x="557" 
d="M417 521h155l-293 -720h-157l107 244l-249 476h169l151 -302zM103 738h133q2 -53 52 -53q49 0 49 53h132q-2 -78 -52.5 -120.5t-128.5 -42.5q-82 0 -132.5 42t-52.5 121z" />
    <glyph glyph-name="uni045F" unicode="&#x45f;" horiz-adv-x="583" 
d="M224 0h-179v520h145v-385h203v385h145v-520h-179v-130h-135v130z" />
    <glyph glyph-name="uni0462" unicode="&#x462;" horiz-adv-x="707" 
d="M115 485h-115v145h115v70h155v-70h215v-145h-215v-57h133q63 0 111 -8.5t92 -30t67.5 -65t23.5 -108.5q0 -216 -302 -216h-280v485zM401 283h-131v-138h128q71 0 105 14q33 13 33 57q0 37 -26 52t-109 15z" />
    <glyph glyph-name="uni0463" unicode="&#x463;" horiz-adv-x="587" 
d="M417 520v-130h-157v-48h85q64 0 112 -14t81.5 -53.5t33.5 -102.5q0 -48 -20.5 -83t-55.5 -53.5t-74 -27t-84 -8.5h-223v390h-110v130h110v210h145v-210h157zM335 207h-75v-72h75q47 0 68 8q19 7 19 28q0 17 -13 27q-14 9 -74 9z" />
    <glyph glyph-name="uni0472" unicode="&#x472;" horiz-adv-x="781" 
d="M30 350q0 151 105.5 254.5t255.5 103.5q153 0 256.5 -103.5t103.5 -254.5t-105 -254.5t-255 -103.5q-153 0 -257 103.5t-104 254.5zM391 142q66 0 118.5 37.5t70.5 99.5h-379q19 -61 72.5 -99t117.5 -38zM391 558q-65 0 -117.5 -36.5t-71.5 -97.5h376q-20 61 -71.5 97.5
t-115.5 36.5z" />
    <glyph glyph-name="uni0473" unicode="&#x473;" horiz-adv-x="604" 
d="M20 261q0 120 81 195t200 75q121 0 202 -75.5t81 -194.5q0 -120 -82 -194.5t-201 -74.5t-200 76t-81 193zM301 127q40 0 72.5 18t47.5 53h-237q15 -33 47 -52t70 -19zM301 396q-81 0 -117 -68h235q-17 32 -48.5 50t-69.5 18z" />
    <glyph glyph-name="uni0474" unicode="&#x474;" horiz-adv-x="769" 
d="M649 495l-222 -495h-108l-329 700h168l216 -474l141 333q28 63 76 106.5t109 43.5q49 0 99 -33l-58 -129q-12 9 -28 9q-40 -4 -64 -61z" />
    <glyph glyph-name="uni0475" unicode="&#x475;" horiz-adv-x="570" 
d="M458 306l-134 -306h-110l-239 520h163l133 -300l82 194q46 114 150 114q62 -1 107 -43l-61 -110q-10 10 -26 10q-31 0 -65 -79z" />
    <glyph glyph-name="uni0490" unicode="&#x490;" horiz-adv-x="590" 
d="M220 0h-155v700h380v115h145v-260h-370v-555z" />
    <glyph glyph-name="uni0491" unicode="&#x491;" horiz-adv-x="456" 
d="M190 0h-145v520h271v94h135v-229h-261v-385z" />
    <glyph glyph-name="uni1E9E" unicode="&#x1e9e;" horiz-adv-x="657" 
d="M356 708q134 0 209 -89q25 -33 35 -70l-120 -146q72 -12 109.5 -62.5t37.5 -124.5q0 -105 -70.5 -166t-175.5 -61q-62 0 -122 30l47 134q39 -19 66 -19q40 0 70 20.5t30 58.5q0 76 -107 76h-49v117l112 128q-27 29 -86 29q-127 0 -127 -147v-416h-155v436q0 272 296 272z
" />
    <glyph glyph-name="uni2010" unicode="&#x2010;" horiz-adv-x="424" 
d="M364 217h-304v130h304v-130z" />
    <glyph glyph-name="uni2011" unicode="&#x2011;" horiz-adv-x="424" 
d="M364 217h-304v130h304v-130z" />
    <glyph glyph-name="uni2012" unicode="&#x2012;" horiz-adv-x="616" 
d="M536 301h-456v126h456v-126z" />
    <glyph glyph-name="uni2013" unicode="&#x2013;" horiz-adv-x="616" 
d="M536 217h-456v126h456v-126z" />
    <glyph glyph-name="uni2014" unicode="&#x2014;" horiz-adv-x="796" 
d="M716 217h-636v126h636v-126z" />
    <glyph glyph-name="uni2018" unicode="&#x2018;" horiz-adv-x="251" 
d="M209 519l-122 -76q-57 65 -57 113q0 104 128 182l63 -55q-44 -41 -44 -90q0 -30 32 -74z" />
    <glyph glyph-name="uni2019" unicode="&#x2019;" horiz-adv-x="251" 
d="M42 662l122 76q57 -65 57 -113q0 -104 -128 -182l-63 55q44 41 44 90q0 30 -32 74z" />
    <glyph glyph-name="uni201A" unicode="&#x201a;" horiz-adv-x="251" 
d="M42 88l122 76q57 -64 57 -113q0 -104 -128 -182l-63 55q44 41 44 90q0 30 -32 74z" />
    <glyph glyph-name="uni201C" unicode="&#x201c;" horiz-adv-x="451" 
d="M209 519l-122 -76q-57 65 -57 113q0 104 128 182l63 -55q-44 -41 -44 -90q0 -30 32 -74zM409 519l-122 -76q-57 65 -57 113q0 104 128 182l63 -55q-44 -41 -44 -90q0 -30 32 -74z" />
    <glyph glyph-name="uni201D" unicode="&#x201d;" horiz-adv-x="451" 
d="M242 662l122 76q57 -65 57 -113q0 -104 -128 -182l-63 55q44 41 44 90q0 30 -32 74zM42 662l122 76q57 -65 57 -113q0 -104 -128 -182l-63 55q44 41 44 90q0 30 -32 74z" />
    <glyph glyph-name="uni201E" unicode="&#x201e;" horiz-adv-x="451" 
d="M242 88l122 76q57 -64 57 -113q0 -104 -128 -182l-63 55q44 41 44 90q0 30 -32 74zM42 88l122 76q57 -64 57 -113q0 -104 -128 -182l-63 55q44 41 44 90q0 30 -32 74z" />
    <glyph glyph-name="uni2020" unicode="&#x2020;" horiz-adv-x="461" 
d="M153 375h-133v145h133v180h155v-180h133v-145h-133v-463h-155v463z" />
    <glyph glyph-name="uni2021" unicode="&#x2021;" horiz-adv-x="472" 
d="M163 376h-133v145h133v179h146v-179h133v-145h-133v-114h133v-145h-133v-205h-146v205h-133v145h133v114z" />
    <glyph glyph-name="uni2022" unicode="&#x2022;" horiz-adv-x="324" 
d="M60 360q0 39 31.5 66t71.5 27t70.5 -27t30.5 -66t-31 -66t-70 -27q-20 0 -43 10q-25 9 -42.5 33t-17.5 50z" />
    <glyph glyph-name="uni2026" unicode="&#x2026;" horiz-adv-x="774" 
d="M565 75q0 32 27 53.5t59 21.5q31 0 57 -22t26 -53q0 -32 -25.5 -54.5t-57.5 -22.5q-34 0 -60 22t-26 55zM303 75q0 32 26.5 53.5t58.5 21.5q33 0 59 -23q24 -24 24 -52q0 -32 -25.5 -54.5t-57.5 -22.5q-33 0 -59 22.5t-26 54.5zM40 75q0 32 27 53.5t59 21.5q31 0 57 -22
t26 -53q0 -32 -25.5 -54.5t-57.5 -22.5q-34 0 -60 22t-26 55z" />
    <glyph glyph-name="uni2030" unicode="&#x2030;" horiz-adv-x="1368" 
d="M30 517q0 84 58.5 135t143.5 51q86 0 144 -50.5t58 -135.5q0 -82 -59 -133.5t-143 -51.5q-83 0 -142.5 52.5t-59.5 132.5zM176 517q0 -24 16 -43t40 -19q25 0 40.5 18t15.5 44t-15.5 44t-40.5 18t-40.5 -18.5t-15.5 -43.5zM268 -30l-107 75l512 685l107 -76zM503 182
q0 84 58.5 134.5t143.5 50.5q83 0 144 -51q58 -55 58 -134q0 -82 -59.5 -134t-142.5 -52q-84 0 -143 52t-59 134zM649 182q0 -24 16 -43t40 -19q25 0 40.5 18t15.5 44t-15.5 44t-40.5 18t-40.5 -18.5t-15.5 -43.5zM934 182q0 83 59 134t143 51q85 0 143.5 -50.5t58.5 -134.5
q0 -83 -59.5 -134.5t-142.5 -51.5q-84 0 -143 52t-59 134zM1080 182q0 -24 16 -43t40 -19q25 0 40.5 18t15.5 44t-15.5 44t-40.5 18t-40.5 -18.5t-15.5 -43.5z" />
    <glyph glyph-name="uni2039" unicode="&#x2039;" horiz-adv-x="348" 
d="M318 130l-101 -92l-187 222v7l187 214l100 -89l-112 -130z" />
    <glyph glyph-name="uni203A" unicode="&#x203a;" horiz-adv-x="348" 
d="M318 267v-7l-187 -222l-101 92l113 132l-112 130l100 89z" />
    <glyph glyph-name="uni2044" unicode="&#x2044;" horiz-adv-x="358" 
d="M-41 -31l-109 90l551 671l107 -86z" />
    <glyph glyph-name="uni2070" unicode="&#x2070;" horiz-adv-x="485" 
d="M40 510q0 94 55.5 154t146.5 60q94 0 148.5 -60.5t54.5 -153.5q0 -94 -54 -154t-147 -60t-148.5 61t-55.5 153zM175 510q0 -35 18 -62t51 -27q35 0 50.5 26t15.5 63q0 89 -68 89q-67 0 -67 -89z" />
    <glyph glyph-name="uni2074" unicode="&#x2074;" horiz-adv-x="449" 
d="M361 300h-125v64h-226v94l244 262h107v-241h68v-115h-68v-64zM236 560l-78 -81h78v81z" />
    <glyph glyph-name="uni2075" unicode="&#x2075;" horiz-adv-x="418" 
d="M57 456l17 264h283v-120h-179l-3 -23q17 3 50 3q68 0 110.5 -36.5t42.5 -103.5q0 -70 -54 -107.5t-127 -37.5q-121 0 -177 84l95 75q13 -16 36 -27.5t44 -11.5q48 0 48 27q0 33 -64 33q-53 0 -122 -19z" />
    <glyph glyph-name="uni2076" unicode="&#x2076;" horiz-adv-x="475" 
d="M40 499q0 104 57.5 165t158.5 61q100 0 165 -42l-53 -94q-50 21 -112 21q-21 0 -42 -6q-22 -8 -32 -22q-12 -15 -12 -31q41 38 106 38q71 0 120 -35t49 -103q0 -73 -58 -114.5t-134 -41.5q-95 0 -154 55.5t-59 148.5zM187 456q2 -21 22 -31t44 -10q57 0 57 35
q0 16 -19.5 22.5t-39.5 6.5q-43 0 -64 -23z" />
    <glyph glyph-name="uni2077" unicode="&#x2077;" horiz-adv-x="397" 
d="M218 595h-198v125h357v-96l-174 -324h-151z" />
    <glyph glyph-name="uni2078" unicode="&#x2078;" horiz-adv-x="498" 
d="M240 565h19q19 0 30 6q9 5 9 18q0 9 -8 15t-42 6q-48 0 -48 -21q0 -10 7 -17q6 -7 33 -7zM258 465h-16q-57 0 -57 -27q0 -28 64 -28q33 0 49 6q15 6 15 21q0 28 -55 28zM249 295q-31 0 -63.5 6.5t-64 20t-51.5 39.5t-20 60q0 64 55 97q-40 24 -40 85q0 62 58 92t126 30
q31 0 61 -6.5t58.5 -19.5t46.5 -38t18 -58q0 -52 -41 -83q56 -27 56 -96q0 -47 -34.5 -77.5t-76.5 -41t-88 -10.5z" />
    <glyph glyph-name="uni2079" unicode="&#x2079;" horiz-adv-x="475" 
d="M435 521q0 -104 -57.5 -165t-158.5 -61t-165 42l53 94q49 -21 112 -21q22 0 42 7q21 6 33 21q11 16 11 31q-41 -38 -106 -38q-70 0 -119.5 35.5t-49.5 102.5q0 73 58 114.5t134 41.5q96 0 154.5 -55t58.5 -149zM288 564q-2 21 -22 31t-44 10q-57 0 -57 -35q0 -15 20 -22
t39 -7q43 0 64 23z" />
    <glyph glyph-name="uni207A" unicode="&#x207a;" horiz-adv-x="439" 
d="M154 455h-104v120h104v103h130v-103h105v-120h-105v-104h-130v104z" />
    <glyph glyph-name="uni207B" unicode="&#x207b;" horiz-adv-x="426" 
d="M376 455h-326v120h326v-120z" />
    <glyph glyph-name="uni207C" unicode="&#x207c;" horiz-adv-x="408" 
d="M358 535h-308v110h308v-110zM358 386h-308v110h308v-110z" />
    <glyph glyph-name="uni207D" unicode="&#x207d;" horiz-adv-x="295" 
d="M285 265l-83 -75q-72 54 -117 126.5t-45 153.5q0 80 45 152.5t117 127.5l76 -78q-46 -35 -74.5 -90t-28.5 -112q0 -54 31.5 -109.5t78.5 -95.5z" />
    <glyph glyph-name="uni207E" unicode="&#x207e;" horiz-adv-x="292" 
d="M92 191l-78 78q103 81 103 201q0 113 -107 203l81 77q78 -60 119.5 -126.5t41.5 -153.5q0 -81 -44.5 -154t-115.5 -125z" />
    <glyph glyph-name="uni2080" unicode="&#x2080;" horiz-adv-x="485" 
d="M40 110q0 94 55.5 154t146.5 60q94 0 148.5 -60.5t54.5 -153.5q0 -94 -54 -154t-147 -60q-94 0 -149 60.5t-55 153.5zM175 110q0 -35 18 -62t51 -27q35 0 50.5 26t15.5 63q0 89 -68 89q-67 0 -67 -89z" />
    <glyph glyph-name="uni2081" unicode="&#x2081;" horiz-adv-x="330" 
d="M58 139l-48 114l161 67h99v-420h-135v270z" />
    <glyph glyph-name="uni2082" unicode="&#x2082;" horiz-adv-x="425" 
d="M125 149l-95 61q25 57 76.5 85.5t117.5 28.5q65 0 112 -32t47 -94q0 -96 -90 -153l-39 -25h141v-120h-351v101l78 45q126 72 126 119q0 39 -38 39q-62 0 -85 -55z" />
    <glyph glyph-name="uni2083" unicode="&#x2083;" horiz-adv-x="432" 
d="M114 157l-87 70q28 48 77.5 73t107.5 25q29 0 56 -4.5t54.5 -15.5t44 -33t16.5 -52q0 -62 -58 -94q67 -25 67 -96q0 -68 -56 -101.5t-128 -33.5q-133 0 -188 112l99 57q16 -49 89 -49q26 0 38 5q11 5 11 18q0 22 -54 22h-39v100h33q51 0 51 24q0 21 -38 21q-62 0 -96 -48
z" />
    <glyph glyph-name="uni2084" unicode="&#x2084;" horiz-adv-x="449" 
d="M361 -100h-125v64h-226v94l244 262h107v-241h68v-115h-68v-64zM236 160l-78 -81h78v81z" />
    <glyph glyph-name="uni2085" unicode="&#x2085;" horiz-adv-x="418" 
d="M57 56l17 264h283v-120h-179l-3 -23q16 3 50 3q68 0 110.5 -36.5t42.5 -103.5q0 -70 -54 -107.5t-127 -37.5q-121 0 -177 84l95 75q13 -16 36 -27.5t44 -11.5q48 0 48 27q0 33 -64 33q-53 0 -122 -19z" />
    <glyph glyph-name="uni2086" unicode="&#x2086;" horiz-adv-x="475" 
d="M40 99q0 104 57.5 165t158.5 61q100 0 165 -42l-53 -94q-50 21 -112 21q-21 0 -42 -6q-22 -8 -32 -22q-12 -15 -12 -31q41 38 106 38q71 0 120 -35t49 -103q0 -73 -58 -114.5t-134 -41.5q-96 0 -154.5 55.5t-58.5 148.5zM187 56q2 -21 22 -31t44 -10q57 0 57 35
q0 16 -19.5 22.5t-39.5 6.5q-43 0 -64 -23z" />
    <glyph glyph-name="uni2087" unicode="&#x2087;" horiz-adv-x="397" 
d="M218 195h-198v125h357v-96l-174 -324h-151z" />
    <glyph glyph-name="uni2088" unicode="&#x2088;" horiz-adv-x="498" 
d="M240 165h19q19 0 30 6q9 5 9 18q0 9 -8 15t-42 6q-48 0 -48 -21q0 -10 7 -17q6 -7 33 -7zM258 65h-16q-57 0 -57 -27q0 -28 64 -28q33 0 49 6q15 6 15 21q0 28 -55 28zM249 -105q-32 0 -64.5 6t-64 19.5t-51 39.5t-19.5 61q0 64 55 97q-40 24 -40 85q0 62 58 92t126 30
q31 0 61 -6.5t58.5 -19.5t46.5 -38t18 -58q0 -52 -41 -83q56 -27 56 -96q0 -36 -19.5 -62.5t-50.5 -40t-63.5 -20t-65.5 -6.5z" />
    <glyph glyph-name="uni2089" unicode="&#x2089;" horiz-adv-x="475" 
d="M435 121q0 -104 -57 -165t-159 -61q-101 0 -165 42l53 94q50 -21 112 -21q22 0 42 7q21 6 33 21q11 16 11 31q-41 -38 -106 -38q-70 0 -119.5 35.5t-49.5 102.5q0 73 58 114.5t134 41.5q96 0 154.5 -55t58.5 -149zM288 164q-2 21 -22 31t-44 10q-57 0 -57 -35
q0 -15 20 -22t39 -7q43 0 64 23z" />
    <glyph glyph-name="uni208A" unicode="&#x208a;" horiz-adv-x="439" 
d="M154 55h-104v120h104v103h130v-103h105v-120h-105v-104h-130v104z" />
    <glyph glyph-name="uni208B" unicode="&#x208b;" horiz-adv-x="426" 
d="M376 55h-326v120h326v-120z" />
    <glyph glyph-name="uni208C" unicode="&#x208c;" horiz-adv-x="408" 
d="M358 135h-308v110h308v-110zM358 -14h-308v110h308v-110z" />
    <glyph glyph-name="uni208D" unicode="&#x208d;" horiz-adv-x="295" 
d="M285 -135l-83 -75q-162 122 -162 280q0 80 45 152.5t117 127.5l76 -78q-46 -35 -74.5 -90t-28.5 -112q0 -54 31.5 -109.5t78.5 -95.5z" />
    <glyph glyph-name="uni208E" unicode="&#x208e;" horiz-adv-x="292" 
d="M92 -209l-78 78q103 81 103 201q0 113 -107 203l81 77q78 -60 119.5 -126.5t41.5 -153.5q0 -81 -44.5 -154t-115.5 -125z" />
    <glyph glyph-name="uni20AC" unicode="&#x20ac;" horiz-adv-x="696" 
d="M109 371h-89l50 124h65q40 101 126.5 157t196.5 56q131 0 198 -55l-54 -113q-58 37 -144 37q-104 0 -157 -82h291l-46 -124h-284v-42h269l-39 -123h-200q23 -40 73.5 -62t102.5 -22q29 0 68.5 11.5t61.5 26.5l41 -116q-27 -24 -79 -38t-95 -14q-120 0 -207 53t-129 161
h-106l47 123h39l-1 17z" />
    <glyph glyph-name="uni20B4" unicode="&#x20b4;" horiz-adv-x="621" 
d="M292 387h-252v120h336q6 7 6 23q0 34 -75 34q-98 0 -153 -37l-62 121q85 61 226 61q45 0 93.5 -15.5t87 -50.5t38.5 -82q0 -35 -12 -54h56v-120h-138q-13 -11 -48 -29t-56 -25h242v-120h-339q-10 -17 -10 -29q0 -48 97 -48q101 0 171 52l66 -102q-29 -45 -103.5 -70
t-140.5 -25q-63 0 -115 15t-91 56t-39 104q0 7 1 13q0 9 1 12q1 1 7 22h-46v120h127q60 26 74 32q41 16 51 22z" />
    <glyph glyph-name="uni20BD" unicode="&#x20bd;" horiz-adv-x="629" 
d="M128 287h-98v135h98v278l200 2q54 0 100 -10.5t86 -33t62.5 -63.5t22.5 -96q0 -57 -23 -99.5t-62.5 -66.5t-86 -35t-99.5 -11h-50v-42h160v-135h-160v-110h-150v110h-98v135h98v42zM333 567h-55v-145h48q118 0 118 74q0 43 -30.5 57t-80.5 14z" />
    <glyph glyph-name="uni2116" unicode="&#x2116;" horiz-adv-x="1131" 
d="M650 700v-700h-118l-324 424v-424h-148v700h118l323 -426v426h149zM688 478q0 84 53.5 134.5t137.5 50.5q85 0 138.5 -50.5t53.5 -134.5t-54 -135t-138 -51t-137.5 51t-53.5 135zM823 478q0 -26 15.5 -43.5t40.5 -17.5q27 0 42 17t15 44t-15 43.5t-42 16.5q-26 0 -41 -17
t-15 -43zM1052 121h-345v130h345v-130z" />
    <glyph glyph-name="uni2122" unicode="&#x2122;" horiz-adv-x="831" 
d="M509 337h-146v363h116l100 -115l95 115h117v-363h-146v128l-67 -80h-3l-66 81v-129zM126 573h-116v127h339v-127h-77v-236h-146v236z" />
    <glyph glyph-name="uni2202" unicode="&#x2202;" horiz-adv-x="601" 
d="M20 238q0 126 68 204t189 78q107 0 151 -61q-1 22 -16 50q-23 36 -73.5 53.5t-103.5 17.5q-12 0 -38 -2l22 134q165 0 258.5 -77t93.5 -234q0 -59 -9.5 -115.5t-32 -111t-56 -95.5t-85 -66t-115.5 -25q-109 0 -181 71t-72 179zM175 243q0 -50 27 -85t76 -35q39 0 68 27
t42 62t16 74q-12 42 -41 70.5t-70 28.5q-40 0 -71 -26t-40 -66q-7 -24 -7 -50z" />
    <glyph glyph-name="uni220F" unicode="&#x220f;" horiz-adv-x="885" 
d="M795 -200h-160v750h-385v-750h-160v900h705v-900z" />
    <glyph glyph-name="uni2211" unicode="&#x2211;" horiz-adv-x="650" 
d="M40 -88l267 338l-267 338v112h570v-150h-347l228 -300l-238 -300h357v-150h-570v112z" />
    <glyph glyph-name="uni2212" unicode="&#x2212;" horiz-adv-x="555" 
d="M525 296h-495v126h495v-126z" />
    <glyph glyph-name="uni2215" unicode="&#x2215;" horiz-adv-x="358" 
d="M-41 -31l-109 90l551 671l107 -86z" />
    <glyph glyph-name="uni221A" unicode="&#x221a;" horiz-adv-x="615" 
d="M96 351h-96v130h194l109 -233l94 452h308v-120h-199l-136 -585h-92z" />
    <glyph glyph-name="uni221E" unicode="&#x221e;" horiz-adv-x="683" 
d="M494 171q-86 0 -151 64q-61 -64 -146 -64q-73 0 -125 49.5t-52 121.5q0 75 52 123.5t127 48.5t140 -63q63 63 154 63q77 0 123.5 -48.5t46.5 -126.5q0 -74 -48 -121t-121 -47zM486 388q-30 0 -61 -42q40 -49 66 -49q15 0 24 14q8 14 8 28q0 21 -9 35q-11 14 -28 14z
M200 297q23 0 57 43q-37 48 -56 48t-29 -13q-12 -13 -12 -33t13 -32q13 -13 27 -13z" />
    <glyph glyph-name="uni222B" unicode="&#x222b;" horiz-adv-x="348" 
d="M77 -1v531q0 95 49 151.5t140 56.5q93 0 141 -61l-80 -94q-18 20 -52 20q-53 0 -53 -73v-531q0 -96 -48.5 -152t-140.5 -56q-93 0 -141 61l80 94q18 -20 52 -20q53 0 53 73z" />
    <glyph glyph-name="uni2248" unicode="&#x2248;" horiz-adv-x="570" 
d="M86 358l-56 98q27 31 65.5 52t75.5 21q43 0 106 -25q66 -26 99 -26q56 0 109 50l55 -93q-73 -73 -154 -73q-31 0 -56 7q-24 5 -73 23q-48 17 -69 17q-40 0 -102 -51zM86 168l-56 98q27 31 65.5 52t75.5 21q43 0 106 -25q66 -26 99 -26q56 0 109 50l55 -93
q-73 -73 -154 -73q-31 0 -56 7q-24 5 -73 23q-48 17 -69 17q-40 0 -102 -51z" />
    <glyph glyph-name="uni2260" unicode="&#x2260;" horiz-adv-x="555" 
d="M211 391h-171v126h219l76 204l132 -42l-60 -162h108v-126h-156l-24 -65h180v-126h-225l-85 -225l-130 49l68 176h-103v126h147z" />
    <glyph glyph-name="uni2264" unicode="&#x2264;" horiz-adv-x="453" 
d="M423 -12l-393 247v150l393 -244v-153zM423 345v-157l-393 248v61l393 243v-156l-192 -118z" />
    <glyph glyph-name="uni2265" unicode="&#x2265;" horiz-adv-x="453" 
d="M30 141l393 244v-150l-393 -247v153zM423 497v-61l-393 -248v157l192 121l-192 118v156z" />
    <glyph glyph-name="uni25CA" unicode="&#x25ca;" horiz-adv-x="498" 
d="M310 0h-123l-167 254l168 266h123l167 -255zM249 376l-78 -121l78 -120l78 130z" />
    <glyph glyph-name="uniF350" unicode="&#xf350;" 
d="M150 0h-155l261 559h110l261 -559h-157l-42 85h-235zM373 210l-63 124l-66 -124h129z" />
    <glyph glyph-name="uniF351" unicode="&#xf351;" horiz-adv-x="568" 
d="M53 560h456v-140h-306v-56h140q95 0 150.5 -43.5t55.5 -135.5q0 -185 -251 -185h-245v560zM308 224h-105v-84h100q49 0 70 10t21 34q0 23 -19 32q-21 8 -67 8z" />
    <glyph glyph-name="uniF352" unicode="&#xf352;" horiz-adv-x="588" 
d="M330 0h-277v560h285q204 0 204 -145q0 -63 -49 -116q68 -40 68 -129q0 -48 -20 -82.5t-54.5 -53t-73 -26.5t-83.5 -8zM318 218h-115v-78h109q51 0 72 9q20 9 20 29q0 22 -19 31t-67 9zM310 420h-107v-67h118q65 0 65 27q0 21 -16 31q-16 9 -60 9z" />
    <glyph glyph-name="uniF353" unicode="&#xf353;" horiz-adv-x="507" 
d="M203 0h-150v560h454v-140h-304v-420z" />
    <glyph glyph-name="uniF354" unicode="&#xf354;" horiz-adv-x="659" 
d="M140 -100h-140v240h65q60 92 60 367v53h449v-420h77v-240h-140v100h-371v-100zM424 420h-158v-15q0 -186 -46 -265h204v280z" />
    <glyph glyph-name="uniF355" unicode="&#xf355;" horiz-adv-x="554" 
d="M513 0h-460v560h453v-140h-303v-69h282v-135h-282v-76h310v-140z" />
    <glyph glyph-name="uniF356" unicode="&#xf356;" horiz-adv-x="834" 
d="M-3 0l217 305l-222 255h184l166 -191v191h150v-193l164 193h186l-224 -254l220 -306h-178l-150 216l-18 -17v-199h-150l1 197l-18 20l-158 -217h-170z" />
    <glyph glyph-name="uniF357" unicode="&#xf357;" horiz-adv-x="559" 
d="M290 -13q-101 0 -170.5 29.5t-123.5 104.5l120 79q58 -73 170 -73q21 0 40.5 3t39.5 15t20 32q0 21 -25 30q-27 8 -90 8h-69v140h90q75 0 75 41q0 37 -92 37q-84 0 -139 -55l-117 78q88 117 272 117q44 0 82.5 -8.5t72 -27t53 -52.5t19.5 -81q0 -74 -54 -108
q73 -36 73 -117q0 -98 -71.5 -145t-175.5 -47z" />
    <glyph glyph-name="uniF358" unicode="&#xf358;" horiz-adv-x="644" 
d="M441 311l-266 -311h-122v560h150v-311l264 311h124v-560h-150v311z" />
    <glyph glyph-name="uniF359" unicode="&#xf359;" horiz-adv-x="644" 
d="M441 311l-266 -311h-122v560h150v-311l264 311h124v-560h-150v311zM141 768h133q2 -53 52 -53q49 0 49 53h132q-2 -78 -52.5 -120.5t-128.5 -42.5q-82 0 -132.5 42t-52.5 121z" />
    <glyph glyph-name="uniF35A" unicode="&#xf35a;" horiz-adv-x="608" 
d="M203 0h-150v560h150v-201l205 201h195l-251 -245l266 -315h-197l-183 214l-35 -33v-181z" />
    <glyph glyph-name="uniF35B" unicode="&#xf35b;" horiz-adv-x="633" 
d="M580 0h-150v420h-158v-23q0 -52 -4.5 -100.5t-19.5 -105.5t-38.5 -99t-66.5 -70t-99 -28h-12l-32 5v144q6 -1 17 -1q55 -1 80 63q27 73 27 219v136h456v-560z" />
    <glyph glyph-name="uniF35C" unicode="&#xf35c;" horiz-adv-x="728" 
d="M203 0h-150v560h127l188 -213l181 213h126v-560h-150v306l-138 -165h-40l-144 169v-310z" />
    <glyph glyph-name="uniF35D" unicode="&#xf35d;" horiz-adv-x="640" 
d="M587 0h-150v211h-234v-211h-150v560h150v-209h234v209h150v-560z" />
    <glyph glyph-name="uniF35E" unicode="&#xf35e;" horiz-adv-x="664" 
d="M24 280q0 124 91.5 207t216.5 83q127 0 217.5 -82.5t90.5 -207.5t-91.5 -207.5t-216.5 -82.5t-216.5 83.5t-91.5 206.5zM179 280q0 -63 45 -104t108 -41q66 0 109.5 40t43.5 105q0 63 -45 104t-108 41q-64 0 -108.5 -41t-44.5 -104z" />
    <glyph glyph-name="uniF35F" unicode="&#xf35f;" horiz-adv-x="640" 
d="M587 0h-150v420h-234v-420h-150v560h534v-560z" />
    <glyph glyph-name="uniF360" unicode="&#xf360;" horiz-adv-x="586" 
d="M203 161v-161h-150v560h253q113 0 184.5 -48t71.5 -153q0 -69 -39 -115.5t-94 -64.5t-122 -18h-104zM310 420h-107v-119h102q102 0 102 59q0 60 -97 60z" />
    <glyph glyph-name="uniF361" unicode="&#xf361;" horiz-adv-x="594" 
d="M499 209l89 -96q-41 -60 -111.5 -91.5t-148.5 -31.5q-135 0 -219.5 79.5t-84.5 210.5q0 128 91 209t219 81q74 0 141.5 -28.5t103.5 -84.5l-103 -92q-21 27 -58 43.5t-72 16.5q-71 0 -119 -38t-48 -107q0 -65 47.5 -105t114.5 -40q45 0 88.5 20t69.5 54z" />
    <glyph glyph-name="uniF362" unicode="&#xf362;" horiz-adv-x="529" 
d="M189 415h-185v145h521v-145h-186v-415h-150v415z" />
    <glyph glyph-name="uniF363" unicode="&#xf363;" horiz-adv-x="630" 
d="M155 24l64 120q7 -7 21 -7q30 0 40 33l-280 390h187l166 -237l120 237h158l-214 -427q-33 -64 -72.5 -98.5t-101.5 -34.5q-51 0 -88 24z" />
    <glyph glyph-name="uniF364" unicode="&#xf364;" horiz-adv-x="800" 
d="M476 -12h-152v63h-3q-61 0 -113.5 13t-95.5 40.5t-67.5 74.5t-24.5 109q0 64 26 111t70.5 73.5t96 39t111.5 13.5v47h152v-47q63 0 115.5 -12.5t96 -39.5t68 -74t24.5 -111q0 -63 -25 -110t-68 -74t-95 -40t-112 -13h-4v-63zM477 384h-1v-192h4q145 0 145 96q0 26 -9 44
t-22 28t-34.5 15.5t-39 7t-43.5 1.5zM175 288q0 -96 147 -96h2v192q-149 0 -149 -96z" />
    <glyph glyph-name="uniF365" unicode="&#xf365;" horiz-adv-x="614" 
d="M429 560h182l-215 -276l222 -284h-184l-127 161l-128 -161h-183l223 284l-214 276h182l121 -152z" />
    <glyph glyph-name="uniF366" unicode="&#xf366;" horiz-adv-x="648" 
d="M500 0h-447v560h150v-420h210v420h150v-420h77v-240h-140v100z" />
    <glyph glyph-name="uniF367" unicode="&#xf367;" horiz-adv-x="610" 
d="M407 560h150v-560h-150v196q-58 -26 -134 -26q-106 0 -173.5 47.5t-67.5 147.5v195h150v-94q0 -29 2 -49t8 -42t18 -35t32.5 -21.5t49.5 -8.5q66 0 115 30v220z" />
    <glyph glyph-name="uniF368" unicode="&#xf368;" horiz-adv-x="794" 
d="M741 0h-688v560h150v-420h119v420h150v-420h119v420h150v-560z" />
    <glyph glyph-name="uniF369" unicode="&#xf369;" horiz-adv-x="816" 
d="M668 0h-615v560h150v-420h119v420h150v-420h119v420h150v-420h67v-240h-140v100z" />
    <glyph glyph-name="uniF36A" unicode="&#xf36a;" horiz-adv-x="639" 
d="M127 420h-127v140h277v-174h94q253 0 253 -193t-261 -193h-236v420zM369 245h-92v-105h90q54 0 79 11q23 11 23 42q0 26 -24 40q-26 12 -76 12z" />
    <glyph glyph-name="uniF36B" unicode="&#xf36b;" horiz-adv-x="777" 
d="M724 0h-151v560h151v-560zM275 245h-72v-105h70q54 0 79 11q24 11 24 42q0 52 -101 52zM53 560h150v-174h99q106 0 167.5 -46.5t61.5 -146.5q0 -52 -20.5 -90.5t-55.5 -60t-77.5 -32t-91.5 -10.5h-233v560z" />
    <glyph glyph-name="uniF36C" unicode="&#xf36c;" horiz-adv-x="570" 
d="M300 245h-97v-105h95q102 0 102 53q0 26 -24 40q-26 12 -76 12zM53 560h150v-174h99q253 0 253 -193q0 -54 -22 -93t-61 -60t-82.5 -30.5t-94.5 -9.5h-242v560z" />
    <glyph glyph-name="uniF36D" unicode="&#xf36d;" horiz-adv-x="604" 
d="M425 216h-217v140h215q-18 39 -60.5 56.5t-91.5 17.5q-108 0 -167 -68l-98 97q45 57 117.5 84t152.5 27q137 0 220.5 -77.5t83.5 -210.5q0 -136 -88 -214t-223 -78q-83 0 -156.5 33t-116.5 97l99 85q16 -21 42 -38q49 -37 135 -37q52 0 96.5 20.5t56.5 65.5z" />
    <glyph glyph-name="uniF36E" unicode="&#xf36e;" horiz-adv-x="878" 
d="M203 0h-150v560h150v-212h57q20 101 104 161.5t190 60.5q133 0 216.5 -80t83.5 -210q0 -126 -87.5 -208t-212.5 -82q-115 0 -197.5 61t-97.5 170h-56v-221zM405 280q0 -65 42 -107.5t107 -42.5q67 0 106 41t39 109q0 67 -39 108.5t-106 41.5q-66 0 -107.5 -42t-41.5 -108
z" />
    <glyph glyph-name="uniF36F" unicode="&#xf36f;" horiz-adv-x="601" 
d="M548 0h-150v174h-81l-143 -174h-176l169 202q-126 46 -126 165q0 67 39.5 112.5t94.5 63t120 17.5h253v-560zM286 314h112v106h-110q-92 0 -92 -52q0 -29 28.5 -41.5t61.5 -12.5z" />
    <glyph glyph-name="uniF371" unicode="&#xf371;" horiz-adv-x="554" 
d="M86 662q0 32 24.5 52t56.5 20q29 0 55 -21q24 -23 24 -51q0 -31 -23.5 -52t-55.5 -21q-35 0 -57 21q-24 20 -24 52zM301 662q0 14 9 31q8 18 29.5 29.5t42.5 11.5q32 0 55 -20.5t23 -51.5t-23.5 -52t-54.5 -21q-32 0 -56.5 21t-24.5 52zM513 0h-460v560h453v-140h-303
v-69h282v-135h-282v-76h310v-140z" />
    <glyph glyph-name="uniF372" unicode="&#xf372;" horiz-adv-x="659" 
d="M484 174q0 29 -21.5 45t-51.5 16q-56 0 -82 -35v-200h-150v420h-180v140h516v-140h-186v-65q38 20 109 20q91 0 144 -49t53 -137q0 -87 -49 -141.5t-133 -54.5q-66 0 -101 43l70 111q11 -14 28 -14q34 0 34 41z" />
    <glyph glyph-name="uniF373" unicode="&#xf373;" horiz-adv-x="507" 
d="M203 0h-150v560h454v-140h-304v-420zM318 853l109 -82l-132 -164l-100 70z" />
    <glyph glyph-name="uniF374" unicode="&#xf374;" horiz-adv-x="589" 
d="M180 355h236v-140h-239q25 -81 151 -81q82 0 137 75l118 -58q-24 -67 -94.5 -112t-144.5 -45q-138 0 -229 77t-91 209t91 209t223 77q67 0 133 -28.5t97 -80.5l-110 -80q-43 49 -129 49q-115 0 -149 -71z" />
    <glyph glyph-name="uniF375" unicode="&#xf375;" horiz-adv-x="537" 
d="M370 170q0 15 -13 25q-13 8 -34 15q-42 9 -85 16q-35 5 -61 11.5t-55.5 19.5t-48 30t-31 44t-12.5 62q0 59 40 101t93.5 59t110.5 17q70 0 140 -23t104 -70l-87 -98q-46 28 -84.5 39.5t-90.5 11.5q-26 0 -48.5 -8.5t-22.5 -30.5q0 -13 17 -24q14 -9 84 -20
q121 -18 177 -53q29 -18 47 -52q15 -33 15 -72q0 -46 -21.5 -82t-57 -56.5t-76.5 -31t-84 -10.5q-73 0 -152.5 26t-123.5 73l79 112q89 -71 221 -71q60 0 60 40z" />
    <glyph glyph-name="uniF376" unicode="&#xf376;" horiz-adv-x="262" 
d="M206 0h-150v560h150v-560z" />
    <glyph glyph-name="uniF377" unicode="&#xf377;" horiz-adv-x="262" 
d="M-28 646q0 31 23 49t55 18q28 0 52 -19.5t24 -47.5q0 -29 -23 -48.5t-53 -19.5q-32 0 -55 18t-23 50zM136 646q0 30 23.5 48.5t54.5 18.5q30 0 53 -18.5t23 -48.5t-23 -49t-53 -19q-32 0 -55 18.5t-23 49.5zM206 0h-150v560h150v-560z" />
    <glyph glyph-name="uniF378" unicode="&#xf378;" horiz-adv-x="413" 
d="M216 560h150v-381q0 -87 -47.5 -138t-133.5 -51q-139 0 -195 110l109 84q9 -21 30 -37.5t42 -16.5q13 0 22 5.5t13.5 12t6.5 19.5t2.5 20.5t0.5 21.5v351z" />
    <glyph glyph-name="uniF379" unicode="&#xf379;" horiz-adv-x="880" 
d="M611 0h-218v420h-120l-5 -47q-28 -257 -112 -336q-46 -43 -127 -39l-29 2l1 142q28 0 50 23.5t34.5 54.5t21.5 76t12 71.5t5 56.5l10 136h409v-183h77q245 0 245 -184q0 -52 -22 -91t-59.5 -60.5t-80.5 -31.5t-92 -10zM618 237h-75v-97h73q29 0 44.5 1.5t32.5 14t17 37.5
q0 20 -15 32q-17 12 -77 12z" />
    <glyph glyph-name="uniF37A" unicode="&#xf37a;" horiz-adv-x="891" 
d="M561 560v-195h77q238 0 238 -179q0 -186 -246 -186h-219v224h-208v-224h-150v560h150v-195h208v195h150zM637 224h-76v-84h74q40 0 56 4q30 5 30 42q0 18 -12 29q-13 9 -72 9z" />
    <glyph glyph-name="uniF37B" unicode="&#xf37b;" horiz-adv-x="630" 
d="M179 420h-180v140h516v-140h-186v-61q45 16 85 16q192 0 192 -196v-179h-150v161q0 30 -17 52t-45 22q-17 0 -35 -6q-19 -8 -30 -19v-210h-150v420z" />
    <glyph glyph-name="uniF37C" unicode="&#xf37c;" horiz-adv-x="608" 
d="M203 0h-150v560h150v-201l205 201h195l-251 -245l266 -315h-197l-183 214l-35 -33v-181zM315 853l109 -82l-132 -164l-100 70z" />
    <glyph glyph-name="uniF37E" unicode="&#xf37e;" horiz-adv-x="630" 
d="M155 24l64 120q7 -7 21 -7q30 0 40 33l-280 390h187l166 -237l120 237h158l-214 -427q-33 -64 -72.5 -98.5t-101.5 -34.5q-51 0 -88 24zM151 768h133q2 -53 52 -53q49 0 49 53h132q-2 -78 -52.5 -120.5t-128.5 -42.5q-82 0 -132.5 42t-52.5 121z" />
    <glyph glyph-name="uniF37F" unicode="&#xf37f;" horiz-adv-x="640" 
d="M247 0h-194v560h150v-420h234v420h150v-560h-194v-105h-146v105z" />
    <glyph glyph-name="uniF381" unicode="&#xf381;" horiz-adv-x="609" 
d="M92 375h-92v140h92v45h150v-45h177v-140h-177v-32h99q43 0 75 -3t67.5 -13.5t58 -28.5t37.5 -50t15 -76q0 -53 -23 -89.5t-64 -53.5t-81.5 -23t-91.5 -6h-242v375zM339 203h-97v-63h95q51 0 73 2q29 3 29 30q0 19 -13 26q-12 6 -44 6h-5q-24 -1 -38 -1z" />
    <glyph glyph-name="uniF389" unicode="&#xf389;" horiz-adv-x="664" 
d="M24 280q0 123 92 204.5t216 81.5q127 0 217.5 -81t90.5 -205q0 -125 -91.5 -205.5t-216.5 -80.5q-127 0 -217.5 81.5t-90.5 204.5zM332 139q97 0 137 72h-273q20 -35 57 -53.5t79 -18.5zM332 421q-94 0 -135 -70h269q-42 70 -134 70z" />
    <glyph glyph-name="uniF38A" unicode="&#xf38a;" horiz-adv-x="654" 
d="M554 381l-183 -381h-103l-278 560h163l167 -340l103 221q26 55 69 91t98 36q48 0 91 -30l-55 -126q-10 6 -23 6q-32 -4 -49 -37z" />
    <glyph glyph-name="uniF393" unicode="&#xf393;" horiz-adv-x="506" 
d="M203 0h-150v560h314v88h140v-228h-304v-420z" />
    <glyph glyph-name="uniF3CF" unicode="&#xf3cf;" horiz-adv-x="955" 
d="M550 560v-560h-114l-250 293v-293h-144v560h114l250 -294v294h144zM574 378q0 71 47 112.5t119 41.5q74 0 120.5 -41.5t46.5 -112.5q0 -72 -47.5 -113.5t-119.5 -41.5q-73 0 -119.5 41.5t-46.5 113.5zM704 378q0 -15 10.5 -24.5t25.5 -9.5q37 0 37 34q0 15 -10.5 23.5
t-26.5 8.5q-36 0 -36 -32zM894 72h-306v125h306v-125z" />
    <glyph glyph-name="uniF3D0" unicode="&#xf3d0;" horiz-adv-x="519" 
d="M153 768h133q2 -53 52 -53q49 0 49 53h132q-2 -78 -52.5 -120.5t-128.5 -42.5q-82 0 -132.5 42t-52.5 121z" />
    <glyph glyph-name="uniF3E4" unicode="&#xf3e4;" horiz-adv-x="0" 
d="M-283 853l109 -82l-132 -164l-100 70z" />
    <glyph glyph-name="uniF400" unicode="&#xf400;" horiz-adv-x="0" 
d="M-243 833l109 -82l-132 -164l-100 70z" />
    <glyph glyph-name="uniF401" unicode="&#xf401;" horiz-adv-x="0" 
d="M-240 974l69 -128l-240 -113l-57 99z" />
    <glyph glyph-name="uniF406" unicode="&#xf406;" horiz-adv-x="575" 
d="M173 863l64 77q59 -60 143 -60q85 0 140 60l55 -78q-29 -48 -83.5 -80t-111.5 -32q-58 0 -117.5 32t-89.5 81z" />
    <glyph glyph-name="uniF407" unicode="&#xf407;" horiz-adv-x="527" 
d="M224 -157l54 65q28 -28 81 -28q13 0 21 3q8 5 8 10q0 17 -45 17h-6v90h75v-26q116 -8 116 -90q0 -94 -139 -94q-109 0 -165 53z" />
    <glyph glyph-name="uniF408" unicode="&#xf408;" horiz-adv-x="569" 
d="M381 945h4l184 -117l-58 -85l-128 66l-128 -66l-52 83z" />
    <glyph glyph-name="uniF409" unicode="&#xf409;" horiz-adv-x="460" 
d="M287 -109l121 78q52 -35 52 -94q0 -53 -28.5 -98.5t-75.5 -72.5l-69 50q32 37 32 75q0 25 -32 62z" />
    <glyph glyph-name="uniF40A" unicode="&#xf40a;" horiz-adv-x="216" 
d="M42 665l122 76q52 -42 52 -110q0 -105 -123 -185l-63 55q20 19 33 43q11 24 11 43q0 34 -32 78z" />
    <glyph glyph-name="uniF40B" unicode="&#xf40b;" horiz-adv-x="473" 
d="M310 828q0 32 25 52t57 20q33 0 57 -20t24 -52q0 -33 -23.5 -53.5t-57.5 -20.5t-58 20t-24 54z" />
    <glyph glyph-name="uniF40C" unicode="&#xf40c;" horiz-adv-x="546" 
d="M231 849q0 61 45 89.5t110 28.5q67 0 113.5 -28t46.5 -90q0 -61 -47.5 -91t-112.5 -30q-63 0 -109 31t-46 90zM341 849q0 -20 13 -30.5t34 -10.5t34.5 10.5t13.5 30.5q0 38 -48 38q-20 0 -34 -9q-13 -10 -13 -29z" />
    <glyph glyph-name="uniF40D" unicode="&#xf40d;" horiz-adv-x="556" 
d="M226 766l-46 94q22 28 56 45.5t69 17.5q29 0 70 -15q39 -15 65 -15q50 0 78 30l38 -94q-40 -66 -126 -66q-24 0 -66 15q-44 15 -72 15q-33 0 -66 -27z" />
    <glyph glyph-name="uniF40E" unicode="&#xf40e;" horiz-adv-x="469" 
d="M440 -70l45 -90q-16 -20 -52 -30t-68 -10q-34 0 -64.5 7.5t-55.5 30t-25 57.5q0 37 26.5 63.5t68 39.5t80 19t74.5 6v-23q-29 0 -64 -14.5t-35 -39.5q0 -12 9 -20q9 -6 21 -6q20 0 40 10z" />
    <glyph glyph-name="uniF410" unicode="&#xf410;" horiz-adv-x="0" 
d="M-241 832l-57 -99l-240 113l69 128z" />
    <glyph glyph-name="uniF416" unicode="&#xf416;" horiz-adv-x="410" 
d="M237 -109l121 78q52 -35 52 -94q0 -53 -28.5 -98.5t-75.5 -72.5l-69 50q32 37 32 75q0 25 -32 62z" />
    <glyph glyph-name="uniF418" unicode="&#xf418;" horiz-adv-x="216" 
d="M42 505l122 76q52 -42 52 -110q0 -105 -123 -185l-63 55q20 19 33 43q11 24 11 43q0 34 -32 78z" />
    <glyph glyph-name="uniF447" unicode="&#xf447;" horiz-adv-x="529" 
d="M124 -161l44 69q28 -28 81 -28q13 0 21 3q8 5 8 10q0 17 -45 17h-6v90h-38v420h-185v140h521v-140h-186v-420h-37v-26q46 -4 76 -26t30 -64q0 -34 -20.5 -53.5t-57.5 -32.5q-29 -8 -73 -8q-78 0 -133 49z" />
    <glyph glyph-name="uniF44E" unicode="&#xf44e;" horiz-adv-x="654" 
d="M20 240q0 65 23 116h430q-33 70 -153 70q-109 0 -166 -64l-99 97q43 55 116.5 81t153.5 26q137 0 221 -74.5t84 -209.5q0 -136 -89 -212t-225 -76q-93 0 -168.5 39t-108.5 118q-19 42 -19 89zM475 216h-300q25 -82 144 -82q52 0 98 19.5t58 62.5z" />
    <glyph glyph-name="uniF452" unicode="&#xf452;" horiz-adv-x="783" 
d="M203 0h-150v560h458v-140h-308v-88h288v-140h-288v-192zM726 0h-150v560h150v-560z" />
    <glyph glyph-name="uniF453" unicode="&#xf453;" horiz-adv-x="1048" 
d="M203 0h-150v560h458v-140h-308v-88h288v-140h-288v-192zM1039 0h-461v560h150v-420h311v-140z" />
    <glyph glyph-name="uniF4E0" unicode="&#xf4e0;" horiz-adv-x="620" 
d="M30 350q0 95 27 173t92 131t160 53q73 0 128.5 -31t87.5 -83t48 -113.5t16 -129.5q0 -70 -16 -132t-48 -113.5t-87 -81.5t-127 -30q-74 0 -130 30.5t-88 83t-47.5 113.5t-15.5 130zM190 350q0 -26 2.5 -51.5t11 -54.5t21 -50.5t35 -36t51.5 -14.5q118 0 118 207t-120 207
q-35 0 -60.5 -21t-37 -55t-16.5 -66t-5 -65z" />
    <glyph glyph-name="uniF4E1" unicode="&#xf4e1;" horiz-adv-x="620" 
d="M554 0h-493v145h207v371l-125 -57l-53 126l230 115h98v-555h136v-145z" />
    <glyph glyph-name="uniF4E2" unicode="&#xf4e2;" horiz-adv-x="620" 
d="M155 445l-135 51q26 100 105 155.5t183 55.5q115 0 185.5 -60.5t70.5 -171.5q0 -51 -17 -96t-49.5 -82t-66.5 -64.5t-81 -57.5l-47 -30h268v-145h-541v113l83 58q65 44 159 112q35 27 59.5 48.5t48.5 58.5t24 71q0 48 -27 72t-75 24q-104 0 -147 -112z" />
    <glyph glyph-name="uniF4E3" unicode="&#xf4e3;" horiz-adv-x="620" 
d="M162 472l-124 58q37 96 107.5 137.5t176.5 41.5q101 0 173.5 -46.5t72.5 -140.5q0 -100 -91 -143q114 -41 114 -162q0 -109 -77 -167t-190 -58q-115 0 -187.5 42t-110.5 143l136 61q16 -49 54.5 -75t91.5 -26q46 0 84.5 19.5t38.5 60.5q0 25 -17.5 42t-44.5 24
q-30 5 -51 5h-102v140h82q40 0 75 17t35 53q0 31 -24 49q-26 17 -76 17q-102 0 -146 -92z" />
    <glyph glyph-name="uniF4E4" unicode="&#xf4e4;" horiz-adv-x="620" 
d="M513 0h-150v122h-336v100l362 478h124v-443h87v-135h-87v-122zM363 452l-141 -195h141v195z" />
    <glyph glyph-name="uniF4E5" unicode="&#xf4e5;" horiz-adv-x="620" 
d="M169 284l-105 62l37 354h458v-145h-326l-13 -108q42 20 131 20q113 0 175.5 -62t62.5 -172q0 -119 -77.5 -180t-197.5 -61q-207 0 -294 179l140 62q17 -40 61 -65.5t89 -25.5q50 0 84.5 20.5t34.5 67.5q0 97 -121 97q-45 0 -71.5 -8.5t-67.5 -34.5z" />
    <glyph glyph-name="uniF4E6" unicode="&#xf4e6;" horiz-adv-x="620" 
d="M31 331q0 80 17.5 146.5t53.5 119.5t96.5 82.5t141.5 29.5q74 0 128 -21t100 -72l-86 -110q-36 32 -66.5 45t-75.5 13q-78 0 -116 -45.5t-38 -125.5q34 48 77.5 68t104.5 20q109 0 170 -61.5t61 -167.5q0 -116 -74 -188.5t-189 -72.5q-151 0 -228 92.5t-77 247.5z
M210 250q2 -49 33 -81.5t80 -32.5q51 0 83.5 28.5t32.5 78.5q0 48 -29 73t-78 25q-44 0 -77 -24.5t-45 -66.5z" />
    <glyph glyph-name="uniF4E7" unicode="&#xf4e7;" horiz-adv-x="620" 
d="M401 555h-366v145h550v-97l-303 -603h-161z" />
    <glyph glyph-name="uniF4E8" unicode="&#xf4e8;" horiz-adv-x="620" 
d="M297 424h28q35 0 61.5 20t26.5 54q0 70 -104 70q-40 0 -71 -16t-31 -53q0 -35 27 -55t63 -20zM323 294h-23q-43 0 -78.5 -20t-35.5 -60q0 -44 37.5 -63t86.5 -19t86.5 18t37.5 61q0 44 -32 63.5t-79 19.5zM311 -8q-53 0 -101 11t-90.5 34.5t-68 66t-25.5 98.5
q0 50 28.5 96.5t72.5 66.5q-34 17 -57 59t-23 81q0 71 40.5 118.5t97 66t125.5 18.5q71 0 127.5 -18.5t96 -65.5t39.5 -119q0 -94 -79 -136q49 -18 74.5 -62.5t25.5 -100.5q0 -57 -25 -100t-67 -67t-90 -35.5t-101 -11.5z" />
    <glyph glyph-name="uniF4E9" unicode="&#xf4e9;" horiz-adv-x="620" 
d="M605 369q0 -103 -31.5 -186t-103 -137.5t-174.5 -54.5q-73 0 -142.5 26.5t-115.5 76.5l86 110q79 -68 172 -68q69 0 111.5 41.5t42.5 109.5q-58 -68 -168 -68q-114 0 -189.5 63t-75.5 173q0 118 82.5 186t201.5 68q150 0 227 -94.5t77 -245.5zM432 430q-2 54 -35 94
t-86 40q-54 0 -94 -25.5t-40 -75.5t36 -77t86 -27q45 0 83 17t50 54z" />
    <glyph glyph-name="uniF4EC" unicode="&#xf4ec;" horiz-adv-x="620" 
d="M439 194q0 33 -46 58q-21 10 -103 34q-81 23 -117 40q-124 57 -124 177q0 79 58.5 134.5t140.5 71.5v70h149v-70q125 -24 197 -122l-104 -100q-74 84 -176 84q-105 0 -105 -66q0 -37 57 -54q29 -11 96 -29q41 -11 70 -21t63 -28.5t55 -39.5t35 -54t14 -73
q0 -84 -58.5 -141.5t-143.5 -74.5v-78h-149v80q-76 13 -139.5 55.5t-98.5 107.5l113 94q33 -55 88.5 -87.5t118.5 -32.5q41 0 75 14.5t34 50.5z" />
    <glyph glyph-name="uniF4ED" unicode="&#xf4ed;" horiz-adv-x="620" 
d="M90 371h-89l50 124h65q39 101 122 157t191 56q121 0 188 -55l-54 -113q-58 37 -134 37q-93 0 -147 -82h271l-46 -124h-264v-42h249l-39 -123h-180q25 -42 69.5 -63t96.5 -21q66 0 120 38l41 -116q-28 -24 -75.5 -38t-88.5 -14q-245 0 -326 214h-106l47 123h39l-1 17z" />
    <glyph glyph-name="uniF4EE" unicode="&#xf4ee;" horiz-adv-x="620" 
d="M461 195l106 -63q-25 -48 -67.5 -83t-94.5 -48v-201h-155v201q-98 21 -154 90t-56 170q0 97 57.5 167.5t152.5 93.5v178h155v-178q116 -28 158 -121l-108 -70q-32 42 -70 57v-256q47 15 76 63zM190 261q0 -37 23 -71.5t57 -44.5v237q-39 -13 -59.5 -46t-20.5 -75z" />
    <glyph glyph-name="uniF4EF" unicode="&#xf4ef;" horiz-adv-x="620" 
d="M138 248h-83v124h47q-27 62 -27 121q0 95 69 154.5t165 59.5q138 0 227 -98l-82 -116q-70 69 -147 69q-36 0 -56.5 -22t-20.5 -58q0 -17 6 -35q4 -19 15 -42q10 -28 13 -33h166v-124h-141v-12q0 -45 -23 -74q22 -2 75 -18q54 -17 76 -17q31 0 50.5 13.5t43.5 43.5l77 -98
q-66 -86 -168 -86q-44 0 -114 21t-107 21q-65 0 -120 -53l-69 107q54 50 106 66q22 29 22 71v15z" />
    <glyph glyph-name="uniF4FA" unicode="&#xf4fa;" horiz-adv-x="620" 
d="M231 301h-149v126h70l-162 273h187l134 -247l136 247h183l-165 -273h72v-126h-151v-65h151v-126h-151v-110h-155v110h-149v126h149v65z" />
    <glyph glyph-name="uniF4FB" unicode="&#xf4fb;" horiz-adv-x="620" 
d="M403 465l-1 -4h132v-135h-156l-57 -319q-9 -48 -21 -82.5t-33.5 -66.5t-56 -49t-81.5 -17q-80 0 -135 58l50 112q35 -35 75 -35q41 0 55 68l61 331h-123v135h147l4 26q35 222 221 222q86 0 133 -41l-53 -116q-34 22 -72 22q-18 0 -32.5 -7t-23 -15.5t-15.5 -26t-10 -28.5
t-8 -32z" />
    <glyph glyph-name="uniF4FC" unicode="&#xf4fc;" horiz-adv-x="620" 
d="M292 387h-252v120h336q6 7 6 23q0 34 -75 34q-98 0 -153 -37l-62 121q85 61 226 61q45 0 93.5 -15.5t87 -50.5t38.5 -82q0 -35 -12 -54h56v-120h-138q-13 -11 -48 -29t-56 -25h242v-120h-339q-10 -17 -10 -29q0 -48 97 -48q101 0 171 52l66 -102q-29 -45 -103.5 -70
t-140.5 -25q-63 0 -115 15t-91 56t-39 104q0 7 1 13q0 9 1 12q1 1 7 22h-46v120h127q60 26 74 32q41 16 51 22z" />
    <glyph glyph-name="uniF4FD" unicode="&#xf4fd;" horiz-adv-x="620" 
d="M128 287h-98v135h98v278l200 2q54 0 100 -10.5t86 -33t62.5 -63.5t22.5 -96q0 -57 -23 -99.5t-62.5 -66.5t-86 -35t-99.5 -11h-50v-42h160v-135h-160v-110h-150v110h-98v135h98v42zM333 567h-55v-145h48q118 0 118 74q0 43 -30.5 57t-80.5 14z" />
    <glyph glyph-name="uniF655" unicode="&#xf655;" horiz-adv-x="485" 
d="M40 210q0 94 55.5 154t146.5 60q94 0 148.5 -60.5t54.5 -153.5q0 -94 -54 -154t-147 -60t-148.5 61t-55.5 153zM175 210q0 -35 18 -62t51 -27q35 0 50.5 26t15.5 63q0 89 -68 89q-67 0 -67 -89z" />
    <glyph glyph-name="uniF656" unicode="&#xf656;" horiz-adv-x="330" 
d="M58 239l-48 114l161 67h99v-420h-135v270z" />
    <glyph glyph-name="uniF657" unicode="&#xf657;" horiz-adv-x="425" 
d="M125 249l-95 61q25 57 76.5 85.5t117.5 28.5q65 0 112 -32t47 -94q0 -96 -90 -153l-39 -25h141v-120h-351v101l78 45q126 72 126 119q0 39 -38 39q-62 0 -85 -55z" />
    <glyph glyph-name="uniF658" unicode="&#xf658;" horiz-adv-x="432" 
d="M114 257l-87 70q28 48 77.5 73t107.5 25q29 0 56 -4.5t54.5 -15.5t44 -33t16.5 -52q0 -62 -58 -94q67 -25 67 -96q0 -67 -56.5 -101t-127.5 -34q-133 0 -188 112l99 57q16 -49 89 -49q26 0 38 5q11 5 11 18q0 22 -54 22h-39v100h33q51 0 51 24q0 21 -38 21q-62 0 -96 -48
z" />
    <glyph glyph-name="uniF659" unicode="&#xf659;" horiz-adv-x="449" 
d="M361 0h-125v64h-226v94l244 262h107v-241h68v-115h-68v-64zM236 260l-78 -81h78v81z" />
    <glyph glyph-name="uniF65A" unicode="&#xf65a;" horiz-adv-x="418" 
d="M57 156l17 264h283v-120h-179l-3 -23q16 3 50 3q68 0 110.5 -36.5t42.5 -103.5q0 -70 -54 -107.5t-127 -37.5q-121 0 -177 84l95 75q13 -16 36 -27.5t44 -11.5q48 0 48 27q0 33 -64 33q-53 0 -122 -19z" />
    <glyph glyph-name="uniF65B" unicode="&#xf65b;" horiz-adv-x="475" 
d="M40 199q0 104 57.5 165t158.5 61q100 0 165 -42l-53 -94q-50 21 -112 21q-21 0 -42 -6q-22 -8 -32 -22q-12 -15 -12 -31q41 38 106 38q71 0 120 -35t49 -103q0 -73 -58 -114.5t-134 -41.5q-96 0 -154.5 55.5t-58.5 148.5zM187 156q2 -21 22 -31t44 -10q57 0 57 35
q0 16 -19.5 22.5t-39.5 6.5q-43 0 -64 -23z" />
    <glyph glyph-name="uniF65C" unicode="&#xf65c;" horiz-adv-x="397" 
d="M218 295h-198v125h357v-96l-174 -324h-151z" />
    <glyph glyph-name="uniF65D" unicode="&#xf65d;" horiz-adv-x="498" 
d="M240 265h19q19 0 30 6q9 5 9 18q0 9 -8 15t-42 6q-48 0 -48 -21q0 -10 7 -17q6 -7 33 -7zM258 165h-16q-57 0 -57 -27q0 -28 64 -28q33 0 49 6q15 6 15 21q0 28 -55 28zM249 -5q-31 0 -63.5 6.5t-64 20t-51.5 39.5t-20 60q0 64 55 97q-40 24 -40 85q0 62 58 92t126 30
q31 0 61 -6.5t58.5 -19.5t46.5 -38t18 -58q0 -52 -41 -83q56 -27 56 -96q0 -47 -34.5 -77.5t-76.5 -41t-88 -10.5z" />
    <glyph glyph-name="uniF65E" unicode="&#xf65e;" horiz-adv-x="475" 
d="M435 221q0 -104 -57.5 -165t-158.5 -61t-165 42l53 94q50 -21 112 -21q22 0 42 7q21 6 33 21q11 16 11 31q-41 -38 -106 -38q-70 0 -119.5 35.5t-49.5 102.5q0 73 58 114.5t134 41.5q96 0 154.5 -55t58.5 -149zM288 264q-2 21 -22 31t-44 10q-57 0 -57 -35q0 -15 20 -22
t39 -7q43 0 64 23z" />
    <glyph glyph-name="uniF661" unicode="&#xf661;" horiz-adv-x="485" 
d="M40 510q0 94 55.5 154t146.5 60q94 0 148.5 -60.5t54.5 -153.5q0 -94 -54 -154t-147 -60t-148.5 61t-55.5 153zM175 510q0 -35 18 -62t51 -27q35 0 50.5 26t15.5 63q0 89 -68 89q-67 0 -67 -89z" />
    <glyph glyph-name="uniF662" unicode="&#xf662;" horiz-adv-x="330" 
d="M58 539l-48 114l161 67h99v-420h-135v270z" />
    <glyph glyph-name="uniF663" unicode="&#xf663;" horiz-adv-x="425" 
d="M125 549l-95 61q25 57 76.5 85.5t117.5 28.5q65 0 112 -32t47 -94q0 -96 -90 -153l-39 -25h141v-120h-351v101l78 45q126 72 126 119q0 39 -38 39q-62 0 -85 -55z" />
    <glyph glyph-name="uniF664" unicode="&#xf664;" horiz-adv-x="432" 
d="M114 557l-87 70q28 48 77.5 73t107.5 25q29 0 56 -4.5t54.5 -15.5t44 -33t16.5 -52q0 -62 -58 -94q67 -25 67 -96q0 -67 -56.5 -101t-127.5 -34q-133 0 -188 112l99 57q16 -49 89 -49q26 0 38 5q11 5 11 18q0 22 -54 22h-39v100h33q51 0 51 24q0 21 -38 21q-62 0 -96 -48
z" />
    <glyph glyph-name="uniF665" unicode="&#xf665;" horiz-adv-x="449" 
d="M361 300h-125v64h-226v94l244 262h107v-241h68v-115h-68v-64zM236 560l-78 -81h78v81z" />
    <glyph glyph-name="uniF666" unicode="&#xf666;" horiz-adv-x="418" 
d="M57 456l17 264h283v-120h-179l-3 -23q17 3 50 3q68 0 110.5 -36.5t42.5 -103.5q0 -70 -54 -107.5t-127 -37.5q-121 0 -177 84l95 75q13 -16 36 -27.5t44 -11.5q48 0 48 27q0 33 -64 33q-53 0 -122 -19z" />
    <glyph glyph-name="uniF667" unicode="&#xf667;" horiz-adv-x="475" 
d="M40 499q0 104 57.5 165t158.5 61q100 0 165 -42l-53 -94q-50 21 -112 21q-21 0 -42 -6q-22 -8 -32 -22q-12 -15 -12 -31q41 38 106 38q71 0 120 -35t49 -103q0 -73 -58 -114.5t-134 -41.5q-95 0 -154 55.5t-59 148.5zM187 456q2 -21 22 -31t44 -10q57 0 57 35
q0 16 -19.5 22.5t-39.5 6.5q-43 0 -64 -23z" />
    <glyph glyph-name="uniF668" unicode="&#xf668;" horiz-adv-x="397" 
d="M218 595h-198v125h357v-96l-174 -324h-151z" />
    <glyph glyph-name="uniF669" unicode="&#xf669;" horiz-adv-x="498" 
d="M240 565h19q19 0 30 6q9 5 9 18q0 9 -8 15t-42 6q-48 0 -48 -21q0 -10 7 -17q6 -7 33 -7zM258 465h-16q-57 0 -57 -27q0 -28 64 -28q33 0 49 6q15 6 15 21q0 28 -55 28zM249 295q-31 0 -63.5 6.5t-64 20t-51.5 39.5t-20 60q0 64 55 97q-40 24 -40 85q0 62 58 92t126 30
q31 0 61 -6.5t58.5 -19.5t46.5 -38t18 -58q0 -52 -41 -83q56 -27 56 -96q0 -47 -34.5 -77.5t-76.5 -41t-88 -10.5z" />
    <glyph glyph-name="uniF66A" unicode="&#xf66a;" horiz-adv-x="475" 
d="M435 521q0 -104 -57.5 -165t-158.5 -61t-165 42l53 94q49 -21 112 -21q22 0 42 7q21 6 33 21q11 16 11 31q-41 -38 -106 -38q-70 0 -119.5 35.5t-49.5 102.5q0 73 58 114.5t134 41.5q96 0 154.5 -55t58.5 -149zM288 564q-2 21 -22 31t-44 10q-57 0 -57 -35q0 -15 20 -22
t39 -7q43 0 64 23z" />
    <glyph glyph-name="uniF66D" unicode="&#xf66d;" 
d="M150 0h-155l261 559h110l261 -559h-157l-42 85h-235zM373 210l-63 124l-66 -124h129zM145 707l66 75q46 -52 105 -52q66 0 110 50l51 -72q-66 -98 -167 -98q-34 0 -66 13q-62 21 -99 84z" />
    <glyph glyph-name="uniF66E" unicode="&#xf66e;" 
d="M150 0h-155l261 559h110l261 -559h-157l-42 85h-235zM373 210l-63 124l-66 -124h129zM458 630h-294v120h294v-120z" />
    <glyph glyph-name="uniF66F" unicode="&#xf66f;" 
d="M596 -70l45 -90q-16 -20 -52 -30t-68 -10q-34 0 -64.5 7.5t-55.5 30t-25 57.5q0 72 93 106l-41 84h-235l-43 -85h-155l261 559h110l261 -559h-42q-22 0 -40.5 -14.5t-18.5 -35.5q0 -13 9 -22q10 -8 21 -8q20 0 40 10zM373 210l-63 124l-66 -124h129z" />
    <glyph glyph-name="uniF671" unicode="&#xf671;" horiz-adv-x="594" 
d="M499 209l89 -96q-41 -60 -111.5 -91.5t-148.5 -31.5q-135 0 -219.5 79.5t-84.5 210.5q0 128 91 209t219 81q74 0 141.5 -28.5t103.5 -84.5l-103 -92q-21 27 -58 43.5t-72 16.5q-71 0 -119 -38t-48 -107q0 -65 47.5 -105t114.5 -40q45 0 88.5 20t69.5 54zM358 853l109 -82
l-132 -164l-100 70z" />
    <glyph glyph-name="uniF672" unicode="&#xf672;" horiz-adv-x="594" 
d="M499 209l89 -96q-41 -60 -111.5 -91.5t-148.5 -31.5q-135 0 -219.5 79.5t-84.5 210.5q0 128 91 209t219 81q74 0 141.5 -28.5t103.5 -84.5l-103 -92q-21 27 -58 43.5t-72 16.5q-71 0 -119 -38t-48 -107q0 -65 47.5 -105t114.5 -40q45 0 88.5 20t69.5 54zM318 598h-4
l-165 136l70 88l98 -81l100 79l67 -87z" />
    <glyph glyph-name="uniF673" unicode="&#xf673;" horiz-adv-x="594" 
d="M499 209l89 -96q-41 -60 -111.5 -91.5t-148.5 -31.5q-135 0 -219.5 79.5t-84.5 210.5q0 128 91 209t219 81q74 0 141.5 -28.5t103.5 -84.5l-103 -92q-21 27 -58 43.5t-72 16.5q-71 0 -119 -38t-48 -107q0 -65 47.5 -105t114.5 -40q45 0 88.5 20t69.5 54zM308 816h4
l165 -136l-70 -88l-98 81l-100 -79l-67 87z" />
    <glyph glyph-name="uniF674" unicode="&#xf674;" horiz-adv-x="594" 
d="M499 209l89 -96q-41 -60 -111.5 -91.5t-148.5 -31.5q-135 0 -219.5 79.5t-84.5 210.5q0 128 91 209t219 81q74 0 141.5 -28.5t103.5 -84.5l-103 -92q-21 27 -58 43.5t-72 16.5q-71 0 -119 -38t-48 -107q0 -65 47.5 -105t114.5 -40q45 0 88.5 20t69.5 54zM240 698
q0 32 25 52t57 20q33 0 57 -20t24 -52q0 -33 -23.5 -53.5t-57.5 -20.5t-58 20t-24 54z" />
    <glyph glyph-name="uniF675" unicode="&#xf675;" horiz-adv-x="615" 
d="M229 0h-176v560h190q74 0 134 -14.5t109.5 -45t77 -85t27.5 -128.5q0 -62 -20.5 -111.5t-54.5 -82t-81 -54t-98 -30.5t-108 -9zM242 420h-39v-280h40q193 0 193 147q0 41 -16.5 69t-46.5 41t-61 18t-70 5zM268 598h-4l-165 136l70 88l98 -81l100 79l67 -87z" />
    <glyph glyph-name="uniF676" unicode="&#xf676;" horiz-adv-x="673" 
d="M111 218h-91v124h91v218h191q73 0 133 -14.5t109.5 -45t77 -85t27.5 -128.5q0 -77 -30 -134.5t-82.5 -89.5t-114.5 -47.5t-134 -15.5h-177v218zM300 420h-39v-78h126v-124h-126v-78h40q193 0 193 147q0 41 -16.5 69t-46.5 41t-61 18t-70 5z" />
    <glyph glyph-name="uniF678" unicode="&#xf678;" horiz-adv-x="554" 
d="M513 0h-460v560h453v-140h-303v-69h282v-135h-282v-76h310v-140zM288 598h-4l-165 136l70 88l98 -81l100 79l67 -87z" />
    <glyph glyph-name="uniF679" unicode="&#xf679;" horiz-adv-x="554" 
d="M513 0h-460v560h453v-140h-303v-69h282v-135h-282v-76h310v-140zM210 698q0 32 25 52t57 20q33 0 57 -20t24 -52q0 -33 -23.5 -53.5t-57.5 -20.5t-58 20t-24 54z" />
    <glyph glyph-name="uniF67A" unicode="&#xf67a;" horiz-adv-x="554" 
d="M513 0h-460v560h453v-140h-303v-69h282v-135h-282v-76h310v-140zM436 630h-294v120h294v-120z" />
    <glyph glyph-name="uniF67C" unicode="&#xf67c;" horiz-adv-x="554" 
d="M400 0h-347v560h463v-140h-313v-69h292v-135h-292v-76h320v-140h-9q-13 -2 -23 -7q-13 -4 -22 -18q-9 -12 -9 -25t9 -22q10 -8 21 -8q20 0 40 10l45 -90q-16 -20 -52 -30t-68 -10q-34 0 -64.5 7.5t-55.5 30t-25 57.5q0 19 9 38q8 21 31.5 39t49.5 28z" />
    <glyph glyph-name="uniF67D" unicode="&#xf67d;" horiz-adv-x="616" 
d="M448 192h-146v135h290v-235q-97 -102 -243 -102q-137 0 -231 79t-94 211q0 129 90 209.5t219 80.5q71 0 141.5 -27.5t104.5 -80.5l-105 -92q-48 55 -136 55q-72 0 -115.5 -37.5t-43.5 -107.5q0 -72 48.5 -108.5t122.5 -36.5q53 0 98 24v33zM162 707l66 75q46 -52 105 -52
q66 0 110 50l51 -72q-66 -98 -167 -98q-34 0 -66 13q-62 21 -99 84z" />
    <glyph glyph-name="uniF67E" unicode="&#xf67e;" horiz-adv-x="616" 
d="M448 192h-146v135h290v-235q-97 -102 -243 -102q-137 0 -231 79t-94 211q0 129 90 209.5t219 80.5q71 0 141.5 -27.5t104.5 -80.5l-105 -92q-48 55 -136 55q-72 0 -115.5 -37.5t-43.5 -107.5q0 -72 48.5 -108.5t122.5 -36.5q53 0 98 24v33zM328 816h4l165 -136l-70 -88
l-98 81l-100 -79l-67 87z" />
    <glyph glyph-name="uniF67F" unicode="&#xf67f;" horiz-adv-x="616" 
d="M448 192h-146v135h290v-235q-97 -102 -243 -102q-137 0 -231 79t-94 211q0 129 90 209.5t219 80.5q71 0 141.5 -27.5t104.5 -80.5l-105 -92q-48 55 -136 55q-72 0 -115.5 -37.5t-43.5 -107.5q0 -72 48.5 -108.5t122.5 -36.5q53 0 98 24v33zM247 -109l121 78
q52 -35 52 -94q0 -53 -28.5 -98.5t-75.5 -72.5l-69 50q32 37 32 75q0 25 -32 62z" />
    <glyph glyph-name="uniF680" unicode="&#xf680;" horiz-adv-x="616" 
d="M448 192h-146v135h290v-235q-97 -102 -243 -102q-137 0 -231 79t-94 211q0 129 90 209.5t219 80.5q71 0 141.5 -27.5t104.5 -80.5l-105 -92q-48 55 -136 55q-72 0 -115.5 -37.5t-43.5 -107.5q0 -72 48.5 -108.5t122.5 -36.5q53 0 98 24v33zM250 698q0 32 25 52t57 20
q33 0 57 -20t24 -52q0 -33 -23.5 -53.5t-57.5 -20.5t-58 20t-24 54z" />
    <glyph glyph-name="uniF681" unicode="&#xf681;" horiz-adv-x="639" 
d="M53 396h-53v115h53v49h150v-49h234v49h150v-49h52v-115h-52v-396h-150v211h-234v-211h-150v396zM203 396v-45h234v45h-234z" />
    <glyph glyph-name="uniF682" unicode="&#xf682;" horiz-adv-x="640" 
d="M587 0h-150v211h-234v-211h-150v560h150v-209h234v209h150v-560zM319 816h4l165 -136l-70 -88l-98 81l-100 -79l-67 87z" />
    <glyph glyph-name="uniF685" unicode="&#xf685;" horiz-adv-x="262" 
d="M206 0h-150v560h150v-560zM278 630h-294v120h294v-120z" />
    <glyph glyph-name="uniF686" unicode="&#xf686;" horiz-adv-x="262" 
d="M85 0h-29v560h150v-560h-2q-22 0 -40.5 -14.5t-18.5 -35.5q0 -13 9 -22q10 -8 21 -8q20 0 40 10l45 -90q-16 -20 -52 -30t-68 -10q-34 0 -64.5 7.5t-55.5 30t-25 57.5q0 19 9 38q8 21 31.5 39t49.5 28z" />
    <glyph glyph-name="uniF688" unicode="&#xf688;" horiz-adv-x="413" 
d="M216 560h150v-381q0 -87 -47.5 -138t-133.5 -51q-139 0 -195 110l109 84q9 -21 30 -37.5t42 -16.5q13 0 22 5.5t13.5 12t6.5 19.5t2.5 20.5t0.5 21.5v351zM278 816h4l165 -136l-70 -88l-98 81l-100 -79l-67 87z" />
    <glyph glyph-name="uniF689" unicode="&#xf689;" horiz-adv-x="608" 
d="M203 0h-150v560h150v-201l205 201h195l-251 -245l266 -315h-197l-183 214l-35 -33v-181zM197 -109l121 78q52 -35 52 -94q0 -53 -28.5 -98.5t-75.5 -72.5l-69 50q32 37 32 75q0 25 -32 62z" />
    <glyph glyph-name="uniF68A" unicode="&#xf68a;" horiz-adv-x="523" 
d="M514 0h-461v560h150v-420h311v-140zM268 853l109 -82l-132 -164l-100 70z" />
    <glyph glyph-name="uniF68B" unicode="&#xf68b;" horiz-adv-x="523" 
d="M514 0h-461v560h150v-420h311v-140zM328 560h154q6 -8 11 -30q3 -19 3 -40q0 -105 -123 -185l-63 55q44 44 44 106q0 61 -26 94z" />
    <glyph glyph-name="uniF68C" unicode="&#xf68c;" horiz-adv-x="523" 
d="M514 0h-461v560h150v-420h311v-140zM197 -109l121 78q52 -35 52 -94q0 -53 -28.5 -98.5t-75.5 -72.5l-69 50q32 37 32 75q0 25 -32 62z" />
    <glyph glyph-name="uniF68D" unicode="&#xf68d;" horiz-adv-x="523" 
d="M514 0h-461v560h150v-420h311v-140zM291 301q0 36 29 60.5t65 24.5q17 0 40 -9q21 -10 37 -31q15 -22 15 -45q0 -35 -28.5 -61t-63.5 -26q-38 0 -66 25t-28 62z" />
    <glyph glyph-name="uniF68E" unicode="&#xf68e;" horiz-adv-x="631" 
d="M578 560v-560h-116l-263 304v-304h-146v560h115l264 -304v304h146zM338 853l109 -82l-132 -164l-100 70z" />
    <glyph glyph-name="uniF68F" unicode="&#xf68f;" horiz-adv-x="631" 
d="M578 560v-560h-116l-263 304v-304h-146v560h115l264 -304v304h146zM317 598h-4l-165 136l70 88l98 -81l100 79l67 -87z" />
    <glyph glyph-name="uniF690" unicode="&#xf690;" horiz-adv-x="631" 
d="M578 560v-560h-116l-263 304v-304h-146v560h115l264 -304v304h146zM227 -109l121 78q52 -35 52 -94q0 -53 -28.5 -98.5t-75.5 -72.5l-69 50q32 37 32 75q0 25 -32 62z" />
    <glyph glyph-name="uniF692" unicode="&#xf692;" horiz-adv-x="664" 
d="M24 280q0 124 91.5 207t216.5 83q127 0 217.5 -82.5t90.5 -207.5t-91.5 -207.5t-216.5 -82.5t-216.5 83.5t-91.5 206.5zM179 280q0 -63 45 -104t108 -41q66 0 109.5 40t43.5 105q0 63 -45 104t-108 41q-64 0 -108.5 -41t-44.5 -104zM461 833l93 -72l-142 -154l-76 57z
M285 843l93 -66l-125 -170l-77 58z" />
    <glyph glyph-name="uniF693" unicode="&#xf693;" horiz-adv-x="664" 
d="M24 280q0 124 91.5 207t216.5 83q127 0 217.5 -82.5t90.5 -207.5t-91.5 -207.5t-216.5 -82.5t-216.5 83.5t-91.5 206.5zM179 280q0 -63 45 -104t108 -41q66 0 109.5 40t43.5 105q0 63 -45 104t-108 41q-64 0 -108.5 -41t-44.5 -104zM479 630h-294v120h294v-120z" />
    <glyph glyph-name="uniF695" unicode="&#xf695;" horiz-adv-x="589" 
d="M203 177v-177h-150v560h245q109 0 176.5 -44.5t67.5 -145.5q0 -52 -30 -98t-77 -68l158 -204h-181l-135 177h-74zM295 420h-92v-103h97q87 0 87 53q0 24 -20 38q-19 12 -72 12zM298 853l109 -82l-132 -164l-100 70z" />
    <glyph glyph-name="uniF696" unicode="&#xf696;" horiz-adv-x="589" 
d="M203 177v-177h-150v560h245q109 0 176.5 -44.5t67.5 -145.5q0 -52 -30 -98t-77 -68l158 -204h-181l-135 177h-74zM295 420h-92v-103h97q87 0 87 53q0 24 -20 38q-19 12 -72 12zM278 598h-4l-165 136l70 88l98 -81l100 79l67 -87z" />
    <glyph glyph-name="uniF697" unicode="&#xf697;" horiz-adv-x="589" 
d="M203 177v-177h-150v560h245q109 0 176.5 -44.5t67.5 -145.5q0 -52 -30 -98t-77 -68l158 -204h-181l-135 177h-74zM295 420h-92v-103h97q87 0 87 53q0 24 -20 38q-19 12 -72 12zM197 -109l121 78q52 -35 52 -94q0 -53 -28.5 -98.5t-75.5 -72.5l-69 50q32 37 32 75
q0 25 -32 62z" />
    <glyph glyph-name="uniF698" unicode="&#xf698;" horiz-adv-x="537" 
d="M370 170q0 15 -13 25q-13 8 -34 15q-42 9 -85 16q-35 5 -61 11.5t-55.5 19.5t-48 30t-31 44t-12.5 62q0 59 40 101t93.5 59t110.5 17q70 0 140 -23t104 -70l-87 -98q-46 28 -84.5 39.5t-90.5 11.5q-26 0 -48.5 -8.5t-22.5 -30.5q0 -13 17 -24q14 -9 84 -20
q121 -18 177 -53q29 -18 47 -52q15 -33 15 -72q0 -46 -21.5 -82t-57 -56.5t-76.5 -31t-84 -10.5q-73 0 -152.5 26t-123.5 73l79 112q89 -71 221 -71q60 0 60 40zM298 853l109 -82l-132 -164l-100 70z" />
    <glyph glyph-name="uniF699" unicode="&#xf699;" horiz-adv-x="514" 
d="M121 -161l44 69q28 -28 81 -28q14 0 21 3q8 5 8 10q0 17 -45 17h-6v88q-61 9 -122 40t-92 76l89 109q77 -89 195 -89q53 0 53 25q0 16 -19 26t-71 24q-59 16 -70 19q-160 52 -160 169q0 49 33 88.5t81 58.5q54 22 120 22q159 0 238 -104l-101 -97q-55 61 -155 61
q-61 0 -61 -28q0 -10 15 -19q13 -10 68 -24q17 -5 43 -12t35 -10q159 -50 159 -163q0 -82 -59 -125.5t-144 -49.5v-21q46 -4 76 -26t30 -64q0 -34 -20.5 -53.5t-57.5 -32.5q-29 -8 -73 -8q-78 0 -133 49z" />
    <glyph glyph-name="uniF69A" unicode="&#xf69a;" horiz-adv-x="537" 
d="M370 170q0 15 -13 25q-13 8 -34 15q-42 9 -85 16q-35 5 -61 11.5t-55.5 19.5t-48 30t-31 44t-12.5 62q0 59 40 101t93.5 59t110.5 17q70 0 140 -23t104 -70l-87 -98q-46 28 -84.5 39.5t-90.5 11.5q-26 0 -48.5 -8.5t-22.5 -30.5q0 -13 17 -24q14 -9 84 -20
q121 -18 177 -53q29 -18 47 -52q15 -33 15 -72q0 -46 -21.5 -82t-57 -56.5t-76.5 -31t-84 -10.5q-73 0 -152.5 26t-123.5 73l79 112q89 -71 221 -71q60 0 60 40zM268 816h4l165 -136l-70 -88l-98 81l-100 -79l-67 87z" />
    <glyph glyph-name="uniF69B" unicode="&#xf69b;" horiz-adv-x="537" 
d="M370 170q0 15 -13 25q-13 8 -34 15q-42 9 -85 16q-35 5 -61 11.5t-55.5 19.5t-48 30t-31 44t-12.5 62q0 59 40 101t93.5 59t110.5 17q70 0 140 -23t104 -70l-87 -98q-46 28 -84.5 39.5t-90.5 11.5q-26 0 -48.5 -8.5t-22.5 -30.5q0 -13 17 -24q14 -9 84 -20
q121 -18 177 -53q29 -18 47 -52q15 -33 15 -72q0 -46 -21.5 -82t-57 -56.5t-76.5 -31t-84 -10.5q-73 0 -152.5 26t-123.5 73l79 112q89 -71 221 -71q60 0 60 40zM197 -109l121 78q52 -35 52 -94q0 -53 -28.5 -98.5t-75.5 -72.5l-69 50q32 37 32 75q0 25 -32 62z" />
    <glyph glyph-name="uniF69D" unicode="&#xf69d;" horiz-adv-x="529" 
d="M189 415h-185v145h521v-145h-186v-415h-150v415zM266 598h-4l-165 136l70 88l98 -81l100 79l67 -87z" />
    <glyph glyph-name="uniF69E" unicode="&#xf69e;" horiz-adv-x="529" 
d="M189 415h-185v145h521v-145h-186v-415h-150v415zM182 -109l121 78q52 -35 52 -94q0 -53 -28.5 -98.5t-75.5 -72.5l-69 50q32 37 32 75q0 25 -32 62z" />
    <glyph glyph-name="uniF69F" unicode="&#xf69f;" 
d="M423 560h150v-318q0 -116 -70.5 -181.5t-184.5 -65.5q-117 0 -193 68.5t-76 182.5v314h150v-297q0 -54 33 -91t86 -37q52 0 78.5 35.5t26.5 89.5v300zM145 707l66 75q46 -52 105 -52q66 0 110 50l51 -72q-66 -98 -167 -98q-34 0 -66 13q-62 21 -99 84z" />
    <glyph glyph-name="uniF6A0" unicode="&#xf6a0;" 
d="M423 560h150v-318q0 -116 -70.5 -181.5t-184.5 -65.5q-117 0 -193 68.5t-76 182.5v314h150v-297q0 -54 33 -91t86 -37q52 0 78.5 35.5t26.5 89.5v300zM441 833l93 -72l-142 -154l-76 57zM265 843l93 -66l-125 -170l-77 58z" />
    <glyph glyph-name="uniF6A1" unicode="&#xf6a1;" 
d="M423 560h150v-318q0 -116 -70.5 -181.5t-184.5 -65.5q-117 0 -193 68.5t-76 182.5v314h150v-297q0 -54 33 -91t86 -37q52 0 78.5 35.5t26.5 89.5v300zM458 630h-294v120h294v-120z" />
    <glyph glyph-name="uniF6A2" unicode="&#xf6a2;" 
d="M423 560h150v-318q0 -83 -39 -145t-115 -86q-19 -14 -33 -31q-16 -16 -16 -34q0 -12 9 -20q9 -6 21 -6q20 0 40 10l45 -90q-16 -20 -52 -30t-68 -10q-34 0 -64.5 7.5t-55.5 30t-25 57.5q0 58 80 101q-111 5 -181 73.5t-70 176.5v314h150v-297q0 -54 33 -91t86 -37
q52 0 78.5 35.5t26.5 89.5v300z" />
    <glyph glyph-name="uniF6A3" unicode="&#xf6a3;" 
d="M423 560h150v-318q0 -116 -70.5 -181.5t-184.5 -65.5q-117 0 -193 68.5t-76 182.5v314h150v-297q0 -54 33 -91t86 -37q52 0 78.5 35.5t26.5 89.5v300zM173 731q0 55 41 92t96 37q58 0 98.5 -36.5t40.5 -92.5q0 -55 -41.5 -91t-97.5 -36q-55 0 -96 36.5t-41 90.5zM268 733
q0 -20 12 -32t32 -12q19 0 31 12q11 13 11 32q0 18 -11 31q-13 11 -31 11q-19 0 -32 -11q-12 -12 -12 -31z" />
    <glyph glyph-name="uniF6AB" unicode="&#xf6ab;" horiz-adv-x="541" 
d="M299 420h-277v140h495v-99l-293 -321h300v-140h-516v99zM298 853l109 -82l-132 -164l-100 70z" />
    <glyph glyph-name="uniF6AC" unicode="&#xf6ac;" horiz-adv-x="541" 
d="M299 420h-277v140h495v-99l-293 -321h300v-140h-516v99zM189 698q0 32 25 52t57 20q33 0 57 -20t24 -52q0 -33 -23.5 -53.5t-57.5 -20.5t-58 20t-24 54z" />
    <glyph glyph-name="uniF6AD" unicode="&#xf6ad;" horiz-adv-x="262" 
d="M206 0h-150v560h150v-560zM50 698q0 32 25 52t57 20q33 0 57 -20t24 -52q0 -33 -23.5 -53.5t-57.5 -20.5t-58 20t-24 54z" />
    <glyph glyph-name="uniF6BA" unicode="&#xf6ba;" horiz-adv-x="424" 
d="M364 299h-304v130h304v-130z" />
    <glyph glyph-name="uniF6BB" unicode="&#xf6bb;" horiz-adv-x="616" 
d="M536 301h-456v126h456v-126z" />
    <glyph glyph-name="uniF6BC" unicode="&#xf6bc;" horiz-adv-x="796" 
d="M716 301h-636v126h636v-126z" />
    <glyph glyph-name="uniF6C3" unicode="&#xf6c3;" horiz-adv-x="380" 
d="M207 -109l121 78q52 -35 52 -94q0 -53 -28.5 -98.5t-75.5 -72.5l-69 50q32 37 32 75q0 25 -32 62z" />
    <glyph glyph-name="uniF6C9" unicode="&#xf6c9;" horiz-adv-x="597" 
d="M528 974l69 -128l-240 -113l-57 99z" />
    <glyph glyph-name="uniF6CA" unicode="&#xf6ca;" horiz-adv-x="567" 
d="M389 743h-4l-184 117l58 85l128 -76l128 76l52 -83z" />
    <glyph glyph-name="uniF6CB" unicode="&#xf6cb;" horiz-adv-x="531" 
d="M115 831q0 33 25.5 54.5t59.5 21.5q32 0 57.5 -22.5t25.5 -53.5q0 -32 -25.5 -54.5t-57.5 -22.5q-27 0 -47 13q-38 21 -38 64zM364 831q0 33 26 54.5t59 21.5t57.5 -22t24.5 -54t-24.5 -54.5t-57.5 -22.5t-59 22t-26 55z" />
    <glyph glyph-name="uniF6CE" unicode="&#xf6ce;" horiz-adv-x="496" 
d="M497 832l-57 -99l-240 113l69 128z" />
    <glyph glyph-name="uniF6CF" unicode="&#xf6cf;" horiz-adv-x="664" 
d="M559 935l106 -94l-204 -113l-61 63zM315 935l130 -65l-167 -142l-64 58z" />
    <glyph glyph-name="uniF6D0" unicode="&#xf6d0;" horiz-adv-x="534" 
d="M534 770h-314v120h314v-120z" />
    <glyph glyph-name="uniF6D1" unicode="&#xf6d1;" horiz-adv-x="592" 
d="M193 893h130q12 -51 60 -51q24 0 41.5 14t20.5 37h130q-2 -65 -60.5 -114.5t-125.5 -49.5q-82 0 -132 42.5t-64 121.5z" />
    <glyph glyph-name="uniF6D4" unicode="&#xf6d4;" horiz-adv-x="489" 
d="M123 738h133q2 -53 52 -53q49 0 49 53h132q-2 -78 -52.5 -120.5t-128.5 -42.5q-82 0 -132.5 42t-52.5 121z" />
    <glyph glyph-name="uniF6F4" unicode="&#xf6f4;" horiz-adv-x="502" 
d="M169 707l66 75q46 -52 105 -52q66 0 110 50l51 -72q-66 -98 -167 -98q-34 0 -66 13q-62 21 -99 84z" />
    <glyph glyph-name="uniF6F5" unicode="&#xf6f5;" horiz-adv-x="494" 
d="M328 598h-4l-165 136l70 88l98 -81l100 79l67 -87z" />
    <glyph glyph-name="uniF6F6" unicode="&#xf6f6;" horiz-adv-x="498" 
d="M328 816h4l165 -136l-70 -88l-98 81l-100 -79l-67 87z" />
    <glyph glyph-name="uniF6F7" unicode="&#xf6f7;" horiz-adv-x="413" 
d="M250 698q0 32 25 52t57 20q33 0 57 -20t24 -52q0 -33 -23.5 -53.5t-57.5 -20.5t-58 20t-24 54z" />
    <glyph glyph-name="uniF6F8" unicode="&#xf6f8;" horiz-adv-x="544" 
d="M451 833l93 -72l-142 -154l-76 57zM275 843l93 -66l-125 -170l-77 58z" />
    <glyph glyph-name="uniF6F9" unicode="&#xf6f9;" horiz-adv-x="535" 
d="M66 118l-66 -45v150l66 45v292h150v-189l149 102v-150l-149 -102v-81h311v-140h-461v118z" />
    <glyph glyph-name="uniF6FA" unicode="&#xf6fa;" horiz-adv-x="946" 
d="M915 0h-470v18q-54 -24 -113 -24q-127 0 -217.5 81.5t-90.5 204.5t92 204.5t216 81.5q59 0 113 -23v17h463v-140h-313v-69h292v-135h-292v-76h320v-140zM332 139q73 0 113 40v199q-22 20 -51 32q-33 11 -62 11q-65 0 -109 -39t-44 -102q0 -24 9 -50q12 -41 54.5 -66
t89.5 -25z" />
    <glyph glyph-name="uniF6FB" unicode="&#xf6fb;" horiz-adv-x="395" 
d="M400 -70l45 -90q-16 -20 -52 -30t-68 -10q-34 0 -64.5 7.5t-55.5 30t-25 57.5q0 44 38 74.5t82 41.5t89 12v-23q-22 0 -40.5 -14.5t-18.5 -35.5q0 -13 9 -22q10 -8 21 -8q20 0 40 10z" />
    <glyph glyph-name="uniF6FC" unicode="&#xf6fc;" horiz-adv-x="483" 
d="M207 731q0 55 41 92t96 37q58 0 98.5 -36.5t40.5 -92.5q0 -55 -41.5 -91t-97.5 -36q-55 0 -96 36.5t-41 90.5zM302 733q0 -20 12 -32t32 -12q19 0 31 12q11 13 11 32q0 18 -11 31q-13 11 -31 11q-19 0 -32 -11q-12 -12 -12 -31z" />
    <glyph glyph-name="uniF6FD" unicode="&#xf6fd;" horiz-adv-x="537" 
d="M370 170q0 15 -13 25q-13 8 -34 15q-42 9 -85 16q-35 5 -61 11.5t-55.5 19.5t-48 30t-31 44t-12.5 62q0 59 40 101t93.5 59t110.5 17q70 0 140 -23t104 -70l-87 -98q-46 28 -84.5 39.5t-90.5 11.5q-26 0 -48.5 -8.5t-22.5 -30.5q0 -13 17 -24q14 -9 84 -20
q121 -18 177 -53q29 -18 47 -52q15 -33 15 -72q0 -46 -21.5 -82t-57 -56.5t-76.5 -31t-84 -10.5q-73 0 -152.5 26t-123.5 73l79 112q89 -71 221 -71q60 0 60 40zM270 598h-4l-165 136l70 88l98 -81l100 79l67 -87z" />
    <glyph glyph-name="uniF6FE" unicode="&#xf6fe;" horiz-adv-x="520" 
d="M215 629l-60 67q56 78 132 78q24 0 61 -19q38 -20 57 -20q36 0 66 27l49 -75q-24 -30 -58.5 -51t-68.5 -21q-21 0 -59 20q-37 19 -60 19q-28 0 -59 -25z" />
    <glyph glyph-name="uniF6FF" unicode="&#xf6ff;" horiz-adv-x="541" 
d="M299 420h-277v140h495v-99l-293 -321h300v-140h-516v99zM272 598h-4l-165 136l70 88l98 -81l100 79l67 -87z" />
    <glyph glyph-name="uniF760" unicode="&#xf760;" horiz-adv-x="414" 
d="M414 676l-86 -69l-147 160l114 86z" />
    <glyph glyph-name="uniF761" unicode="&#xf761;" 
d="M150 0h-155l261 559h110l261 -559h-157l-42 85h-235zM373 210l-63 124l-66 -124h129z" />
    <glyph glyph-name="uniF762" unicode="&#xf762;" horiz-adv-x="588" 
d="M330 0h-277v560h285q204 0 204 -145q0 -63 -49 -116q68 -40 68 -129q0 -48 -20 -82.5t-54.5 -53t-73 -26.5t-83.5 -8zM318 218h-115v-78h109q51 0 72 9q20 9 20 29q0 22 -19 31t-67 9zM310 420h-107v-67h118q65 0 65 27q0 21 -16 31q-16 9 -60 9z" />
    <glyph glyph-name="uniF763" unicode="&#xf763;" horiz-adv-x="594" 
d="M499 209l89 -96q-41 -60 -111.5 -91.5t-148.5 -31.5q-135 0 -219.5 79.5t-84.5 210.5q0 128 91 209t219 81q74 0 141.5 -28.5t103.5 -84.5l-103 -92q-21 27 -58 43.5t-72 16.5q-71 0 -119 -38t-48 -107q0 -65 47.5 -105t114.5 -40q45 0 88.5 20t69.5 54z" />
    <glyph glyph-name="uniF764" unicode="&#xf764;" horiz-adv-x="615" 
d="M229 0h-176v560h190q74 0 134 -14.5t109.5 -45t77 -85t27.5 -128.5q0 -62 -20.5 -111.5t-54.5 -82t-81 -54t-98 -30.5t-108 -9zM242 420h-39v-280h40q193 0 193 147q0 41 -16.5 69t-46.5 41t-61 18t-70 5z" />
    <glyph glyph-name="uniF765" unicode="&#xf765;" horiz-adv-x="554" 
d="M513 0h-460v560h453v-140h-303v-69h282v-135h-282v-76h310v-140z" />
    <glyph glyph-name="uniF766" unicode="&#xf766;" horiz-adv-x="530" 
d="M203 0h-150v560h458v-140h-308v-88h288v-140h-288v-192z" />
    <glyph glyph-name="uniF767" unicode="&#xf767;" horiz-adv-x="616" 
d="M448 192h-146v135h290v-235q-97 -102 -243 -102q-137 0 -231 79t-94 211q0 129 90 209.5t219 80.5q71 0 141.5 -27.5t104.5 -80.5l-105 -92q-48 55 -136 55q-72 0 -115.5 -37.5t-43.5 -107.5q0 -72 48.5 -108.5t122.5 -36.5q53 0 98 24v33z" />
    <glyph glyph-name="uniF768" unicode="&#xf768;" horiz-adv-x="640" 
d="M587 0h-150v211h-234v-211h-150v560h150v-209h234v209h150v-560z" />
    <glyph glyph-name="uniF769" unicode="&#xf769;" horiz-adv-x="262" 
d="M206 0h-150v560h150v-560z" />
    <glyph glyph-name="uniF76A" unicode="&#xf76a;" horiz-adv-x="413" 
d="M216 560h150v-381q0 -87 -47.5 -138t-133.5 -51q-139 0 -195 110l109 84q9 -21 30 -37.5t42 -16.5q13 0 22 5.5t13.5 12t6.5 19.5t2.5 20.5t0.5 21.5v351z" />
    <glyph glyph-name="uniF76B" unicode="&#xf76b;" horiz-adv-x="608" 
d="M203 0h-150v560h150v-201l205 201h195l-251 -245l266 -315h-197l-183 214l-35 -33v-181z" />
    <glyph glyph-name="uniF76C" unicode="&#xf76c;" horiz-adv-x="523" 
d="M514 0h-461v560h150v-420h311v-140z" />
    <glyph glyph-name="uniF76D" unicode="&#xf76d;" horiz-adv-x="728" 
d="M203 0h-150v560h127l188 -213l181 213h126v-560h-150v306l-138 -165h-40l-144 169v-310z" />
    <glyph glyph-name="uniF76E" unicode="&#xf76e;" horiz-adv-x="631" 
d="M578 560v-560h-116l-263 304v-304h-146v560h115l264 -304v304h146z" />
    <glyph glyph-name="uniF76F" unicode="&#xf76f;" horiz-adv-x="664" 
d="M24 280q0 124 91.5 207t216.5 83q127 0 217.5 -82.5t90.5 -207.5t-91.5 -207.5t-216.5 -82.5t-216.5 83.5t-91.5 206.5zM179 280q0 -63 45 -104t108 -41q66 0 109.5 40t43.5 105q0 63 -45 104t-108 41q-64 0 -108.5 -41t-44.5 -104z" />
    <glyph glyph-name="uniF770" unicode="&#xf770;" horiz-adv-x="586" 
d="M203 161v-161h-150v560h253q113 0 184.5 -48t71.5 -153q0 -69 -39 -115.5t-94 -64.5t-122 -18h-104zM310 420h-107v-119h102q102 0 102 59q0 60 -97 60z" />
    <glyph glyph-name="uniF771" unicode="&#xf771;" horiz-adv-x="664" 
d="M24 280q0 124 91.5 207t216.5 83q127 0 217.5 -82.5t90.5 -207.5q0 -112 -73 -185l48 -56l-105 -83l-52 58q-57 -24 -126 -24q-131 0 -219.5 81t-88.5 209zM179 280q0 -67 42.5 -106t110.5 -39q8 0 22 3l18 2l-42 44l94 80l46 -51q15 23 15 67q0 68 -42.5 106.5
t-110.5 38.5t-110.5 -39t-42.5 -106z" />
    <glyph glyph-name="uniF772" unicode="&#xf772;" horiz-adv-x="589" 
d="M203 177v-177h-150v560h245q109 0 176.5 -44.5t67.5 -145.5q0 -52 -30 -98t-77 -68l158 -204h-181l-135 177h-74zM295 420h-92v-103h97q87 0 87 53q0 24 -20 38q-19 12 -72 12z" />
    <glyph glyph-name="uniF773" unicode="&#xf773;" horiz-adv-x="537" 
d="M370 170q0 15 -13 25q-13 8 -34 15q-42 9 -85 16q-35 5 -61 11.5t-55.5 19.5t-48 30t-31 44t-12.5 62q0 59 40 101t93.5 59t110.5 17q70 0 140 -23t104 -70l-87 -98q-46 28 -84.5 39.5t-90.5 11.5q-26 0 -48.5 -8.5t-22.5 -30.5q0 -13 17 -24q14 -9 84 -20
q121 -18 177 -53q29 -18 47 -52q15 -33 15 -72q0 -46 -21.5 -82t-57 -56.5t-76.5 -31t-84 -10.5q-73 0 -152.5 26t-123.5 73l79 112q89 -71 221 -71q60 0 60 40z" />
    <glyph glyph-name="uniF774" unicode="&#xf774;" horiz-adv-x="529" 
d="M189 415h-185v145h521v-145h-186v-415h-150v415z" />
    <glyph glyph-name="uniF775" unicode="&#xf775;" 
d="M423 560h150v-318q0 -116 -70.5 -181.5t-184.5 -65.5q-117 0 -193 68.5t-76 182.5v314h150v-297q0 -54 33 -91t86 -37q52 0 78.5 35.5t26.5 89.5v300z" />
    <glyph glyph-name="uniF776" unicode="&#xf776;" horiz-adv-x="626" 
d="M475 560h161l-265 -560h-103l-278 560h163l167 -340z" />
    <glyph glyph-name="uniF777" unicode="&#xf777;" horiz-adv-x="827" 
d="M679 560h149l-176 -560h-121l-115 291l-111 -291h-121l-185 560h154l98 -290l107 290h119l108 -287z" />
    <glyph glyph-name="uniF778" unicode="&#xf778;" horiz-adv-x="614" 
d="M429 560h182l-215 -276l222 -284h-184l-127 161l-128 -161h-183l223 284l-214 276h182l121 -152z" />
    <glyph glyph-name="uniF779" unicode="&#xf779;" horiz-adv-x="611" 
d="M442 560h179l-242 -361v-199h-150v199l-239 361h182l135 -203z" />
    <glyph glyph-name="uniF77A" unicode="&#xf77a;" horiz-adv-x="541" 
d="M299 420h-277v140h495v-99l-293 -321h300v-140h-516v99z" />
    <glyph glyph-name="uniF7A1" unicode="&#xf7a1;" horiz-adv-x="263" 
d="M205 0h-146v401h146v-401zM51 490q0 32 24.5 52t57.5 20q31 0 55 -21t24 -51q0 -28 -25.5 -49t-53.5 -21q-31 0 -56.5 20t-25.5 50z" />
    <glyph glyph-name="uniF7A8" unicode="&#xf7a8;" horiz-adv-x="508" 
d="M145 700q0 30 23.5 50t54.5 20q30 0 54.5 -20.5t24.5 -49.5q0 -14 -8 -32q-10 -18 -30 -29t-41 -11q-33 0 -55.5 20t-22.5 52zM349 700q0 21 13 38.5t34 25.5q19 6 34 6q14 0 33 -6q20 -9 33 -26t13 -38q0 -32 -23 -52t-56 -20t-57 20t-24 52z" />
    <glyph glyph-name="uniF7AF" unicode="&#xf7af;" horiz-adv-x="454" 
d="M454 630h-294v120h294v-120z" />
    <glyph glyph-name="uniF7B4" unicode="&#xf7b4;" horiz-adv-x="487" 
d="M378 853l109 -82l-132 -164l-100 70z" />
    <glyph glyph-name="uniF7B8" unicode="&#xf7b8;" horiz-adv-x="477" 
d="M194 -161l44 69q28 -28 81 -28q13 0 21 3q8 5 8 10q0 17 -45 17h-6v90h75v-26q46 -4 76 -26t30 -64q0 -34 -20.5 -53.5t-57.5 -32.5q-29 -8 -73 -8q-78 0 -133 49z" />
    <glyph glyph-name="uniF7BF" unicode="&#xf7bf;" horiz-adv-x="436" 
d="M160 168q0 -28 42 -28q56 0 87 66l122 -58q-24 -73 -79.5 -113.5t-131.5 -40.5q-80 0 -137.5 37.5t-57.5 112.5q0 58 25.5 96.5t77.5 73.5q17 12 31 24q12 10 12 28v10q-1 2 -1 7t-1 8l-2 10l137 2q9 -18 9 -40q1 -36 -17 -68q-18 -31 -74 -69q-21 -15 -30 -26
q-12 -14 -12 -32zM301 490q0 -30 -25.5 -50t-56.5 -20q-29 0 -54 20.5t-25 49.5q0 31 23.5 51.5t55.5 20.5q33 0 57.5 -20t24.5 -52z" />
    <glyph glyph-name="uniF7E0" unicode="&#xf7e0;" 
d="M150 0h-155l261 559h110l261 -559h-157l-42 85h-235zM373 210l-63 124l-66 -124h129zM409 676l-86 -69l-147 160l114 86z" />
    <glyph glyph-name="uniF7E1" unicode="&#xf7e1;" 
d="M150 0h-155l261 559h110l261 -559h-157l-42 85h-235zM373 210l-63 124l-66 -124h129zM343 853l109 -82l-132 -164l-100 70z" />
    <glyph glyph-name="uniF7E2" unicode="&#xf7e2;" 
d="M150 0h-155l261 559h110l261 -559h-157l-42 85h-235zM373 210l-63 124l-66 -124h129zM310 816h4l165 -136l-70 -88l-98 81l-100 -79l-67 87z" />
    <glyph glyph-name="uniF7E3" unicode="&#xf7e3;" 
d="M150 0h-155l261 559h110l261 -559h-157l-42 85h-235zM373 210l-63 124l-66 -124h129zM189 629l-60 67q56 78 132 78q24 0 61 -19q38 -20 57 -20q36 0 66 27l49 -75q-24 -30 -58.5 -51t-68.5 -21q-21 0 -59 20q-37 19 -60 19q-28 0 -59 -25z" />
    <glyph glyph-name="uniF7E4" unicode="&#xf7e4;" 
d="M150 0h-155l261 559h110l261 -559h-157l-42 85h-235zM373 210l-63 124l-66 -124h129zM129 700q0 30 23.5 50t54.5 20q30 0 54.5 -20.5t24.5 -49.5q0 -14 -8 -32q-10 -18 -30 -29t-41 -11q-33 0 -55.5 20t-22.5 52zM333 700q0 21 13 38.5t34 25.5q19 6 34 6q14 0 33 -6
q20 -9 33 -26t13 -38q0 -32 -23 -52t-56 -20t-57 20t-24 52z" />
    <glyph glyph-name="uniF7E5" unicode="&#xf7e5;" 
d="M150 0h-155l261 559h110l261 -559h-157l-42 85h-235zM373 210l-63 124l-66 -124h129zM173 731q0 55 41 92t96 37q58 0 98.5 -36.5t40.5 -92.5q0 -55 -41.5 -91t-97.5 -36q-55 0 -96 36.5t-41 90.5zM268 733q0 -20 12 -32t32 -12q19 0 31 12q11 13 11 32q0 18 -11 31
q-13 11 -31 11q-19 0 -32 -11q-12 -12 -12 -31z" />
    <glyph glyph-name="uniF7E6" unicode="&#xf7e6;" horiz-adv-x="992" 
d="M961 0h-470v85h-249l-78 -85h-164l452 560h501v-140h-312v-69h292v-135h-292v-76h320v-140zM491 404l-159 -194h159v194z" />
    <glyph glyph-name="uniF7E7" unicode="&#xf7e7;" horiz-adv-x="594" 
d="M184 -161l44 69q28 -28 81 -28q13 0 21 3q8 5 8 10q0 17 -45 17h-6v86q-119 9 -191 87.5t-72 196.5q0 127 91 206.5t219 79.5q75 0 142.5 -26.5t102.5 -82.5l-103 -92q-21 27 -57 41.5t-73 14.5q-71 0 -119 -36t-48 -105q0 -65 47.5 -103t114.5 -38q104 0 158 70l89 -96
q-37 -53 -98 -84t-128 -34v-21q46 -4 76 -26t30 -64q0 -34 -20.5 -53.5t-57.5 -32.5q-29 -8 -73 -8q-78 0 -133 49z" />
    <glyph glyph-name="uniF7E8" unicode="&#xf7e8;" horiz-adv-x="554" 
d="M513 0h-460v560h453v-140h-303v-69h282v-135h-282v-76h310v-140zM394 676l-86 -69l-147 160l114 86z" />
    <glyph glyph-name="uniF7E9" unicode="&#xf7e9;" horiz-adv-x="554" 
d="M513 0h-460v560h453v-140h-303v-69h282v-135h-282v-76h310v-140zM318 853l109 -82l-132 -164l-100 70z" />
    <glyph glyph-name="uniF7EA" unicode="&#xf7ea;" horiz-adv-x="554" 
d="M513 0h-460v560h453v-140h-303v-69h282v-135h-282v-76h310v-140zM288 816h4l165 -136l-70 -88l-98 81l-100 -79l-67 87z" />
    <glyph glyph-name="uniF7EB" unicode="&#xf7eb;" horiz-adv-x="554" 
d="M513 0h-460v560h453v-140h-303v-69h282v-135h-282v-76h310v-140zM95 700q0 30 23.5 50t54.5 20q30 0 54.5 -20.5t24.5 -49.5q0 -14 -8 -32q-10 -18 -30 -29t-41 -11q-33 0 -55.5 20t-22.5 52zM299 700q0 21 13 38.5t34 25.5q19 6 34 6q14 0 33 -6q20 -9 33 -26t13 -38
q0 -32 -23 -52t-56 -20t-57 20t-24 52z" />
    <glyph glyph-name="uniF7EC" unicode="&#xf7ec;" horiz-adv-x="262" 
d="M206 0h-150v560h150v-560zM234 676l-86 -69l-147 160l114 86z" />
    <glyph glyph-name="uniF7ED" unicode="&#xf7ed;" horiz-adv-x="262" 
d="M206 0h-150v560h150v-560zM168 853l109 -82l-132 -164l-100 70z" />
    <glyph glyph-name="uniF7EE" unicode="&#xf7ee;" horiz-adv-x="262" 
d="M206 0h-150v560h150v-560zM130 816h4l165 -136l-70 -88l-98 81l-100 -79l-67 87z" />
    <glyph glyph-name="uniF7EF" unicode="&#xf7ef;" horiz-adv-x="262" 
d="M206 0h-150v560h150v-560zM-51 700q0 30 23.5 50t54.5 20q30 0 54.5 -20.5t24.5 -49.5q0 -14 -8 -32q-10 -18 -30 -29t-41 -11q-33 0 -55.5 20t-22.5 52zM153 700q0 21 13 38.5t34 25.5q20 6 34 6t33 -6q20 -9 33 -26t13 -38q0 -32 -23 -52t-56 -20t-57 20t-24 52z" />
    <glyph glyph-name="uniF7F0" unicode="&#xf7f0;" horiz-adv-x="673" 
d="M111 218h-91v124h91v218h191q73 0 133 -14.5t109.5 -45t77 -85t27.5 -128.5q0 -77 -30 -134.5t-82.5 -89.5t-114.5 -47.5t-134 -15.5h-177v218zM300 420h-39v-78h126v-124h-126v-78h40q193 0 193 147q0 41 -16.5 69t-46.5 41t-61 18t-70 5z" />
    <glyph glyph-name="uniF7F1" unicode="&#xf7f1;" horiz-adv-x="631" 
d="M578 560v-560h-116l-263 304v-304h-146v560h115l264 -304v304h146zM183 629l-60 67q56 78 132 78q24 0 61 -19q38 -20 57 -20q36 0 66 27l49 -75q-24 -30 -58.5 -51t-68.5 -21q-21 0 -59 20q-37 19 -60 19q-28 0 -59 -25z" />
    <glyph glyph-name="uniF7F2" unicode="&#xf7f2;" horiz-adv-x="664" 
d="M24 280q0 124 91.5 207t216.5 83q127 0 217.5 -82.5t90.5 -207.5t-91.5 -207.5t-216.5 -82.5t-216.5 83.5t-91.5 206.5zM179 280q0 -63 45 -104t108 -41q66 0 109.5 40t43.5 105q0 63 -45 104t-108 41q-64 0 -108.5 -41t-44.5 -104zM414 676l-86 -69l-147 160l114 86z
" />
    <glyph glyph-name="uniF7F3" unicode="&#xf7f3;" horiz-adv-x="664" 
d="M24 280q0 124 91.5 207t216.5 83q127 0 217.5 -82.5t90.5 -207.5t-91.5 -207.5t-216.5 -82.5t-216.5 83.5t-91.5 206.5zM179 280q0 -63 45 -104t108 -41q66 0 109.5 40t43.5 105q0 63 -45 104t-108 41q-64 0 -108.5 -41t-44.5 -104zM378 853l109 -82l-132 -164l-100 70z
" />
    <glyph glyph-name="uniF7F4" unicode="&#xf7f4;" horiz-adv-x="664" 
d="M24 280q0 124 91.5 207t216.5 83q127 0 217.5 -82.5t90.5 -207.5t-91.5 -207.5t-216.5 -82.5t-216.5 83.5t-91.5 206.5zM179 280q0 -63 45 -104t108 -41q66 0 109.5 40t43.5 105q0 63 -45 104t-108 41q-64 0 -108.5 -41t-44.5 -104zM331 816h4l165 -136l-70 -88l-98 81
l-100 -79l-67 87z" />
    <glyph glyph-name="uniF7F5" unicode="&#xf7f5;" horiz-adv-x="664" 
d="M24 280q0 124 91.5 207t216.5 83q127 0 217.5 -82.5t90.5 -207.5t-91.5 -207.5t-216.5 -82.5t-216.5 83.5t-91.5 206.5zM179 280q0 -63 45 -104t108 -41q66 0 109.5 40t43.5 105q0 63 -45 104t-108 41q-64 0 -108.5 -41t-44.5 -104zM210 629l-60 67q56 78 132 78
q24 0 61 -19q38 -20 57 -20q36 0 66 27l49 -75q-24 -30 -58.5 -51t-68.5 -21q-21 0 -59 20q-37 19 -60 19q-28 0 -59 -25z" />
    <glyph glyph-name="uniF7F6" unicode="&#xf7f6;" horiz-adv-x="664" 
d="M24 280q0 124 91.5 207t216.5 83q127 0 217.5 -82.5t90.5 -207.5t-91.5 -207.5t-216.5 -82.5t-216.5 83.5t-91.5 206.5zM179 280q0 -63 45 -104t108 -41q66 0 109.5 40t43.5 105q0 63 -45 104t-108 41q-64 0 -108.5 -41t-44.5 -104zM150 700q0 30 23.5 50t54.5 20
q30 0 54.5 -20.5t24.5 -49.5q0 -14 -8 -32q-10 -18 -30 -29t-41 -11q-33 0 -55.5 20t-22.5 52zM354 700q0 21 13 38.5t34 25.5q19 6 34 6q13 0 33 -6q20 -9 33 -26t13 -38q0 -32 -23 -52t-56 -20t-57 20t-24 52z" />
    <glyph glyph-name="uniF7F8" unicode="&#xf7f8;" horiz-adv-x="664" 
d="M149 -32l-106 87l43 49q-62 78 -62 176q0 123 92 204.5t216 81.5q70 0 134 -27l46 52l105 -84l-42 -48q65 -74 65 -179q0 -125 -91.5 -205.5t-216.5 -80.5q-73 0 -136 28zM485 280q0 33 -13 60l-172 -198q15 -3 32 -3q67 0 110 38t43 103zM179 280q0 -29 11 -57l171 195
q-15 3 -29 3q-65 0 -109 -39t-44 -102z" />
    <glyph glyph-name="uniF7F9" unicode="&#xf7f9;" 
d="M423 560h150v-318q0 -116 -70.5 -181.5t-184.5 -65.5q-117 0 -193 68.5t-76 182.5v314h150v-297q0 -54 33 -91t86 -37q52 0 78.5 35.5t26.5 89.5v300zM394 676l-86 -69l-147 160l114 86z" />
    <glyph glyph-name="uniF7FA" unicode="&#xf7fa;" 
d="M423 560h150v-318q0 -116 -70.5 -181.5t-184.5 -65.5q-117 0 -193 68.5t-76 182.5v314h150v-297q0 -54 33 -91t86 -37q52 0 78.5 35.5t26.5 89.5v300zM348 853l109 -82l-132 -164l-100 70z" />
    <glyph glyph-name="uniF7FB" unicode="&#xf7fb;" 
d="M423 560h150v-318q0 -116 -70.5 -181.5t-184.5 -65.5q-117 0 -193 68.5t-76 182.5v314h150v-297q0 -54 33 -91t86 -37q52 0 78.5 35.5t26.5 89.5v300zM310 816h4l165 -136l-70 -88l-98 81l-100 -79l-67 87z" />
    <glyph glyph-name="uniF7FC" unicode="&#xf7fc;" 
d="M423 560h150v-318q0 -116 -70.5 -181.5t-184.5 -65.5q-117 0 -193 68.5t-76 182.5v314h150v-297q0 -54 33 -91t86 -37q52 0 78.5 35.5t26.5 89.5v300zM129 700q0 30 23.5 50t54.5 20q30 0 54.5 -20.5t24.5 -49.5q0 -14 -8 -32q-10 -18 -30 -29t-41 -11q-33 0 -55.5 20
t-22.5 52zM333 700q0 21 13 38.5t34 25.5q19 6 34 6q14 0 33 -6q20 -9 33 -26t13 -38q0 -32 -23 -52t-56 -20t-57 20t-24 52z" />
    <glyph glyph-name="uniF7FD" unicode="&#xf7fd;" horiz-adv-x="611" 
d="M442 560h179l-242 -361v-199h-150v199l-239 361h182l135 -203zM328 853l109 -82l-132 -164l-100 70z" />
    <glyph glyph-name="uniF7FE" unicode="&#xf7fe;" horiz-adv-x="566" 
d="M203 86v-86h-150v560h150v-75h83q113 0 184.5 -48t71.5 -153q0 -69 -39 -115.5t-94 -64.5t-122 -18h-84zM290 345h-87v-119h82q102 0 102 59q0 60 -97 60z" />
    <glyph glyph-name="uniF7FF" unicode="&#xf7ff;" horiz-adv-x="611" 
d="M442 560h179l-242 -361v-199h-150v199l-239 361h182l135 -203zM123 700q0 30 23.5 50t54.5 20q30 0 54.5 -20.5t24.5 -49.5q0 -14 -8 -32q-10 -18 -30 -29t-41 -11q-33 0 -55.5 20t-22.5 52zM327 700q0 21 13 38.5t34 25.5q20 6 34 6t33 -6q20 -9 33 -26t13 -38
q0 -32 -23 -52t-56 -20t-57 20t-24 52z" />
    <glyph glyph-name="uniFE56" unicode="&#xfe56;" horiz-adv-x="436" 
d="M256 393q0 14 -10 21q-11 6 -32 6q-55 0 -87 -65l-122 58q56 153 212 153q81 0 137.5 -37t56.5 -113q0 -60 -24.5 -97t-78.5 -73q-29 -19 -35 -28q-8 -11 -8 -23q0 -5 1 -10q0 -5 2 -15q1 -5 1 -10l-137 -2q-9 18 -9 40q0 48 21.5 76t69.5 60q18 13 31 27q11 14 11 32z
M115 70q0 31 25.5 50.5t56.5 19.5q30 0 54.5 -20.5t24.5 -49.5q0 -31 -24 -51.5t-55 -20.5q-32 0 -57 20.5t-25 51.5z" />
    <glyph glyph-name="uniFE57" unicode="&#xfe57;" horiz-adv-x="263" 
d="M205 159h-146v401h146v-401zM51 70q0 31 25.5 50.5t56.5 19.5q30 0 54.5 -20.5t24.5 -49.5q0 -30 -24 -51t-55 -21q-32 0 -57 20.5t-25 51.5z" />
    <glyph glyph-name="uniFEFF" unicode="&#xfeff;" horiz-adv-x="0" 
 />
    <glyph glyph-name="_766" horiz-adv-x="236" 
 />
    <glyph glyph-name="_767" horiz-adv-x="222" 
d="M48 701h154q6 -8 11 -30q3 -20 3 -40q0 -105 -123 -185l-63 55q44 44 44 106q0 61 -26 94z" />
    <glyph glyph-name="_768" horiz-adv-x="222" 
d="M48 560h154q6 -8 11 -30q3 -19 3 -40q0 -105 -123 -185l-63 55q44 44 44 106q0 61 -26 94z" />
    <glyph glyph-name="_769" horiz-adv-x="591" 
d="M546 0h-145v41q-17 -18 -44.5 -31t-53.5 -16q-32 -2 -33 -2q-117 0 -181 75t-64 192q0 113 70 192.5t180 79.5q86 0 126 -34v23h145v-520zM301 127q13 0 33 6q46 10 67 55v159q-27 49 -95 49q-61 0 -96 -37.5t-35 -97.5q0 -58 34.5 -96t91.5 -38z" />
    <glyph glyph-name="_770" horiz-adv-x="591" 
d="M546 0h-145v41q-17 -18 -44.5 -31t-53.5 -16q-32 -2 -33 -2q-117 0 -181 75t-64 192q0 113 70 192.5t180 79.5q86 0 126 -34v23h145v-520zM301 127q13 0 33 6q46 10 67 55v159q-27 49 -95 49q-61 0 -96 -37.5t-35 -97.5q0 -58 34.5 -96t91.5 -38zM163 707l66 75
q46 -52 105 -52q66 0 110 50l51 -72q-66 -98 -167 -98q-34 0 -66 13q-62 21 -99 84z" />
    <glyph glyph-name="_771" horiz-adv-x="591" 
d="M546 0h-145v41q-17 -18 -44.5 -31t-53.5 -16q-32 -2 -33 -2q-117 0 -181 75t-64 192q0 113 70 192.5t180 79.5q86 0 126 -34v23h145v-520zM301 127q13 0 33 6q46 10 67 55v159q-27 49 -95 49q-61 0 -96 -37.5t-35 -97.5q0 -58 34.5 -96t91.5 -38zM462 610h-294v120h294
v-120z" />
    <glyph glyph-name="_772" horiz-adv-x="591" 
d="M546 0h-145v41q-17 -18 -44.5 -31t-53.5 -16q-32 -2 -33 -2q-117 0 -181 75t-64 192q0 113 70 192.5t180 79.5q86 0 126 -34v23h145v-520zM301 127q13 0 33 6q46 10 67 55v159q-27 49 -95 49q-61 0 -96 -37.5t-35 -97.5q0 -58 34.5 -96t91.5 -38zM404 656l-86 -69
l-147 160l114 86z" />
    <glyph glyph-name="_773" horiz-adv-x="591" 
d="M546 0h-145v41q-17 -18 -44.5 -31t-53.5 -16q-32 -2 -33 -2q-117 0 -181 75t-64 192q0 113 70 192.5t180 79.5q86 0 126 -34v23h145v-520zM301 127q13 0 33 6q46 10 67 55v159q-27 49 -95 49q-61 0 -96 -37.5t-35 -97.5q0 -58 34.5 -96t91.5 -38zM131 660q0 30 23.5 50
t54.5 20q30 0 54.5 -20.5t24.5 -49.5q0 -14 -8 -32q-10 -18 -30 -29t-41 -11q-33 0 -55.5 20t-22.5 52zM335 660q0 21 13 38.5t34 25.5q20 6 34 6t33 -6q20 -9 33 -26t13 -38q0 -32 -23 -52t-56 -20t-57 20t-24 52z" />
    </font>
</defs>
</svg>
